<?xml version="1.0" encoding="utf-8"?>
<!-- Generator: Adobe Illustrator 27.5.0, SVG Export Plug-In . SVG Version: 6.00 Build 0)  -->
<svg version="1.1" id="Layer_1" xmlns="http://www.w3.org/2000/svg" xmlns:xlink="http://www.w3.org/1999/xlink" x="0px" y="0px"
	 viewBox="0 0 486.02 494.91" style="enable-background:new 0 0 486.02 494.91;" xml:space="preserve">
<style type="text/css">
	.st0{fill-rule:evenodd;clip-rule:evenodd;fill:#F3F3F3;}
	.st1{fill:#F3F3F3;}
</style>
<g>
	<path class="st0" d="M88.31,26.33c-0.08-0.35-0.07-0.79,0.26-1.29c0.88-1.34,2.39-1.47,3.66-0.64c0.71,0.47,1.17,1.22,1.36,2.1
		c0.23,1.08,0.03,2.35-0.45,3.25c-0.45,0.85-1.14,1.38-1.86,1.51c-0.56,0.1-1.2,0.01-1.85-0.46c-0.3-0.22-0.65-0.68-0.86-1.35
		C88.29,28.56,88.18,27.22,88.31,26.33L88.31,26.33z"/>
	<path class="st0" d="M89.56,39.92c-0.16-0.76-0.31-1.49-0.43-2.18c-0.22-1.25,0.72-1.6,0.91-1.67c0.31-0.1,0.9-0.21,1.45,0.37
		c0.07,0.07,0.2,0.24,0.33,0.49c0.19,0.36,0.51,1.12,0.69,1.44c0.89,1.59,1.63,3.26,2.26,4.97c0.92,2.52,3.37,10.5,2.4,15.21
		c-0.54,2.58-1.97,4.32-4.66,4.49c-2.54,0.17-4-1.57-4.48-4.48c-0.82-4.95,1.31-13.75,1.49-15.95
		C89.6,41.71,89.62,40.82,89.56,39.92L89.56,39.92z"/>
	<path class="st0" d="M99.93,25.79c-0.22,0.03-0.42,0.06-0.59,0.06c-1.22,0.03-1.91-0.55-2.16-1.29c-0.17-0.49-0.12-1.12,0.42-1.7
		c0.53-0.56,2.09-1.26,2.32-1.36c1.79-0.77,10.27-2.45,15-2.09c1.49,0.11,2.66,0.46,3.33,0.96c0.78,0.59,1.13,1.36,0.98,2.33
		c-0.66,4.32-4.12,5.67-8.25,5.53C106.77,28.09,101.89,26.35,99.93,25.79L99.93,25.79z"/>
	<path class="st0" d="M97.16,34.31l-0.12-0.24c-0.23-0.5-0.36-0.95-0.37-1.18c-0.05-0.77,0.36-1.18,0.74-1.39
		c0.22-0.12,0.55-0.23,0.98-0.19c0.31,0.03,0.8,0.15,1.42,0.42c2.58,1.1,8.32,4.82,11.82,8.77c3.46,3.89,4.59,8.01,0.69,10.61
		c-2.85,1.9-5.64,0.7-7.98-1.99c-2.85-3.28-5.04-8.83-5.84-10.89c-0.44-1.13-0.87-2.28-1.23-3.44
		C97.24,34.71,97.2,34.52,97.16,34.31L97.16,34.31z M108.14,48.86c0.03,0.02,0.05,0.03,0.08,0.04l-0.01-0.04
		C108.19,48.86,108.16,48.86,108.14,48.86L108.14,48.86z M101.22,35.85l0.01-0.01l-0.03-0.02L101.22,35.85L101.22,35.85z"/>
</g>
<path class="st0" d="M43.03,34.45c-0.02-0.15-0.06-0.36-0.1-0.51c-0.17-0.53-0.44-1.07-0.78-1.63c-0.5-0.81-1.14-1.62-1.88-2.41
	c-2.07-2.21-4.89-4.22-7.74-5.16c-1.46-0.49-2.92-0.72-4.22-0.31c-2.3,0.72-3.52,3.34-3.97,8.15c-0.23,2.4,0.34,4.91,1.6,6.97
	c6.91,11.34,17.82,12.79,25.09,7.95c7.39-4.92,10.36-15.87,2.05-28.31c-9.24-13.82-25.5-13.96-35.79-5.75
	c-6.93,5.53-11.1,14.83-8.79,26.24c5.24,25.87,32.99,36.33,49.94,25.75c7.17-4.48,12.18-12.79,12.75-25.14
	c0.1-2.15,0.54-4.63,0.5-6.89c-0.02-1.06,0.04-2.12-0.77-2.72c-1.74-1.28-2.11-3.74-0.82-5.48c1.28-1.74,3.74-2.11,5.48-0.82
	c2.34,1.73,3.49,4.21,3.83,7.12c0.34,2.88-0.26,6.28-0.39,9.15c-0.72,15.54-7.4,25.8-16.42,31.43c-20.82,13-55.32,0.95-61.76-30.84
	c-2.99-14.77,2.6-26.75,11.58-33.92C25.96-3.5,47.4-3.38,59.58,14.84c11.54,17.27,6.04,32.35-4.22,39.18
	c-10.37,6.91-26.25,5.79-36.11-10.4c-2.12-3.48-3.09-7.72-2.71-11.78c0.88-9.35,4.95-13.49,9.43-14.89c2.77-0.86,5.9-0.68,9.02,0.36
	c4.03,1.34,8.06,4.11,10.99,7.24c2.1,2.24,3.63,4.67,4.36,6.87c0.68,2.05,0.7,3.97,0.17,5.61c-0.87,2.68-3.24,5.14-8.44,5.62
	c-2.15,0.2-4.06-1.39-4.26-3.54c-0.2-2.15,1.39-4.06,3.54-4.26C41.98,34.8,42.71,34.56,43.03,34.45L43.03,34.45z"/>
<g>
	<path class="st0" d="M12.52,414.08c6.29-2.98,11.08-6.94,14.18-12.26c0.93-1.59,1.68-3.25,2.08-5.11c0.55-2.53,0.31-5.29-0.17-8.16
		c-0.28-1.97-2.1-3.35-4.08-3.07c-1.97,0.28-3.35,2.1-3.07,4.08c0.15,1.54,0.05,3-0.05,4.41c-0.04,0.62-0.09,1.23-0.14,1.84
		c-0.16,2.22-0.29,4.29-1,6.33C18.76,406.49,16.19,410.38,12.52,414.08L12.52,414.08z"/>
	<path class="st0" d="M16.2,421.03c8.14,0.28,15.83-1.73,22.41-5.9c1.87-1.18,3.64-2.49,5.16-4.13c2.21-2.38,3.79-5.34,5.15-8.47
		c0.83-1.81,0.04-3.95-1.77-4.79c-1.81-0.83-3.95-0.04-4.79,1.77c-0.89,1.77-1.99,3.35-3.11,4.88c-0.49,0.67-0.98,1.33-1.47,1.99
		c-1.71,2.32-3.42,4.53-5.58,6.4C27.66,416.71,22.29,419.52,16.2,421.03L16.2,421.03z"/>
	<path class="st0" d="M16.93,426.95c4.81,4.52,11.04,8.63,17.9,11.09c1.9,0.68,3.79,1.26,5.76,1.49c3.1,0.36,6.18-0.11,9.11-0.84
		c1.94-0.43,3.17-2.36,2.74-4.31c-0.43-1.94-2.36-3.17-4.31-2.74c-1.67,0.31-3.38,0.32-5.11,0.32c-0.75,0-1.49-0.01-2.25,0
		c-2.61,0.03-5.21,0.08-7.87-0.29C27.14,430.88,21.64,429.22,16.93,426.95L16.93,426.95z"/>
</g>
<g>
	<g>
		<path class="st0" d="M101.4,137.92c0.27,0.45,0.45,0.97,0.64,1.46c0.43,1.14,0.84,2.31,1.21,3.48c0.46,1.45,1.03,6.96-0.12,10.01
			c-0.63,1.66-1.73,2.65-3.35,2.51c-0.72-0.06-1.3-0.43-1.72-1.06c-0.46-0.69-0.74-1.77-0.82-3.09c-0.25-4,1.18-10.4,2.09-12.95
			c-0.05-0.18-0.02-0.33,0.01-0.43c0.06-0.24,0.19-0.48,0.49-0.61c0.37-0.42,0.85-0.27,0.96-0.23c0.21,0.07,0.55,0.25,0.61,0.76
			C101.4,137.79,101.4,137.84,101.4,137.92L101.4,137.92z M100.35,153.53c0.26-0.07,0.47-0.25,0.65-0.48
			c-0.06,0.03-0.1,0.05-0.13,0.06c-0.07,0.03-0.14,0.04-0.2,0.05C100.56,153.31,100.46,153.43,100.35,153.53L100.35,153.53
			L100.35,153.53z"/>
		<path class="st0" d="M97.8,138.39c0.02,0.29,0.05,0.75,0,0.96c-0.46,1.9-3.06,7.52-5.73,10.48c-0.76,0.84-1.54,1.47-2.27,1.8
			c-0.62,0.28-1.22,0.36-1.79,0.24c-0.49-0.1-0.85-0.39-1.09-0.78c-0.25-0.39-0.36-0.91-0.41-1.31c-0.28-2.31,0.67-4.44,2.2-6.33
			c2.11-2.6,5.36-4.75,7.57-6.34c0.8-0.57,2.24-0.14,1.72,0.79l0,0.01C97.97,138.1,97.91,138.26,97.8,138.39L97.8,138.39z"/>
		<path class="st0" d="M101.45,152.45c0.11,0.2,0.15,0.45,0.08,0.68c-0.11,0.41-0.22,0.62-0.27,0.71c-0.12,0.19-0.26,0.28-0.35,0.33
			c-0.16,0.09-0.32,0.12-0.46,0.12c-0.09,0.03-0.17,0.03-0.23,0.03c-0.32,0.01-0.7-0.08-0.89-0.6c-0.03-0.07-0.05-0.16-0.06-0.24
			c-0.13-0.13-0.23-0.3-0.26-0.54c-0.02-0.14-0.01-0.36,0.07-0.59c0.1-0.3,0.32-0.67,0.42-0.78c0.37-0.41,0.79-0.33,0.98-0.27
			c0.19,0.06,0.36,0.17,0.49,0.37c0.27,0.14,0.47,0.3,0.47,0.31C101.44,151.98,101.52,152.16,101.45,152.45L101.45,152.45z"/>
		<path class="st0" d="M93.31,133.56c0.48-0.09,0.88-0.1,1.17-0.04c0.47,0.1,0.77,0.36,0.94,0.7c0.39,0.79,0.29,1.6-0.28,2.4
			c-0.89,1.25-3.2,2.51-5.7,3.43c-2.78,1.02-5.75,1.62-6.97,1.5c-0.74-0.08-1.13-0.45-1.27-0.77c-0.19-0.43-0.17-0.94,0.14-1.49
			c0.26-0.46,0.78-0.99,1.47-1.52c2.35-1.79,6.84-3.79,7.8-4.01C91.49,133.57,92.41,133.47,93.31,133.56L93.31,133.56z"/>
	</g>
	<path class="st0" d="M98.61,125.06c0.94,0.58,1.97,1.11,3.1,1.6c14.69,6.41,28.69-0.51,42.73-9.02
		c8.27-5.01,16.49-10.72,24.87-14.89c6.26-3.12,12.6-5.42,18.97-6.14c6.97-0.78,13.99,0.27,20.93,4.22
		c5.15,2.93,10.22,7.48,15.28,14.08c-5.7-5.74-11.16-9.44-16.45-11.72c-6.6-2.83-12.88-3.2-19.08-2.02
		c-2.93,0.55-5.82,1.46-8.72,2.59c-2.81,1.1-5.61,2.42-8.42,3.88c-8.2,4.26-16.38,9.77-24.57,14.66
		c-15.6,9.32-31.34,16.12-47.53,8.86c-3.03-1.37-5.47-2.99-7.4-4.8c-2.63,0.42-5.16,0.66-7.42,0.75c-13.59,0.5-25.31-2.1-35.56-7.59
		c-10.19-5.45-18.91-13.74-26.65-24.49c-2.48-3.46-5.06-6.96-7.08-10.72c-1.35-2.52-2.44-5.15-3.08-7.97
		c0.75,2.78,1.94,5.36,3.37,7.81c2.15,3.66,4.86,7.04,7.46,10.39c7.95,10.28,16.79,18.08,26.93,23.15
		c10.04,5.02,21.38,7.36,34.48,6.59c1.62-0.09,3.37-0.27,5.2-0.54c-5.14-6.86-4.35-15.49-0.5-22.52
		c6.1-11.12,19.91-17.87,29.77-7.43c1.88,1.99,3.1,4.2,3.64,6.55c0.54,2.37,0.39,4.9-0.55,7.49c-2.04,5.62-6.63,9.87-12.3,12.9
		C106.5,122.62,102.55,124.04,98.61,125.06L98.61,125.06z M95.47,122.68c4.44-1.05,8.99-2.64,12.97-4.86
		c4.83-2.7,8.81-6.33,10.47-11.19c0.65-1.89,0.75-3.72,0.32-5.43c-0.42-1.72-1.38-3.3-2.78-4.73c-7.88-8.05-18.45-1.95-23.09,6.86
		c-2.26,4.28-3.16,9.28-1.58,13.79C92.49,119.12,93.7,121,95.47,122.68L95.47,122.68z"/>
</g>
<g>
	<g>
		<path class="st0" d="M362.93,315.65c0.27,0.45,0.45,0.97,0.64,1.46c0.43,1.14,0.84,2.31,1.21,3.48c0.46,1.45,1.03,6.96-0.12,10.01
			c-0.63,1.66-1.73,2.65-3.35,2.51c-0.72-0.06-1.3-0.43-1.72-1.06c-0.46-0.69-0.74-1.77-0.82-3.09c-0.25-4,1.18-10.4,2.09-12.95
			c-0.05-0.18-0.02-0.33,0.01-0.43c0.06-0.24,0.19-0.48,0.49-0.61c0.37-0.42,0.85-0.27,0.96-0.23c0.21,0.07,0.55,0.25,0.61,0.76
			C362.93,315.52,362.93,315.58,362.93,315.65L362.93,315.65z M361.88,331.26c0.26-0.07,0.47-0.25,0.65-0.48
			c-0.06,0.03-0.1,0.05-0.13,0.06c-0.07,0.03-0.14,0.04-0.2,0.05C362.09,331.05,361.99,331.17,361.88,331.26L361.88,331.26
			L361.88,331.26z"/>
		<path class="st0" d="M359.33,316.12c0.02,0.29,0.05,0.75,0,0.96c-0.46,1.9-3.06,7.52-5.73,10.48c-0.76,0.84-1.54,1.47-2.27,1.8
			c-0.62,0.28-1.22,0.36-1.79,0.24c-0.49-0.1-0.85-0.39-1.09-0.78c-0.25-0.39-0.36-0.91-0.41-1.31c-0.28-2.31,0.67-4.44,2.2-6.33
			c2.11-2.6,5.36-4.75,7.57-6.34c0.8-0.57,2.24-0.14,1.72,0.79l0,0.01C359.5,315.83,359.43,315.99,359.33,316.12L359.33,316.12z"/>
		<path class="st0" d="M362.98,330.19c0.11,0.2,0.15,0.45,0.08,0.68c-0.11,0.41-0.22,0.62-0.27,0.71c-0.12,0.19-0.26,0.28-0.35,0.33
			c-0.16,0.09-0.32,0.12-0.46,0.12c-0.09,0.03-0.17,0.03-0.23,0.03c-0.32,0.01-0.7-0.08-0.89-0.6c-0.03-0.07-0.05-0.16-0.06-0.24
			c-0.13-0.13-0.23-0.3-0.26-0.54c-0.02-0.14-0.01-0.36,0.07-0.59c0.1-0.3,0.32-0.67,0.42-0.78c0.37-0.41,0.79-0.33,0.98-0.27
			c0.19,0.06,0.36,0.17,0.49,0.37c0.27,0.14,0.47,0.3,0.47,0.31C362.97,329.72,363.05,329.89,362.98,330.19L362.98,330.19z"/>
		<path class="st0" d="M354.84,311.29c0.48-0.09,0.88-0.1,1.17-0.04c0.47,0.1,0.77,0.36,0.94,0.7c0.39,0.79,0.29,1.6-0.28,2.4
			c-0.89,1.25-3.2,2.51-5.7,3.43c-2.78,1.02-5.75,1.62-6.97,1.5c-0.74-0.08-1.13-0.45-1.27-0.77c-0.19-0.43-0.17-0.94,0.14-1.49
			c0.26-0.46,0.78-0.99,1.47-1.52c2.35-1.79,6.84-3.79,7.8-4.01C353.01,311.31,353.94,311.2,354.84,311.29L354.84,311.29z"/>
	</g>
	<path class="st0" d="M360.14,302.79c0.94,0.58,1.97,1.11,3.1,1.6c14.69,6.41,28.69-0.51,42.73-9.02
		c8.27-5.01,16.49-10.72,24.87-14.89c6.26-3.12,12.6-5.42,18.97-6.14c6.97-0.78,13.99,0.27,20.93,4.22
		c5.15,2.93,10.22,7.48,15.28,14.08c-5.7-5.74-11.16-9.44-16.45-11.72c-6.6-2.83-12.88-3.2-19.08-2.02
		c-2.93,0.55-5.82,1.46-8.72,2.59c-2.81,1.1-5.61,2.42-8.42,3.88c-8.2,4.26-16.38,9.77-24.57,14.66
		c-15.6,9.32-31.34,16.12-47.53,8.86c-3.03-1.37-5.47-2.99-7.4-4.8c-2.63,0.42-5.16,0.66-7.42,0.75c-13.59,0.5-25.31-2.1-35.56-7.59
		c-10.19-5.45-18.91-13.74-26.65-24.49c-2.48-3.46-5.06-6.96-7.08-10.72c-1.35-2.52-2.44-5.15-3.08-7.97
		c0.75,2.78,1.94,5.36,3.37,7.81c2.15,3.66,4.86,7.04,7.46,10.39c7.95,10.28,16.79,18.08,26.93,23.15
		c10.04,5.02,21.38,7.36,34.48,6.59c1.62-0.09,3.37-0.27,5.2-0.54c-5.14-6.86-4.35-15.49-0.5-22.52
		c6.1-11.12,19.91-17.87,29.77-7.43c1.88,1.99,3.1,4.2,3.64,6.55c0.54,2.37,0.39,4.9-0.55,7.49c-2.04,5.62-6.63,9.87-12.3,12.9
		C368.03,300.36,364.08,301.78,360.14,302.79L360.14,302.79z M357,300.42c4.44-1.05,8.99-2.64,12.97-4.86
		c4.83-2.7,8.81-6.33,10.47-11.19c0.65-1.89,0.75-3.72,0.32-5.43c-0.42-1.72-1.38-3.3-2.78-4.73c-7.88-8.05-18.45-1.95-23.09,6.86
		c-2.26,4.28-3.16,9.28-1.58,13.79C354.02,296.85,355.22,298.73,357,300.42L357,300.42z"/>
</g>
<g>
	<path class="st0" d="M260.96,416.14c-0.2,2.69,0.27,5.31,1.21,7.85c0.8,2.14,2.12,3.96,3.49,5.78c0.87,1.16,1.7,2.34,2.78,3.32
		c0.86,0.74,0.96,2.05,0.21,2.91c-0.74,0.86-2.05,0.96-2.91,0.21c-1.04-0.84-2.02-1.76-2.84-2.81c-0.35-0.45-0.68-0.92-0.95-1.42
		c-0.91-1.65-1.48-3.44-1.83-5.29C259.45,423.13,259.67,419.51,260.96,416.14L260.96,416.14z"/>
	<g>
		<path class="st0" d="M274.79,384.95c-1.52-1.54-2.69-3.42-3.42-5.71c-2.09-6.6-0.34-16.83,8.81-31.9
			c-6.76,17.08-6.48,26.9-2.03,32.07c1.76-2.61,3.68-5.09,5.73-7.4c7.11-7.99,15.6-13.78,23.23-15.87
			c8.73-2.39,16.69-0.79,22.09,6.23c3.4,4.5,2.95,9.88-1.74,14.92c-3.37,3.63-9.06,7.26-15.77,9.74c-7.9,2.92-17.02,4.48-24.55,3.42
			c-5.87,11.13-8.1,24.16-0.56,34.28l0.25,0.33l0.09-0.24c11.35-29.53,47.09-43.96,74.13-42.81c13.22,0.56,24.33,4.87,30.55,12.1
			c6.1,7.08,8.16,17.21,2.08,30.43c-8.76,18.99-32.92,29.33-58.18,30.23c-12.75,0.46-25.6-1.49-36.62-5.62
			c0.31,1.89,0.76,3.75,1.32,5.57c2.73,8.71,8.19,16.49,15.57,22.46c7.72,6.24,17.14,10.68,27.64,11.96
			c10.26,1.26,21.18-0.12,32.11-5.39c-10.28,7.43-21.5,10.8-32.55,11.11c-12.49,0.35-24.53-3.36-34.53-9.7
			c-10.15-6.45-17.96-15.83-22-26.54c-2.09-5.53-3.08-11.45-2.86-17.55c-3.66-2.68-6.8-5.74-9.28-9.16
			C264.21,417.97,266.63,399.96,274.79,384.95L274.79,384.95z M299.3,434.85c10.01,4.94,23.06,7.03,35.77,6.5
			c18.98-0.8,37.8-7.5,44.31-21.79c3.36-7.35,3.23-13.02-0.17-16.95c-5.73-6.64-18.3-8.1-31.42-6.12
			c-18.79,2.84-39.22,13.53-46.66,32.52C300.34,430.96,299.74,432.91,299.3,434.85L299.3,434.85z M291.65,383.2l0.52-0.05
			c7.46-0.8,15.52-4.23,21.21-8.18c2.13-1.48,3.85-3.06,4.95-4.61c0.39-0.55,0.95-1,0.57-1.45c-2.63-3.19-6.68-2.52-10.79-0.55
			C302.31,371.14,296.42,376.57,291.65,383.2L291.65,383.2z"/>
		<path class="st0" d="M342.28,378.56c3.17-1.67,7.04-2.91,11.03-3.33c2.59-0.28,5.12,0.02,7.56,0.5c1,0.2,1.98,0.38,2.92,0.72
			c1.25,0.45,2.64-0.2,3.09-1.45c0.45-1.25-0.2-2.64-1.45-3.09c-1.01-0.38-2.05-0.73-3.13-0.86c-2.37-0.28-4.8,0.1-7.21,0.73
			C350.24,373.05,345.65,375.58,342.28,378.56L342.28,378.56z"/>
	</g>
</g>
<g>
	<path class="st0" d="M276.33,215.32c1.86,1.47,5.15,5.36,5.85,6.51c4.92,8,2.75,10.23,4.41,14.65c2.27,6.03,32.5,33.22,39.21,38.27
		c5.86,4.41,16.64-10.12,19.17-13.31c0.49-0.68,0.33-1.63-0.35-2.12c-0.03-0.02-0.07-0.04-0.1-0.06c1.42-0.76,2.38-1.48,2.73-3.34
		c0.75-3.95-15.19-17.93-17.08-19.53c-6.78-5.72-12.52-12.78-18.98-17.65c-7.34-5.53-10.88-1.38-17.9-3.5
		c-1.37-0.41-8.1-5.83-10.12-7.47c1.39-3.29-2.12-4.96-5.88-6.5c-3.46-1.41-9.49,9.03-8.18,11.5
		C271.35,217,274.01,217,276.33,215.32z M280.63,206.4c-0.01,0,0,0-0.01-0.01c-0.26,0.56-0.31,0.56-0.76,1.06
		c-0.57,0.61-0.55,1.57,0.07,2.14c0.06,0.06,0.12,0.11,0.19,0.15c-1.68,1.75-4.57,4.75-5.48,5.03c-1.96-0.19-2.69-1.02-3.72-2.78
		c-0.67-1.15,4.4-7.67,5.43-8.25C277.02,204.11,280.61,206.03,280.63,206.4z M276.6,215.12c1.58-1.25,2.99-3.24,3.97-5.15
		c0.19,0.05,0.38,0.05,0.57,0.03c14.56,10.69,6.91,7.54,23.56,8.45c5.65,0.31,17.47,14.19,23.07,18.38
		c2.22,1.66,19.14,15.72,18.77,18.99c-0.19,1.61-1.1,2.4-2.2,3.35c-0.64-0.27-1.4-0.07-1.82,0.51c-1.25,1.62-11.77,15.34-15,13
		c-6.29-4.54-37.37-31.54-39.51-36.76c-1.72-4.18,0.19-7.04-5.01-14.58C282.61,220.8,278.61,216.25,276.6,215.12z"/>
	<path class="st0" d="M300.85,234.82c7.28-2.19,9.82-6.12,18.24-1.57c4.69,2.53,18.81,14.8,20.98,20.1
		c-3.91-5.52-18.7-18.33-24.63-20.05c-6.44-1.87-13.43,4.6-20.12,4.12c8.22,7.99,28.91,26.71,32.99,27.7
		c3.5,0.85,11.22-7.51,11.78-10.31c0.03-0.84,0.74-1.49,1.57-1.46c0.84,0.03,1.49,0.74,1.46,1.57
		c-0.89,5.04-10.55,15.95-17.87,12.03c-2.33-1.25-35.31-29.49-34.29-31.97C291.62,233.41,295.99,236.28,300.85,234.82z"/>
</g>
<path class="st1" d="M47.86,379.07c-2.12-0.68-4.31-1.22-6.03-2.76c-1.21-1.08-2.6-1.93-3.62-3.3c-3.26-4.49-4.69-9.57-4.49-14.86
	c0.05-1.36,0.22-2.72,0.3-4.1c0.08-1.49,0.44-2.92,0.99-4.24c0.61-1.3,1.41-2.5,2.31-3.6c1.48-1.81,3.57-3.31,6.06-3.98
	c1.45-0.37,1.69-0.69,1.63-2.12c-0.02-0.41-0.08-0.82-0.17-1.23c-0.64-3.07-1.2-6.23-1.68-9.41c-0.42-3.14-0.85-6.34-1.4-9.59
	c-0.13-0.76-0.39-1.31-1.03-1.88c-1.1-0.98-1.13-1.74-0.27-2.89c0.73-0.97,1.4-1.11,2.73-0.55c1.69,0.71,2.36,1.69,2.2,3.18
	c-0.12,1-0.47,1.84-1.67,1.81c-0.94-0.03-1.12,0.41-1.04,1.16c0.02,0.22,0.02,0.43,0.07,0.65c1.06,5.29,1.58,10.45,2.62,15.59
	c0.24,1.24,0.64,2.45,0.95,3.67c0.2,0.81,0.64,1.18,1.58,1.08c0.87-0.1,1.76-0.11,2.64-0.07c1.97,0.09,1.75,0.38,2.07-1.6
	c0.75-5.3,2.01-10.44,2.55-15.97c0.22-1.6,0.69-3.15,0.97-4.76c0.2-1.11,0.42-2.17-0.51-3.4c-0.88-1.18-0.34-2.7,0.87-3.18
	c1.47-0.6,3.55-0.14,4.3,0.92c1.03,1.48,0.13,3.89-1.7,3.94c-1.72,0.02-1.8,0.95-2.05,2.11c-0.76,3.39-1.34,6.78-1.77,10.21
	c-0.49,3.38-0.97,6.74-1.45,10.08c-0.28,1.8-0.23,1.86,1.72,2.41c1.19,0.34,2.37,1.11,3.64,0.78c0.12-0.03,0.33-0.03,0.42,0.04
	c2.45,1.87,5.63,2.64,7.91,4.7c1.65,1.48,3.11,3.05,4.26,4.85c1.68,2.67,2.42,5.17,2.65,7.59c0.22,2.42-0.28,4.68-0.76,7.01
	c-0.84,4.12-3.42,7.23-7.08,9.9c-4.5,3.1-9.89,4.18-16.51,2.42L47.86,379.07z M44.47,372.13c0.51,2.15-2.25,1.39-3.04,2.4
	c2.53,2.03,1.76,2.32,5.83,0.14c-0.63-1.07-2.37-1.27-2.8-2.5c-0.48-0.07-0.86-0.32-1.11-0.66c-0.89-1.16-1.96-1.28-3.3-0.92
	c-1.7,0.46-1.81,0.78-0.59,2.06c0.47,0.49,0.92,0.63,1.56,0.48C42.21,372.85,43.43,372.68,44.47,372.13z M68.19,373.77
	c-0.43-0.11-0.71-0.2-0.99-0.24c-5.95-0.82-11.45-3.08-16.2-6.56c-6.12-4.53-10.14-10.61-11.85-17.7c-0.1-0.41,0.13-1.02-0.82-1.17
	c-0.51,0.59-0.75,1.34-0.84,2.15c-0.18,1.72,0.12,3.47,0.76,5.12c1.21,3.08,2.65,5.98,4.55,8.58c1.97,2.62,4.41,4.94,7.49,6.83
	c3.46,2.13,7.03,4.08,11.17,4.78C64.28,376.02,67.07,376.44,68.19,373.77z M41.13,345.15c-0.99,0.63-1.03,1.46-1.06,2.24
	c-0.08,1.65,0.34,3.26,0.82,4.86c0.93,2.8,2.81,5.17,4.4,7.61c3.49,5.35,8.89,8.46,15.04,10.88c2.36,0.93,4.73,1.58,7.23,1.74
	c2.26,0.15,2.27,0.18,3-1.67c-7.2-1.15-13.48-4.02-19.08-8.48c-2.89-2.29-5.1-4.89-6.81-7.79
	C42.98,351.67,41.91,348.54,41.13,345.15z M44.89,343.24c-2.03,0.61-2.29,0.91-2.34,2.41c-0.03,0.89,0.08,1.77,0.34,2.65
	c1.81,6.28,6.15,11.29,11.75,15.37c2.76,2,6.02,3.09,9.08,4.55c2.19,1.04,4.51,1.09,6.77,1.48c0.46,0.08,0.88-0.02,0.96-0.41
	c0.1-0.51-0.45-0.6-0.86-0.68c-3.57-0.68-6.59-2.49-9.7-4.21c-4.18-2.3-7.54-5.39-10.45-8.83c-0.97-1.15-2.14-2.34-2.6-3.64
	C46.85,349.14,44.98,346.5,44.89,343.24z M36.15,350.73c-0.77,1.41-1.26,2.52-1.03,3.9c1.06,7.01,4.51,13.07,10.67,17.63
	c3.43,2.55,7.09,4.61,11.54,5.27c1.17,0.18,2.41,0.08,3.43,0.91c0.26,0.21,0.6,0.19,0.82,0.07c0.81-0.45,1.99-0.52,2.53-1.39
	c-7.27-1.24-13.55-4.1-18.64-8.91C40.32,363.41,37.54,357.66,36.15,350.73z M55.42,359.08c1.91,1.95,1.91,1.92,3.98,1.82
	c4.26-0.19,8.57-0.09,12.85,1.77c0.26,0.11,0.57,0.26,0.89,0.02c0.25-1.08,0.04-2.33,0.02-3.56c-0.01-0.68-0.36-1.03-1.21-1.42
	c-4.53-2.13-9.12-2.92-13.84-3.05c-1.55-0.04-2.99,0.31-4.35,0.81c-1.45,0.54-1.39,1.33,0.06,2.23c0.61,0.38,0.99,0.05,1.42-0.04
	c5.53-1.14,10.98,0.11,16.46,2.27c0.51,0.2,0.76,0.54,0.7,0.9c-0.09,0.51-0.62,0.28-1.01,0.1c-1.79-0.85-3.61-1.59-5.53-2.05
	C62.31,358.02,58.85,357.93,55.42,359.08z M57.19,353.63c1.62,0.05,3.09,0.48,3.7,0.05c1.54-1.09,3.25-2.06,3.59-4.16
	c0.34-2.36-0.09-3.18-2.92-4.08c-0.99-0.32-1.44-0.23-1.54,0.75C59.72,348.81,59.35,351.37,57.19,353.63z M51.87,354.62
	c1.97-0.15,2.87-0.95,3.97-1.77c2.53-1.9,2.78-4.53,3.15-7.29c0.08-0.68-0.26-1.14-1.03-1.38l-1.51-0.45
	c-0.7-0.19-1.1-0.06-1.11,0.67C55.19,348.09,54.31,351.43,51.87,354.62z M52.99,350.86c0.52-2.24,1.49-4.19,1.29-6.47
	c-0.12-1.26-0.25-1.31-1.84-1.51c-1.06-0.13-1.64,0.03-1.68,1.11c-0.11,2.54-0.09,5.13-1.26,7.39c-0.08,0.17-0.16,0.36-0.15,0.55
	c0.06,0.61,0.29,1.24,0.95,1.53c0.6,0.26,0.88-0.3,1.15-0.6C52.06,352.19,52.54,351.46,52.99,350.86z M59.38,362.06
	c1.46,1.36,2.59,1.85,4.26,1.7c2.2-0.2,4.5-0.16,6.9,0.51c0.76,0.21,1.62,0.46,2.54-0.01C68.57,361.64,64.12,361.62,59.38,362.06z
	 M62.73,354c1.3,0.28,2.02,0.43,2.74,0.59c0.35,0.07,0.8,0.2,0.92-0.14c0.34-1.03,1.52-1.5,1.92-2.51c0.68-1.73,0.22-2.61-2.24-3.81
	C65.4,350.21,65.18,352.46,62.73,354z M48.27,350.28c1.11-1.64,1.57-4.98,1.27-6.71c-0.05-0.27-0.09-0.53-0.4-0.7
	c-1.15-0.64-3.25,0.3-3.09,1.52C46.26,346.46,47.26,348.32,48.27,350.28z M64.27,364.93c0.5,0.91,1.39,1.03,2.12,1.33
	c1.54,0.63,3.15,1.02,4.74,1.4c1.14,0.27,1.18-0.46,1.34-1.05c0.13-0.46-0.14-0.8-0.74-1.01C69.19,364.71,66.74,364.44,64.27,364.93
	z M58.42,378.88l-4.36-1.05c-1.81-0.48-1.95-0.48-3.1,1.02C53.6,379.54,56.02,379.63,58.42,378.88z M45.85,377.27
	c0.27,0.14,0.53,0.29,0.8,0.41c1.7,0.73,2.54,0.64,3.71-0.31c0.67-0.53,0.48-0.84-0.36-1.21C48.68,375.57,47.25,375.87,45.85,377.27
	z M67.63,354.98c1.27,0.56,2.23,1.01,2.89,0.14c0.75-0.89,0.52-2.06-0.71-3.31C69.29,352.93,68.61,353.94,67.63,354.98z
	 M59.69,315.67c0.36-0.45,0.32-1.37-0.08-1.69c-0.8-0.63-2.7-0.34-3.02,0.52c-0.1,0.26-0.13,0.54,0.04,0.8
	C57.2,316.22,59.13,316.43,59.69,315.67z M40.64,369.13c-1.15-2.08-1.76-1.73-2.96-1.27c-0.44,0.17-1.06,0.28-0.75,0.95
	c0.27,0.58,0.59,1.17,1.49,0.94C39.1,369.57,39.88,369.59,40.64,369.13z M35.09,359.56l-0.38,0.1c0.04,1.01,0.08,2.02,0.24,3.04
	c0.22,1.5,0.25,1.48,2.06,0.84C36.32,362.21,35.69,360.89,35.09,359.56z M42.35,317.61c0.59,0.34,1.21,0.83,1.7,0.06
	c0.4-0.62,0.08-1.25-0.5-1.7c-0.7-0.54-1.94-0.43-2.18,0.17C41.02,316.98,41.81,317.24,42.35,317.61z M37.52,364.95
	c-0.41,0.14-0.88,0.29-1.34,0.45c-0.39,0.14-0.53,0.41-0.37,0.79c0.16,0.35,0.46,0.54,0.88,0.48c0.36-0.05,0.73-0.07,1.07-0.17
	c0.34-0.09,0.7-0.2,0.47-0.67C38.08,365.52,37.97,365.19,37.52,364.95z"/>
<g>
	<g>
		<path class="st1" d="M95.86,389.46c-5.79,8.48-15.17,15.18-26.03,20.7c-5.62,2.7-11.23,5.22-17.35,7.45
			c-6.06,2.25-12.56,4.25-18.87,6.2c-1.43,0.45-1.5,0.32-0.21-0.38c2.03-1.07,3.9-2.29,6-3.16c8.78-3.77,14.85-6.63,20.4-9.36
			c5.68-2.71,10.84-5.31,16.29-9.18c4.88-3.25,10.21-7.45,13.29-11.03c5.78-6.05,9.26-13.28,11.61-20.93
			c1.03-3.94,2.02-7.88,2.63-12.05c0.56-3,2.38-6.45-0.73-9.96c-0.83-0.89-1.63-2.05-1.99-3.15c-0.44-1.11-0.43-2.17,0.48-2.9
			c2.05-1.73,5.62,1.21,6.56,3.37c1.33,3.16-0.72,6.11-1.14,8.74c-0.5,2.87-0.37,5.77-0.71,8.61c-0.64,4.93-2.08,9.59-3.79,14.06
			C100.5,380.94,98.78,385.45,95.86,389.46z"/>
	</g>
	<path class="st1" d="M97.15,383.91c5.55-1.8,9.33-2.89,16.44-1.13c4.02,1.01,8.04-0.03,6.48-4.33c-1.21-3.34-3.86-2.59-6.59-1.11
		c-2.77,1.49-5.94,3.56-7.65,3.76c-2.64,0.31-5.41,0.64-7.99,0.94L97.15,383.91z"/>
	<path class="st1" d="M96.04,381.81c-1.34-4.07-2.63-6.69-7.13-9.7c-2.72-1.85-4.89-4.2-2.74-5.72c2.25-1.79,3.87-0.37,4.97,1.88
		c1.04,2.2,1.43,5.15,1.7,5.95c0.78,1.94,2.49,4.11,4.28,5.95L96.04,381.81z"/>
	<path class="st1" d="M104.04,369.39c2.33-1.97,4.87-4.79,8.99-4.92c2.68-0.08,5.63,1.1,6.82-1.37c1.08-2.25-0.85-5.28-3.95-5.16
		c-3.14,0.12-4.46,3.14-5.79,4.94c-1.39,2.07-3.38,2.97-6.19,3.66L104.04,369.39z"/>
	<path class="st1" d="M83.82,396.57c0.32-1.47,0.75-3.04,0.66-4.71c-0.08-0.78-0.06-1.74-0.57-2.36c-0.31-0.86-0.78-1.72-1.42-2.54
		c-0.85-1.06-1.93-1.98-2.7-2.93c-0.8-0.94-1.1-2.06-1.11-3.01c0.11-1.69,2.79-2.15,5.33,0.03c2.53,2.39,2.25,4.89,1.56,7.15
		c-0.17,0.6-0.23,1.19-0.25,1.77c0.03,0.24-0.08,0.68,0.1,0.76l0.08,0.82c0.15,1.1,0.49,2.25,1,3.59L83.82,396.57z"/>
	<path class="st1" d="M69.15,409.34c4.02-0.34,8.73-1.28,13.09,0.47c2.82,1.13,4.89,3.06,8.17,2.07c2.91-0.96,3.32-3.54-0.01-4.91
		c-3.4-1.43-7.08-0.11-9.88,0.52c-3.08,0.75-5.76,0.59-9.18-0.17L69.15,409.34z"/>
	<path class="st1" d="M68.26,406.81c1.51-2.73,3.19-6.02,1.2-9.47c-1.29-2.24-3.48-4.02-2.53-6.1c0.89-1.8,3.73-1.83,5.75,0.65
		c2.07,2.56,0.6,5.2-0.43,7.09c-1.05,2.17-1.19,4.07-0.87,6.77c0,0-0.77,0.27-1.55,0.54C69.04,406.55,68.26,406.81,68.26,406.81z"/>
	<path class="st1" d="M102.83,366.42c-0.62-2.92-1.43-5.08-5.31-6.83c-2.76-1.24-4.72-2.3-4.99-4.78c-0.14-1.98,0.77-2.51,3.81-1.33
		c3.21,1.25,3.92,3.04,4.26,4.97c0.19,2.05,0.81,3.06,3.2,4.9L102.83,366.42z"/>
	<path class="st1" d="M110.24,397.8c0.18,0.54,0.24,1.08,0.14,1.47c-0.23,0.81-1.01,1.53-1.89,1.89c-0.83,0.27-1.86,0.36-2.79,0.29
		c-1.45-0.1-2.64-0.57-3.8-1.12l-1.75-0.85l-0.91-0.4l-0.48-0.18l-0.24-0.08l-0.03-0.01l-0.02-0.01l-0.12,0.13l0,0l-0.01,0l-0.01,0
		l-0.06-0.02l-0.13-0.04c-5.65-1.73-8.75-1.34-10.66-0.9c-0.89-1.56,1.41-1.62,4.26-1.48c0.72,0.05,1.48,0.1,2.22,0.16
		c0.4,0,0.69,0.13,1.17,0.01c0.35,0.02,0.7,0.04,1.03,0.07c1.32,0.08,2.44,0.12,2.98-0.03c1.94-0.39,4.56-1.92,7.23-1.72
		c1.16,0.06,2.29,0.51,3.04,1.34C109.73,396.66,110.06,397.22,110.24,397.8z"/>
</g>
<g>
	<path class="st1" d="M88.18,285.3c0.89-1.2,1.69-2.54,2.66-3.59c1.27-1.34,2.67-2.88,4.74-2.11c1.76,0.65,2.07,2.67,2.3,4.37
		c0.13,0.88-0.2,1.94-0.58,2.74c-1.86,3.97-4.79,6.4-8.7,7.47c-0.85,0.23-1.82,0.72-2.3,1.44c-2.14,3.18-2.37,7.17-3.42,10.8
		c1.09-0.61,1.84-1.54,2.78-2.15c1.95-1.25,3.92-2.55,6.02-3.48c1.76-0.78,2.82,0.06,2.95,2.17c0.06,1.08-0.19,2.49-0.81,3.2
		c-1.77,2.03-3.71,3.95-6.64,3.66c-2.91-0.28-4.82,2.25-7.43,2.9c-0.2,0.05-0.34,0.47-0.48,0.73c-1.96,3.86-4.47,7.16-7.43,10.1
		c-2.67,2.63-5.12,5.58-7.7,8.22c-0.4,0.41-1.01,0.61-1.52,0.9c1.21-2.03,2.72-3.71,4.24-5.4c0.78-0.86,1.56-1.72,2.39-2.55
		c3.38-3.52,6.74-7.17,9.12-11.75c1.23-2.31,1.74-3.55-1.2-5.49c-2.46-1.61-3.3-4.38-4.13-7.02c-0.44-1.47,0.33-2.49,1.56-3.13
		c1.16-0.61,2.25-0.42,3.1,0.74c0.49,0.64,0.89,1.32,1.29,2.01c0.79,1.49,1.58,2.98,2.43,4.57c1.76-1.21,1.53-3.16,1.99-4.74
		c1.24-4.1,0.5-5.59-2.91-7.97c-1.4-0.96-2.9-1.77-4.14-2.89c-1.16-1.03-2.2-2.28-2.98-3.64c-1.34-2.4-0.02-4.44,2.66-4.3
		c0.8,0.04,1.59,0.36,2.75,0.66c-0.52-1.1-0.89-1.81-1.2-2.54c-0.59-1.42-1.28-2.82-1.67-4.29c-0.56-2.25,0.04-4.32,1.17-6.09
		c1.02-1.61,2.72-1.01,4.27-0.58c0.43,0.12,0.89,0.06,1.23,0.07c2.99,5.28,5.17,10.7,4.95,16.75L88.18,285.3z M85.38,278.36
		c-0.56-2.76-1.71-5.45-3.59-7.52c-0.7-0.74-1.89-1.41-2.75-1.32c-0.62,0.07-1.42,1.35-1.51,2.19c-0.18,1.47-0.37,3.23,0.2,4.5
		c1.72,4.06,4.28,7.68,7.75,11.19C86.62,284.12,85.95,281.17,85.38,278.36z M95.48,287.09c0.26-0.44,0.53-0.88,0.71-1.37
		c0.53-1.41,0.23-3.49-0.59-4.25c-0.87-0.78-2.56-0.58-3.62,0.72c-1.14,1.37-2.25,2.86-3.07,4.47c-0.91,1.77-1.47,3.75-2.33,5.96
		C90.74,292.35,93.51,290.47,95.48,287.09z M77.38,282.83c-0.76-0.32-2.04-0.26-2.61,0.23c-1,0.85-0.39,2.08,0.38,2.91
		c1.82,2.1,4.04,3.64,7.03,5.33C81.7,287.21,80.68,284.2,77.38,282.83z M83.73,307.89c3.57,0.89,6.45,0.41,8.74-2.41
		c0.86-1.05,1.19-2.08,0.07-3.63C88.8,302.56,86.37,305.17,83.73,307.89z M77.36,299.99c-0.31-0.54-1.31-1.07-1.85-0.93
		c-1.08,0.27-0.9,1.38-0.67,2.24c0.79,2.87,2.25,5.17,5.46,6.58C80.18,304.56,78.68,302.27,77.36,299.99z"/>
	<path class="st1" d="M41.76,254.17c-0.86-0.49-1.53-1.34-1.36-2.42c0.18-1.23,1.16-1.81,2.33-2.08c2.13-0.51,4.23-0.63,6.31,0.19
		c2.85,1.11,5.33,2.72,7.68,4.48c0.95,0.72,1.76,1.35,2.57-0.17c0.33-0.62,0.99-1.1,1.7-1.28c1.45-0.35,1.82-0.94,0.94-2.23
		c-0.45-0.66-0.61-1.56,0.27-2.15c1.03-0.69,1.89-0.22,2.75,0.4c0.83,0.6,0.75,1.74,1.56,2.48c0.67-1.17,0.8-2.87,2.45-2.65
		c0.95,0.13,2.21,0.42,2.71,1.49c0.69,1.46-0.93,1.88-1.54,2.75c2.5,3.64,2.56,7.32-1.9,8.79c-1.95,0.64-2.76,1.79-3.28,3.62
		c-1.2,4.29-3.25,7.77-6.92,10.34c-2,1.36-4.29,1.03-5.3-0.86c-1.26-2.37-0.38-5.04-1.23-7.48c-0.3-0.86,1.37-0.97,1.3-2.02
		c-0.02-0.21-0.06-0.35-0.27-0.4c-0.08,0-0.18-0.02-0.25,0.01c-0.22,0.13-0.46,0.26-0.65,0.43c-1.85,1.67-3.81,2.38-5.87,2.53
		c-2.04,0.22-4.18-0.08-6.36-0.56c-1.66-0.37-2.26-1.17-2.02-2.62c0.46-2.72,1.55-5.15,4.35-6.42c1.4-0.67,2.86-1.12,4.69-1.81
		C44.67,255.64,43.16,254.99,41.76,254.17z M41.97,260.01c-0.23,0.14-0.45,0.31-0.64,0.5c-1.32,1.39-2.87,3.02-2.23,4.85
		c0.58,1.66,2.77,1.17,4.26,1.27c2.02,0.09,4.03-0.24,5.76-1.48c1.51-1.06,3.12-2,4.44-3.34c1-1.01,1.87-2.11,2.38-3.71
		C51.09,257.81,46.29,257.41,41.97,260.01z M68.13,260c2.06-1.11,2.61-2.89,1.45-4.9c-1.03-1.79-3.61-2.43-5.59-1.42
		c-0.48,0.25-0.99,0.43-1.5,0.61c-2.33,0.84-2.93,2.89-1.37,4.74c1.19,1.4,2.59,2.2,4.34,1.29C66.52,260.76,67.32,260.43,68.13,260z
		 M44.71,250.93l-1.1,0.13c-0.68,0.09-1.33,0.39-1.52,1.01c-0.22,0.71,0.43,1.19,0.98,1.43c2.64,1.16,5.1,2.78,8.15,2.55
		c1.43-0.11,2.87,0.26,4.97-0.28C52.44,253.32,49.51,250.22,44.71,250.93z M59.29,265.62c1.4-0.43,2.75-1.07,4.06-1.76
		c0.81-0.43,0.8-1.21-0.1-1.54c-1.58-0.57-2.74-1.59-3.74-2.88c-0.39-0.51-0.86-0.55-1.37-0.12c-1.08,0.97-1.79,2.23-2.53,3.44
		c-0.13,0.21-0.12,0.5-0.15,0.65C55.68,264.69,57.99,266.08,59.29,265.62z M53.68,269.85c-0.14,0.4-0.33,0.72-0.35,1.04
		c-0.08,1.44-0.04,2.99,1.28,3.79c1.21,0.73,2.24-0.32,3.22-0.95c0.83-0.54,1.78-1.02,2.31-2.65
		C57.6,271.93,55.75,270.59,53.68,269.85z M55.52,268.78c3.02,1.48,5.8,0.67,7.14-2.19c-1.54-0.31-2.71,1.16-4.15,0.78
		c-1.32-0.37-2.63-0.78-3.81-2.03C53.75,267.91,53.77,267.91,55.52,268.78z"/>
</g>
<g>
	<path class="st1" d="M72.47,157.72c-0.63-4.22-3.12-8.2-6.9-10.27c-2.5-1.37-5.37-2.12-8.13-2.78c-2.77-0.66-5.63-0.96-8.48-0.67
		c-0.61,0.06-1.2,0.16-1.79,0.29c-4.46,0.37-8.79,1.58-12.95,3.29c-5.05,2.09-10.23,4.59-14.19,8.45
		c-3.65,3.56-5.36,8.47-4.77,13.54c0.29,2.45,0.92,4.84,2.23,6.96c1.23,1.99,2.91,3.64,4.89,4.89c3.99,2.52,9.15,3.38,13.66,1.83
		c2.74-0.94,5.23-2.49,7.67-4.01c2.48-1.54,5.16-2.83,7.83-4.01c2.69-1.19,5.45-2.21,8.26-3.1c1.42-0.45,2.85-0.83,4.3-1.17
		c1.34-0.32,2.73-0.55,4-1.12c2.23-0.99,3.46-3.54,4.05-5.78C72.69,162.01,72.79,159.82,72.47,157.72z M68.63,166.68
		c-0.8,0.97-1.84,1.35-3.03,1.66c-1.31,0.35-2.6,0.78-3.89,1.23c-2.58,0.9-5.16,1.81-7.7,2.84c-2.52,1.02-5.01,2.14-7.45,3.35
		c-2.43,1.21-4.8,2.53-7.22,3.76c-2.15,1.09-4.44,2.01-6.87,2.19c-2.13,0.15-4.26-0.18-6.26-0.92c-3.96-1.45-7.21-4.68-8.55-8.7
		c-0.28-0.84-0.46-1.7-0.56-2.57c0.7,1.58,1.92,2.98,3.37,3.94c3.19,2.11,7.25,2.23,10.86,1.3c1.09-0.28,2.2-0.64,3.23-1.12
		c1.08-0.51,2.09-1.24,3.09-1.88c0.3-0.2,0.04-0.63-0.28-0.48c-1.1,0.52-2.24,0.89-3.37,1.33c-1.09,0.42-2.17,0.84-3.31,1.12
		c-2.15,0.52-4.43,0.6-6.58,0.03c-2.04-0.54-3.93-1.68-5.14-3.44c-1.12-1.64-1.68-3.69-1.47-5.67c0.01-0.08-0.01-0.15-0.04-0.21
		c0.44-1.78,1.22-3.49,2.27-4.98c1.48-2.09,3.6-3.76,5.66-5.24c1.58-1.13,3.18-2.22,4.85-3.22c5.31-2.51,11.02-4.21,16.84-4.78
		c1.12-0.11,2.24-0.19,3.37-0.22c1.18-0.04,2.38,0.05,3.54-0.18c0.17-0.03,0.29-0.13,0.36-0.25c2.29,0.45,4.55,1.04,6.77,1.78
		c2.23,0.74,4.4,1.68,6.09,3.36c1,1,1.82,2.18,2.42,3.45c-0.04,0.93-0.08,1.82-0.49,2.69c-0.44,0.92-1.08,1.73-1.88,2.38
		c-1.82,1.48-4.23,2.08-6.45,2.68c-2.47,0.67-4.92,1.39-7.31,2.3c-2.37,0.9-4.68,1.91-7,2.94c-2.68,1.19-5.33,2.44-7.91,3.83
		c-0.13,0.07-0.02,0.25,0.11,0.19c5.01-2.36,10.16-4.31,15.51-5.74c2.61-0.69,5.22-1.37,7.84-2.01c2.42-0.59,4.89-1.33,6.78-3.03
		c0.72-0.65,1.43-1.52,1.92-2.5c0.2,1.33,0.21,2.7-0.02,4.02c-0.24-0.12-0.56-0.1-0.77,0.18c-1.18,1.6-2.5,2.91-4.26,3.87
		c-1.7,0.93-3.67,1.45-5.6,1.49c-0.46,0.01-0.44,0.66,0,0.7c3.74,0.38,7.88-1.32,10.15-4.39C69.9,164.82,69.36,165.8,68.63,166.68z"
		/>
	<path class="st1" d="M37.49,177.14c-1.91,1.25-4.09,2.03-6.34,2.38c-1.12,0.17-2.26,0.23-3.39,0.18c-0.56-0.03-1.13-0.06-1.69-0.12
		c-0.55-0.06-1.1-0.23-1.66-0.24c-0.19,0-0.26,0.26-0.1,0.36c0.89,0.53,2.21,0.72,3.23,0.81c1.21,0.11,2.42,0.06,3.62-0.12
		c2.39-0.37,4.64-1.34,6.61-2.74C38.08,177.43,37.8,176.94,37.49,177.14z"/>
	<path class="st1" d="M48.69,169.51c0.14-0.42-0.51-0.69-0.71-0.3c-0.33,0.62-0.58,1.26-0.72,1.95c-0.12,0.62-0.27,1.35,0.1,1.91
		c0.25,0.38,0.76,0.28,0.91-0.12c0.2-0.52,0.04-1.1,0.05-1.64C48.35,170.69,48.49,170.09,48.69,169.51z"/>
	<path class="st1" d="M51.25,168.76c-0.08,0.46-0.16,0.93-0.24,1.39c-0.08,0.45-0.21,0.9-0.17,1.36c0.07,0.63,0.92,0.8,1.13,0.15
		c0.14-0.44,0.11-0.9,0.12-1.36c0.01-0.47,0.03-0.94,0.04-1.41C52.15,168.38,51.34,168.25,51.25,168.76z"/>
	<path class="st1" d="M54.34,167.69c-0.14,0.76-0.43,1.62-0.29,2.39c0.08,0.45,0.81,0.55,1.01,0.13c0.33-0.71,0.28-1.61,0.33-2.38
		C55.42,167.24,54.45,167.1,54.34,167.69z"/>
	<path class="st1" d="M24.32,166.67c-0.02-0.07-0.06-0.14-0.11-0.19c-0.08-0.08-0.19-0.13-0.31-0.13c-0.11,0-0.23,0.05-0.31,0.13
		c-0.05,0.05-0.09,0.12-0.11,0.19c-0.02,0.08-0.02,0.15,0,0.23c0.01,0.08,0.02,0.16,0.07,0.23c0.05,0.08,0.12,0.13,0.2,0.18
		c0.09,0.05,0.21,0.05,0.31,0c0.08-0.05,0.15-0.1,0.2-0.18c0.05-0.08,0.05-0.15,0.07-0.23C24.34,166.82,24.34,166.74,24.32,166.67z"
		/>
	<path class="st1" d="M26.27,169.44c-0.64,0-0.64,0.99,0,0.99C26.9,170.42,26.9,169.44,26.27,169.44z"/>
	<path class="st1" d="M46.48,163.35c-0.7,0-0.7,1.09,0,1.09C47.18,164.44,47.18,163.35,46.48,163.35z"/>
	<path class="st1" d="M50.46,160.3c-0.04-0.07-0.14-0.15-0.22-0.17L50,160.09c-0.14-0.02-0.29-0.01-0.4,0.1
		c-0.07,0.08-0.12,0.18-0.12,0.29c0,0.1,0.05,0.21,0.12,0.29c0.05,0.05,0.11,0.09,0.18,0.1c0.07,0.02,0.14,0.02,0.22,0l0.25-0.04
		c0.03-0.01,0.06-0.02,0.09-0.04c0.04-0.02,0.08-0.05,0.1-0.09c0.05-0.06,0.08-0.14,0.08-0.22
		C50.51,160.42,50.49,160.36,50.46,160.3z"/>
	<path class="st1" d="M53.29,161.54c-0.06-0.05-0.11-0.09-0.19-0.12c-0.02-0.01-0.04-0.01-0.07-0.01c-0.05-0.01-0.1-0.02-0.14-0.03
		c-0.15-0.03-0.31-0.01-0.41,0.11c-0.08,0.08-0.12,0.19-0.12,0.3c0,0.11,0.05,0.22,0.12,0.3c0.12,0.12,0.26,0.14,0.41,0.11
		c0.05-0.01,0.1-0.02,0.14-0.03c0.02,0,0.04-0.01,0.07-0.01c0.08-0.02,0.13-0.07,0.19-0.12C53.43,161.93,53.43,161.66,53.29,161.54z
		"/>
	<path class="st1" d="M58.29,158.26c-0.5,0-0.5,0.78,0,0.78C58.79,159.03,58.79,158.26,58.29,158.26z"/>
	<path class="st1" d="M66.04,160.82c-0.03-0.07-0.06-0.14-0.09-0.21c-0.05-0.12-0.21-0.19-0.34-0.19c-0.12,0-0.28,0.07-0.34,0.19
		c-0.03,0.07-0.06,0.14-0.09,0.21c-0.04,0.08-0.07,0.16-0.07,0.25c0,0.09,0.02,0.17,0.07,0.25c0.09,0.15,0.25,0.24,0.43,0.24
		c0.17,0,0.34-0.09,0.43-0.24c0.04-0.08,0.07-0.16,0.07-0.25C66.1,160.98,66.08,160.89,66.04,160.82z"/>
	<path class="st1" d="M66.22,156.77c-0.09-0.13-0.17-0.27-0.31-0.34c-0.04-0.02-0.09-0.04-0.13-0.05c-0.07-0.02-0.14-0.03-0.22-0.01
		c-0.11,0.02-0.23,0.06-0.31,0.15c-0.06,0.07-0.11,0.15-0.14,0.24c-0.05,0.14-0.01,0.29,0.05,0.42c0.07,0.14,0.21,0.22,0.34,0.31
		c0.14,0.09,0.39,0.1,0.53,0c0.02-0.02,0.05-0.03,0.07-0.05c0.04-0.03,0.07-0.06,0.1-0.11c0.01-0.01,0.01-0.02,0.02-0.03
		C66.32,157.15,66.31,156.9,66.22,156.77z"/>
	<path class="st1" d="M48.93,134.35c-0.25-2.14-1.11-4.01-2.23-5.83c-0.09-0.14-0.24-0.18-0.38-0.14c-0.12-0.11-0.29-0.15-0.43-0.05
		c-0.33,0.24-0.53,0.56-0.81,0.86c-0.29,0.32-0.63,0.6-0.96,0.87c-0.63,0.53-1.33,0.98-1.95,1.52c-1.45,1.24-2.32,2.89-2.91,4.69
		c-0.59,1.8-0.98,3.69-0.99,5.59c0,0.08,0,0.16,0,0.25c-0.06-0.11-0.12-0.23-0.18-0.34c-0.54-1-1.05-2.03-1.64-3
		c-0.52-0.87-1.12-1.68-1.91-2.31c-0.82-0.65-1.78-1.11-2.72-1.58c-1.99-0.99-3.91-1.57-6.15-1.33c-1.08,0.11-2.16,0.31-3.2,0.62
		c-1,0.3-2.13,0.67-3,1.25c-0.34,0.23-0.26,0.76,0.06,0.9c0,0.06,0,0.13,0.02,0.18c0.41,1.15,0.99,2.26,1.53,3.36
		c0.48,0.98,0.96,1.96,1.62,2.84c1.22,1.63,2.95,2.64,4.81,3.38c2.09,0.84,4.31,1.3,6.55,1.46c1.09,0.08,2.19,0.08,3.28,0.01
		c1.09-0.06,2.39-0.1,3.41-0.51c0.11-0.04,0.19-0.11,0.26-0.19c0.45-0.17,0.88-0.4,1.31-0.61c0.85-0.42,1.64-0.94,2.38-1.55
		c1.43-1.19,2.61-2.69,3.35-4.4C48.86,138.42,49.17,136.36,48.93,134.35z M37.46,146.2c-1.06,0.05-2.11,0.04-3.17-0.04
		c-2.03-0.15-4.06-0.57-5.98-1.27c-1.7-0.63-3.55-1.53-4.67-3.02c-1.3-1.75-1.88-3.98-3.02-5.83c0,0-0.01-0.01-0.01-0.01
		c0.08-0.03,0.16-0.06,0.24-0.09c1.11,0.27,2.14,0.76,3.2,1.2c0.47,0.19,0.93,0.39,1.4,0.6c-0.99,0.18-1.93,0.57-2.63,1.27
		c-0.1,0.1,0,0.25,0.13,0.23c1.45-0.3,2.8-0.72,4.28-0.71c0.3,0.12,0.61,0.22,0.95,0.27c0.26,0.04,0.47-0.25,0.26-0.45
		c-0.06-0.06-0.12-0.11-0.18-0.17c0.02-0.24-0.13-0.5-0.43-0.52c-0.11-0.01-0.22-0.02-0.34-0.02c-0.32-0.19-0.66-0.35-1-0.52
		c-0.76-0.38-1.53-0.75-2.31-1.08c-0.56-0.24-1.13-0.47-1.71-0.69c0.1-0.03,0.19-0.06,0.29-0.09c0.95-0.28,1.92-0.49,2.91-0.6
		c1.05-0.12,2.11-0.12,3.14,0.16c0.97,0.27,1.87,0.72,2.77,1.18c0.88,0.45,1.79,0.89,2.52,1.56c0.7,0.64,1.19,1.45,1.65,2.28
		c0.69,1.26,1.32,2.57,1.98,3.85c-0.76-0.63-1.53-1.28-2.4-1.76c-0.64-0.35-1.31-0.65-1.98-0.95c0.05-0.22-0.05-0.48-0.31-0.52
		c-0.65-0.12-0.81-0.84-0.91-1.41c-0.15-0.82-0.27-1.59-0.53-2.38c-0.06-0.18-0.31-0.14-0.33,0.04c-0.07,0.79-0.17,2.29,0.2,3.38
		c-0.77-0.38-1.53-0.75-2.33-1.08c-0.17-0.07-0.36,0.12-0.21,0.27c0.9,0.91,1.91,1.58,2.98,2.18c-0.37,0.13-0.74,0.28-1.08,0.43
		c-0.81,0.35-1.59,0.75-2.21,1.38c-0.1,0.1,0,0.32,0.15,0.26c0.75-0.29,1.46-0.69,2.21-0.98c0.62-0.24,1.27-0.37,1.9-0.56
		c0.5,0.27,1.02,0.53,1.53,0.81c1,0.54,1.84,1.3,2.71,2.03c0.45,0.38,0.92,0.76,1.36,1.14c0.06,0.05,0.11,0.1,0.17,0.15
		C38.25,146.14,37.85,146.18,37.46,146.2z M47.21,139.47c-0.59,1.7-1.68,3.24-3.04,4.42c-0.66,0.56-1.39,1.04-2.16,1.44
		c-0.28,0.14-0.57,0.25-0.86,0.34c0.01-0.03,0.02-0.06,0.03-0.09c0.21-0.52,0.42-1.04,0.63-1.57c0.34-0.88,0.68-1.76,1.02-2.63
		c0.35-0.17,0.7-0.32,1.05-0.49c0.45-0.21,0.9-0.43,1.36-0.62c0.4-0.17,0.85-0.31,1.13-0.64c0.16-0.19,0.04-0.43-0.19-0.45
		c-0.82-0.09-1.89,0.62-2.6,0.99c-0.12,0.06-0.24,0.13-0.36,0.2c0.35-0.88,0.7-1.77,1-2.68c0.06-0.07,0.1-0.17,0.09-0.28
		c0.26-0.82,0.47-1.66,0.57-2.49c0.02-0.18-0.22-0.19-0.3-0.08c-0.31,0.41-0.58,0.85-0.83,1.31c-0.06-0.11-0.13-0.22-0.19-0.33
		c-0.28-0.51-0.51-1.05-0.83-1.53c-0.16-0.23-0.58-0.17-0.56,0.15c0.04,0.62,0.24,1.19,0.47,1.76c0.15,0.37,0.3,0.75,0.53,1.09
		c-0.5,1.07-0.93,2.19-1.36,3.26c-0.39,0.96-0.79,1.93-1.18,2.89c-0.2,0.48-0.38,0.97-0.58,1.45c-0.01,0.01-0.01,0.03-0.02,0.04
		c-0.16-0.34-0.29-0.69-0.39-1.06c-0.24-0.85-0.32-1.74-0.28-2.62c0.07-1.76,0.54-3.54,1.15-5.19c0.33-0.9,0.77-1.78,1.38-2.52
		c0.5-0.6,1.11-1.08,1.73-1.56c0.5-0.39,1.19-0.86,1.77-1.42c-0.09,0.32-0.17,0.65-0.24,1.01c-0.12,0.65-0.32,1.32-0.33,1.98
		c-0.01,0.38,0.5,0.4,0.62,0.08c0.25-0.66,0.32-1.42,0.46-2.12c0.12-0.59,0.16-1.11,0.18-1.69c0.16,0.41,0.44,0.81,0.62,1.19
		c0.41,0.85,0.71,1.75,0.9,2.68C47.98,135.58,47.85,137.62,47.21,139.47z"/>
</g>
<g>
	<g>
		<path class="st1" d="M349.95,36.4c0.75,0,1.36-0.61,1.36-1.36V11.87c0-0.75-0.61-1.36-1.36-1.36c-0.75,0-1.36,0.61-1.36,1.36
			v23.16C348.59,35.78,349.2,36.4,349.95,36.4z"/>
	</g>
	<g>
		<path class="st1" d="M345.16,38.46c0-2.64,2.15-4.8,4.8-4.8c2.64,0,4.8,2.15,4.8,4.8c0,2.64-2.15,4.8-4.8,4.8
			C347.31,43.26,345.16,41.11,345.16,38.46z M347.89,38.46c0,1.14,0.93,2.07,2.07,2.07c1.14,0,2.07-0.93,2.07-2.07
			c0-1.14-0.93-2.07-2.07-2.07C348.81,36.4,347.89,37.32,347.89,38.46z"/>
	</g>
	<g>
		<path class="st1" d="M340.44,50.26c0-5.36,4.32-9.73,9.62-9.73s9.62,4.36,9.62,9.73s-4.32,9.73-9.62,9.73
			S340.44,55.62,340.44,50.26z M343.17,50.26c0,3.86,3.09,7,6.89,7c3.8,0,6.89-3.14,6.89-7s-3.09-7-6.89-7
			C346.26,43.26,343.17,46.4,343.17,50.26z"/>
	</g>
	<g>
		<path class="st1" d="M365.01,39.32c0.63,0,1.26-0.05,1.89-0.16c4.79-0.78,8.13-3.74,8.94-7.92c0.73-3.74-0.86-7.51-3.95-9.39
			c-2.85-1.74-6.46-1.61-9.19,0.32c-2.33,1.65-3.46,4.22-2.93,6.7c0.56,2.66,2.8,4.8,5.46,5.21c2.21,0.34,4.16-0.58,5.22-2.46
			c1.6-2.85,0.12-5.42-0.89-6.38c-0.55-0.52-1.41-0.5-1.93,0.05c-0.52,0.55-0.5,1.41,0.05,1.93c0.13,0.13,1.33,1.4,0.39,3.06
			c-0.67,1.18-1.8,1.2-2.42,1.1c-1.27-0.2-2.81-1.24-3.2-3.08c-0.35-1.67,0.72-3.12,1.84-3.91c1.47-1.04,3.86-1.64,6.2-0.22
			c2.12,1.29,3.2,3.92,2.69,6.54c-0.59,3.01-3.09,5.16-6.7,5.74c-9.29,1.52-14.75-12.09-14.81-12.23c-0.28-0.7-1.07-1.05-1.77-0.77
			c-0.7,0.28-1.05,1.07-0.77,1.77c0.06,0.16,1.55,3.93,4.41,7.53C356.94,37.08,360.88,39.32,365.01,39.32z"/>
	</g>
</g>
<g>
	<path class="st1" d="M235.17,388.6c0.05,0.46,0.39,0.81,0.84,0.89c-0.01-0.43-0.21-0.82-0.56-1.1c-0.07-0.05,0.01-0.15,0.08-0.11
		c0.46,0.3,0.72,0.79,0.73,1.33c0,0.35-1.34,0.05-1.46-0.97C234.77,388.43,235.14,388.38,235.17,388.6z"/>
	<path class="st1" d="M226.75,425.58c-0.87,1.9-2.09,3.63-3.27,5.46c-0.17,0.26,0.5-0.52,0.7-0.75c0.15,0.43,2.43-3.35,2.92-4.5
		c-0.17,0.63-0.41,1.25-0.72,1.86c-0.06,0.12,0.12,0.21,0.2,0.11c0.99-1.32,1.62-2.11,2.12-4.16c-0.13,1.23-0.09,0.98-0.14,1.2
		c-0.02,0.1,0.13,0.15,0.18,0.07c0.47-0.7,1.43-1.35,1.87-3.59c-0.01,0.42-0.02,0.84-0.05,1.27c-0.01,0.1,0.16,0.16,0.2,0.05
		c0.08-0.27,0.15-0.55,0.21-0.82c0.44-1.27,0.58-2.63,0.49-3.99c0.23,0.97,0.23,0.75,0.22,1.29c0,0.14,0.2,0.14,0.25,0.06
		c0.63-1.2,0.23-2.78-0.07-4.67c1.2,3.46,1.22,1.94,0.9,0.84c0.05-4.78-2.72-8.28-2.54-7.82c1.38,3.39,1.68,4.02,2.14,6.74
		c-0.13-0.32-0.09-0.46-0.58-1.49c-0.38-0.95-0.79-1.87-1.28-2.78c-0.03-0.06-0.13-0.04-0.12,0.03c0.56,2.33,1.4,3.48,1.49,7.69
		c-0.17-1.75-0.9-2.95-1.6-4.48c-0.03-0.06-0.14-0.04-0.13,0.03c0.75,2.78,0.76,5.36,0.63,8.16c0.02-0.37,0-0.74-0.02-1.11
		c0.34-3.89-1.39-7.15-1.14-6.34c1.69,5.42,0.33,8.19-0.59,10.1c0.16-0.55,0.29-3.57-0.02-4.76c0,0-0.01,1.07-0.08,2.02
		c-0.48,2.99-1.46,4.38-2,5.45c0.15-0.49,0.28-0.97,0.38-1.47c0.81-2.19,0.62-3.8,0.56-3.39
		C227.68,423.2,227.3,424.34,226.75,425.58z M230.74,421.9c0.01-0.08,0.02-0.21,0.04-0.38C230.77,421.69,230.77,421.76,230.74,421.9
		z"/>
	<path class="st1" d="M205.48,438.18c1.04-0.46,2.02-0.99,2.96-1.63c0.02-0.01,0.06,0,0.05,0.03c-0.08,0.49-0.88,1.28-1.19,1.37
		c0.59-0.17,3.5-2.12,3.86-2.37c0.03-0.02,0.06,0.02,0.03,0.04c-1.35,0.97-2.75,1.84-4.21,2.62c-0.08,0.04-0.15-0.08-0.08-0.13
		c0.4-0.3,2.13-1.81,0.68-0.94c-0.67,0.4-1.37,0.75-2.08,1.07C205.46,438.26,205.44,438.2,205.48,438.18z"/>
	<path class="st1" d="M202.09,437.1c0.02-0.03,0.06,0,0.04,0.03c-0.65,0.86,1.08,0.03,1.37-0.13c0.06-0.03,0.11,0.05,0.08,0.1
		c-0.08,0.11-0.47,0.53-0.37,0.59c0.1,0.07,1.26-0.67,1.4-0.75c0.81-0.46,1.58-0.98,2.32-1.53c0.05-0.04,0.11,0.03,0.06,0.07
		c-2,1.57-4.53,2.89-4.17,2.41c0.3-0.4,0.77-0.69,0-0.42c-0.26,0.09-1.4,0.43-1.23,0.22C201.75,437.49,201.92,437.29,202.09,437.1z"
		/>
	<path class="st1" d="M198.46,438.47c1.17-0.48,2.36-0.84,3.49-1.41c0.05-0.03,0.09,0.06,0.04,0.08
		C199.2,438.58,198.13,438.61,198.46,438.47z"/>
	<path class="st1" d="M193.63,437.31c1.4-0.13,2.68-0.64,3.99-1.14c0.31-0.12-0.62,1.12-0.83,1.38c-0.17,0.06-0.34,0.11-0.52,0.16
		c-0.12,0.03-0.15-0.14-0.05-0.19c0.46-0.1,0.73-0.35,0.8-0.76c0.27-0.44,0.15-0.48-0.35-0.12c-0.62,0.11-1.35,0.89-3.04,0.8
		C193.55,437.43,193.55,437.31,193.63,437.31z"/>
	<path class="st1" d="M196.78,437.55c0.01,0,0.01,0,0.02-0.01C196.78,437.57,196.77,437.57,196.78,437.55z"/>
	<path class="st1" d="M200.91,435.71c0.01,0,0.01,0.01,0,0.01c-1.44,0.51-2.65,1.34-4.11,1.83c0.07-0.05,0.31-0.24,0.69-0.39
		C198.63,436.71,199.73,436.02,200.91,435.71z"/>
	<path class="st1" d="M191.92,436.09c0.03-0.02,0.06,0.02,0.03,0.04c-0.21,0.18-0.85,0.53-0.11,0.26c0.93-0.34,2.06-0.78,3.76-1.73
		c0.06-0.03,0.1,0.06,0.04,0.1c-2.24,1.26-4.94,2.23-4.46,1.86C191.42,436.43,191.67,436.26,191.92,436.09z"/>
	<path class="st1" d="M192.66,435.42c-1.18,0.15-2.27,0.51-3.41,0.82c-0.05,0.01-0.07-0.07-0.02-0.09
		C190.87,435.4,193.08,435.37,192.66,435.42z"/>
	<path class="st1" d="M186.92,434.81c-0.1,0.07-0.82,0.58-0.87,0.51c0.11,0.15,2.55-0.58,2.6-0.6c1.39-0.39,2.74-0.89,4.06-1.48
		c0.77-0.34-2.32,1.62-7.17,2.36c-0.11,0.02-0.16-0.14-0.05-0.18c0.41-0.15,1.96-0.85,0.09-0.34c-0.06,0.02-0.1-0.07-0.04-0.08
		c0.44-0.13,0.87-0.22,1.33-0.28C186.93,434.7,186.97,434.78,186.92,434.81z"/>
	<path class="st1" d="M181.31,433.31c0.11-0.01,0.15,0.13,0.05,0.18c-0.46,0.2-1.69,0.48-0.25,0.46c1.65-0.02,4.6-0.75,5.52-0.96
		c0.45-0.11-3.56,1.15-6.77,1.15c-0.09,0-0.09-0.13-0.02-0.16c0.5-0.23,1.63-0.49,0.26-0.38
		C177.18,433.84,175.91,433.7,181.31,433.31z"/>
	<path class="st1" d="M203.55,434.84c-2.58,2.88-4.7,3.03-4.34,2.72c1.07-0.92,2.41-1.15,4.24-2.81
		C203.51,434.69,203.6,434.78,203.55,434.84z"/>
	<path class="st1" d="M200.7,434.7c-1.52,1.19-2.15,1.33-1.95,1.19c0.63-0.42,1.26-0.84,1.85-1.31
		C200.68,434.51,200.78,434.63,200.7,434.7z"/>
	<path class="st1" d="M230.76,389.97c-0.02,0.04-0.04,0.08-0.06,0.13c0.01-0.04,0.02-0.09,0.03-0.13
		C230.73,389.93,230.77,389.95,230.76,389.97z"/>
	<path class="st1" d="M230.6,390.33c0.03-0.08,0.06-0.16,0.1-0.23C230.68,390.17,230.64,390.25,230.6,390.33z"/>
	<path class="st1" d="M226.51,390.8c0.01,0.16-0.01,0.32,0.14,0.16c0.14-0.15,0.26-0.45,0.45-0.38c0.13,0.05,0.09,0.15,0.15,0.24
		c-0.02,0.12,0.04,0.13,0.18,0.04c0.06-0.07,0.39-0.44,0.45-0.51c0.03-0.03,0.08-0.01,0.07,0.03c-0.02,0.18-0.05,0.36-0.07,0.54
		c0,0.03-0.04,0.02-0.04-0.01c0.01-0.13,0.01-0.27,0.02-0.4c-0.13,0.18-0.25,0.36-0.4,0.51c-0.23,0.23-0.37,0.08-0.35-0.19
		c-0.12-0.09-0.21-0.08-0.27,0.03c-0.11,0.08-0.28,0.39-0.33,0.29c-0.05-0.12-0.07-0.23-0.07-0.35
		C226.45,390.77,226.5,390.77,226.51,390.8z"/>
	<path class="st1" d="M225.47,391.21c0.35-0.17,0.66-0.39,0.94-0.66c0.02-0.02,0.04,0.01,0.03,0.03c-0.27,0.28-0.59,0.52-0.93,0.7
		C225.45,391.31,225.42,391.24,225.47,391.21z"/>
	<path class="st1" d="M207.9,443.55c-0.1-0.04-0.11-0.18-0.02-0.23C208.12,443.17,208.18,443.66,207.9,443.55z"/>
	<path class="st1" d="M208.27,444.35c0.04,0.06,0.04,0.11,0,0.17c-0.04,0.06-0.09-0.02-0.13-0.07
		C208.03,444.37,208.2,444.23,208.27,444.35z"/>
	<path class="st1" d="M208.5,445.56c0.13-0.02,0.18,0.13,0.09,0.21C208.44,445.9,208.29,445.59,208.5,445.56z"/>
	<path class="st1" d="M209.67,447.42c-0.16,0-0.27-0.04-0.39-0.15c-0.03-0.02-0.01-0.08,0.03-0.07c0.05,0.01,0.11,0.02,0.16,0.03
		c-0.07-0.08-0.16-0.16-0.24-0.23c-0.06-0.06,0.3,0.21,0.45,0.27C209.77,447.3,209.76,447.42,209.67,447.42z"/>
	<path class="st1" d="M207.24,443.15c-0.01-0.02-0.02-0.04-0.03-0.06c-0.02-0.05,0.02-0.1,0.07-0.09c0.02,0,0.05,0.01,0.07,0.01
		C207.59,443.04,207.33,443.36,207.24,443.15z"/>
	<path class="st1" d="M206.89,442.32c-0.14,0.02-0.17-0.19-0.03-0.21C207,442.09,207.02,442.3,206.89,442.32z"/>
	<path class="st1" d="M210.08,446.37c-0.68-0.25-0.71-1.57-1.24-2.51c-0.05-0.09,0.11-0.09,0.72,1.2c0.19,0.39,0.54,0.83,0.6,1.25
		C210.17,446.35,210.12,446.38,210.08,446.37z"/>
	<path class="st1" d="M210.72,447.86c-0.12-0.3-0.25-0.61-0.37-0.91c-0.03-0.07,0.09-0.12,0.11-0.05c0.11,0.31,0.23,0.61,0.34,0.92
		C210.83,447.88,210.75,447.91,210.72,447.86z"/>
	<path class="st1" d="M213.05,442.83c-0.21-0.44-0.42-0.87-0.64-1.3c-0.03-0.06,0.06-0.11,0.1-0.06c0.54,0.73,1.36,1.71,1.2,2.67
		C213.66,444.52,213.21,443.18,213.05,442.83z"/>
	<path class="st1" d="M213.82,444.66c0.1,0.21,0.22,0.42,0.36,0.61c0.1,0.14,0.26,0.26,0.27,0.44c0.01,0.18-0.35,0.03-0.72-1.02
		C213.71,444.64,213.79,444.61,213.82,444.66z"/>
	<path class="st1" d="M212.1,442.89c-0.18,0.02-0.22-0.25-0.04-0.27C212.24,442.59,212.28,442.87,212.1,442.89z"/>
	<path class="st1" d="M212.06,441.99c-0.19,0.03-0.23-0.26-0.04-0.29C212.22,441.68,212.25,441.97,212.06,441.99z"/>
	<path class="st1" d="M212.8,443.54c0.17-0.02,0.21,0.24,0.04,0.26C212.66,443.83,212.63,443.57,212.8,443.54z"/>
	<path class="st1" d="M215,446.11c-0.17,0.02-0.2-0.23-0.03-0.25C215.13,445.84,215.16,446.09,215,446.11z"/>
	<path class="st1" d="M214.24,444.6c-0.23,0.03-0.28-0.32-0.05-0.35C214.42,444.21,214.47,444.57,214.24,444.6z"/>
	<path class="st1" d="M210.44,448.63c-0.16,0.02-0.19-0.21-0.03-0.23C210.56,448.37,210.6,448.6,210.44,448.63z"/>
	<path class="st1" d="M207.92,441.75c-0.17,0.02-0.21-0.24-0.04-0.26C208.06,441.46,208.1,441.73,207.92,441.75z"/>
	<path class="st1" d="M207.08,441.59c-0.27,0.08-0.3-0.18-0.02-0.18C207.14,441.42,207.16,441.57,207.08,441.59z"/>
	<path class="st1" d="M238.12,391.6c0.13,0.26,0.26,0.53,0.39,0.79c0.02,0.05-0.05,0.08-0.08,0.03c-0.12-0.27-0.24-0.54-0.36-0.81
		C238.06,391.59,238.11,391.57,238.12,391.6z"/>
	<path class="st1" d="M237.32,391.81c-0.05-0.16-0.1-0.33-0.15-0.49c-0.01-0.03,0.04-0.05,0.05-0.02c0.06,0.16,0.12,0.32,0.17,0.48
		C237.41,391.82,237.33,391.86,237.32,391.81z"/>
	<path class="st1" d="M235.5,390.49c0.03,0,0.03,0.04,0.01,0.04C235.48,390.54,235.47,390.5,235.5,390.49z"/>
	<path class="st1" d="M174.44,434.12c0.33-0.02,0.44-0.03,0.54-0.08c0.72,0.27,1.42,0.44,2.19,0.47c-0.2,0.05-0.4,0.11-0.61,0.16
		c-0.18,0.05-0.22,0.26-0.05,0.35c0.08,0.04,0.16,0.07,0.24,0.1c0.97,0.83,2.75,0.92,4.05,0.82c-0.45,0.2-0.88,0.42-1.27,0.59
		c-0.18,0.08,0.3,0.15,0.5,0.15c1.04,0.25,2.13,0.42,3.23,0.47c0.03,0.04,0.03,0.08-0.02,0.13c-0.23,0.06-1.71,0.44-1.5,0.53
		c0.22,0.09,0.44,0.13,0.65,0.14c0.17,0.48,3.17,1.87,7.16,1.21c-0.98,0.5-1.15,0.45-0.73,0.66c0.99,0.95,2.42,1.06,3.79,0.7
		c-0.03,0.03-0.07,0.05-0.11,0.07c-0.29,0.09-1.15,0.36-0.84,0.41c1.14,0.18,2.85,0.06,4.32-0.42c-0.01,0.05-0.01,0.1,0,0.14
		c-0.06,0.06-0.12,0.11-0.07,0.18c0,0.07,0.09,0.08,0.16,0.11c0.11,0.18,0.25,0.08,0.46,0.1c-1.52,0.7-2.43,0.4-1.76,0.7
		c-0.01,0-0.02,0-0.03,0c-0.05,0-0.04,0.07,0,0.08c0.72,0.11,0.77,0.13,1.02,0.12c0.22,0.02,0.44,0.04,0.66,0.05
		c0.09,0.07,0.21,0.03,0.33,0.02c1.62,0.25,3.25-0.25,4.68-1.12c-0.25,0.37-0.53,0.99-0.58,1.11c-0.01,0.01-0.01,0.03-0.01,0.04
		c-0.14,0.44,1.05,0,1.17-0.05c0.4-0.14,0.79-0.31,1.18-0.48c0.2-0.09,0.39-0.17,0.59-0.26c0.21-0.1,0.39-0.23,0.5,0.06
		c0.06,0.16-0.13,0.28-0.21,0.41c-0.02,0.03,0.01,0.06,0.04,0.05c0.05-0.02,0.1-0.04,0.14-0.07c0.04,0,0.18-0.03,0.22-0.04
		c-0.25,0.68,1.25,1.61,2.03,2.57c1.43,1.76,0.7,3.5,2.07,4.33c0.38,0.48,0.74,0.62,0.99,0.92c-0.16,0.06,0.11,0.33,0.23,0.45
		c0.06,0.28,0.39,0.44,0.7,0.45c1.22,0.46,2.33-0.12,5.55,0.26c2.38,0.57,3.65,1.24,4.41,1.03c0.06-0.02,0.11-0.09,0.12-0.15
		c0.06-0.66-1.03-1.42-0.57-1.92c0.51-0.56,2.15,0.22,2.66-0.51c0.04-0.05,0.05-0.12,0.02-0.18c-0.26-0.51-0.73-0.81-1.28-0.99
		c-0.61-0.38-1.35-0.57-2.03-0.81c1.11-0.14,2.09-0.11,3.19,0.21c0.36,0.11,0.72-0.27,0.47-0.59c-0.03-0.03-0.05-0.07-0.08-0.1
		c-0.08-0.19-0.19-0.34-0.36-0.52c-0.12-0.19-0.23-0.39-0.32-0.6c0.01-0.01,0.02-0.02,0.04-0.02c0.23-0.02,0.46-0.07,0.69-0.03
		c0.16,0.02,0.35,0.11,0.5,0.01c0.12-0.09,0.12-0.21,0.05-0.31c0.1-0.02,0.15-0.1,0.14-0.18c0.16,0,0.28,0.01,0.33,0.01
		c0.19,0,0.29-0.24,0.09-0.33c-4.08-1.78-7.07-1.01-8.32,0.17c-1.2-2.08-0.9-3.19-1.22-3.92c-0.05-0.11-0.11-0.18-0.17-0.25
		c5.26-1.23,9.59-4.72,13.46-8.13c1.68-1.47,3.49-2.91,4.79-4.73c2.49-3.52,3.88-8.1,3.87-12.32c-0.03-8.28-5.29-14-9.43-19.09
		c-0.65-0.79-3.8-3.68-1.13-3.71c1.84-0.02,3.93,0.14,5.43-0.84c1.29-0.46,2.07-0.29,2.97,0.25c1.7,1.02,4.37,3.07,6.98,3.16
		c0.39,0.1,0.74,0.13,0.95,0.02c0.1,0.06,0.2,0.11,0.29,0.17c0.17,0.1,0.42,0,0.39-0.22c-0.38-2.2-1.68-3.73-3.4-5.25
		c-1.99-1.76-3.39-1.9-4.93-4.55c-0.44-1.57-1.13-3.05-2.63-3.98c-2.07-1.29-5.29-1.87-7.71-1.97c-4.46-0.19-8.23,3.04-10.18,6.73
		c-2.51,4.75-0.66,9.74,0.05,14.64c0.45,3.09,0.42,4.3-3.03,5.62c-4.84,1.85-6.32,1.02-12.71,5.99c-2.1,1.63-4.19,3.32-6.05,5.19
		c-0.25,0.25-0.05,0.56,0.22,0.66c-4.45,3.46-4.91,2.44-2.94,2.82c-0.49,0.3-0.96,0.72-1.57,1.06c-1.25,0.69-2.74,0.97-3.88,1.82
		c-0.48,0.1-0.95,0.27-1.36,0.5c-0.07,0.04-0.04,0.13,0.04,0.13c0.72-0.05,1.37-0.14,2.04-0.12c0.08,0.06,0.15,0.11,0.2,0.15
		c-2.94,1.97-5.79,4.08-8.8,5.94c-0.42,0.2-2.48,1.14-2.09,1.11c1.02-0.1,1.95-0.33,2.82-0.67c-0.82,0.46-1.63,1-2.57,1.19
		c-0.17,0.04-0.25,0.3-0.05,0.36c0.34,0.1,0.71,0.22,1.08,0.27c-0.32,0.27-0.61,0.61-1.07,1.05
		C174.34,434.05,174.37,434.12,174.44,434.12z M233.68,386.29c1.1,1.2,2.27,2.33,3.52,3.4c1.79,1.52,2.87,1.71,5.06,4.97
		c0.02,0.06,0.05,0.13,0.07,0.19c-0.27-0.16-0.54-0.32-0.81-0.48c-0.81-1.3-0.75-1.2-0.1-0.06c-0.13-0.08-0.26-0.16-0.4-0.23
		c-0.09-0.24-0.19-0.47-0.28-0.71c-0.01-0.02-0.05-0.01-0.04,0.02c0.08,0.21,0.15,0.43,0.23,0.64c-0.16-0.09-0.32-0.19-0.48-0.28
		c-0.08-0.2-0.14-0.4-0.18-0.61c0.05,0.03,0.09,0.07,0.12,0.13c0.01,0.03,0.04,0.03,0.06,0.02c0.09-0.03-0.02-0.14-0.08-0.23
		c-0.02-0.02-0.04-0.02-0.06-0.01c-0.03-0.02-0.06-0.03-0.1-0.04c-0.13-0.03,0.06,0.53,0.1,0.65c-0.18-0.1-0.36-0.2-0.53-0.3
		c0.02-0.01,0.03-0.02,0.02-0.04c-0.09-0.19-0.17-0.37-0.26-0.56c-0.02-0.04-0.08-0.01-0.06,0.03c0.08,0.18,0.17,0.36,0.25,0.55
		c-0.23-0.13-0.47-0.27-0.7-0.4c0-0.02-0.44-0.79-0.45-0.81c-0.03-0.04-0.1-0.01-0.08,0.03c0.14,0.24,0.28,0.48,0.42,0.72
		c-0.28-0.16-0.57-0.33-0.85-0.49c-0.11-0.3-0.21-0.6-0.32-0.91c-0.01-0.02-0.04-0.01-0.04,0.02c0.08,0.28,0.17,0.56,0.25,0.83
		c-0.06-0.03-0.11-0.06-0.17-0.09c-0.01-0.03-0.39-0.85-0.41-0.88c-0.02-0.05-0.1-0.02-0.08,0.03c0.11,0.25,0.22,0.51,0.33,0.76
		c-0.33-0.19-0.66-0.37-0.99-0.56c-0.09-0.29-0.27-0.57-0.41-0.85c-0.01-0.02-0.05-0.01-0.04,0.02c0.1,0.24,0.18,0.51,0.31,0.75
		c-0.02-0.01-0.04-0.02-0.05-0.03c0-0.02-0.29-0.71-0.3-0.73c-0.01-0.02-0.05-0.01-0.04,0.02c0.08,0.22,0.16,0.43,0.23,0.65
		c-1.25-0.7-2.5-1.41-3.75-2.12c0.47-0.5,0.71-1.14,0.77-1.82c0.41,1.99,0.89,2.63,3.87,3.21c0.04,0.01,0.05-0.05,0.02-0.06
		c-0.73-0.3-1.5-0.58-2.2-0.96C233.75,388.94,233.94,387.36,233.68,386.29z M209.9,441.91c0.08,0.15,0.17,0.32,0.31,0.56
		c0.64,1.14,0.97,2.18,1.85,3.39c0.09,0.12,0.49,0.71,0.56,0.71c-0.04,0,0.03,0.02,0.1,0.03c0.02,0.03,0.02,0.04,0.07,0.05
		c-0.66-0.07-1.11-0.42-1.48-0.91C210.97,444.84,210.27,443.73,209.9,441.91z M212.86,446.65c-0.01,0-0.01,0-0.02,0
		C212.84,446.65,212.85,446.65,212.86,446.65C212.86,446.65,212.86,446.65,212.86,446.65z M217.11,445.24
		c1.19-0.34,1.49-0.52,3.37-0.62c0.15-0.01,2.39,0.18,2.5,0.08c-0.01,0.01-0.01,0.01,0,0.02c0.02,0.03,0.04,0.06,0.07,0.08
		c-0.35,0.04-0.68,0-1.39,0.42c-0.34-0.13-0.84-0.08-1.14-0.08c-0.7,0-1.27,0.08-1.88,0.43c-0.07,0.04,0,0.12,0.06,0.1
		c0.64-0.19,1.33-0.19,1.98-0.15c0.29,0.02,0.6,0.11,0.89,0.14c0.08,0.28,0.18,0.54,0.3,0.78c-1.16-0.27-2.76-0.53-3.55,0.08
		c-0.02,0-0.03-0.01-0.05-0.01c0-0.01,0-0.01-0.01-0.02c0.39-0.43-1.46-0.32-2.03-0.27c0.06-0.1,0-0.27-0.16-0.24
		c-0.15,0.02-0.17,0.19-0.09,0.27c-0.51,0.06-1.02,0.13-1.54,0.22c-0.34-0.39-0.59-0.28-1.19-1.46c-0.16-0.32,0.25,1.15,0.77,1.53
		c-0.14,0.02-0.29,0.04-0.43,0.06c-0.33-0.29-0.52-0.61-0.68-0.97c-0.4-1.56-1.3-3.69-1.94-4.47c0.69-0.01,1.38-0.06,2.06-0.16
		c0.55,0.94,0.74,2.17,1.34,3.09c0.26,0.39,0.56,1.57,1.13,1.7C215.96,445.9,216.58,445.53,217.11,445.24z M229.81,391.06
		c0.08-0.1,0.15-0.21,0.23-0.31c-0.01,0.08-0.02,0.16-0.01,0.24C229.96,391.02,229.88,391.04,229.81,391.06z M223.06,445.29
		c0.06-0.01,0.12-0.02,0.18-0.02c0.02,0.03,0.03,0.05,0.03,0.07C223.28,445.32,223.17,445.3,223.06,445.29z M221.1,449.2
		c-0.9,0.26-3.58-0.41-5.58-0.58c-2.92-0.8-4.53,0.07-4.18,0.06c0.13,0,0.26,0,0.39,0c0,0,2.88-0.19,6.4,1.13
		c0.46,0.24,0.82,0.56,1.13,1.06c0,0.05-0.01,0.1-0.01,0.14c-2.31-1.51-5.84-1.44-8.64-1.43c-0.01-0.01-0.03-0.02-0.04-0.03
		c-0.21-0.6-0.75-0.8-1.26-1.11c-0.65-0.83-0.74-1.27-1.04-2.28c0.01-0.4,0.12-1.43-1.12-3.02c-0.28-0.59-0.64-1.25-1.13-1.64
		c0.1-0.06,0.2-0.13,0.3-0.2c1.27-0.29,1.59-0.33,1.95-0.21c0.06,0.11-0.04,0.17,0.5,0.23c0,0.03,0,0.07,0,0.1
		c0.37,2.68,1.26,3.8,1.82,4.5c0.2,0.34,0.43,0.64,0.68,0.88c0.61,1.42,5.3-0.6,6.16,0.04c-0.29,0.29-0.4,0.41-0.76,0.63
		c-0.41,0.03-0.83,0.13-1.25,0.24c-0.53,0-1.03,0.08-1.46,0.31c-0.04,0.02-0.03,0.08,0.01,0.09c0.7,0.17,1.51,0.03,2.23,0.06
		c0.51,0.02,1,0.1,1.48-0.07c0.78,0.09,1.69-0.11,2.49,0C221.19,448.23,222.78,448.7,221.1,449.2z M175.59,433.69
		c1.7-0.9,1.45-0.11,6.28-1.19c0.92-0.21-3.92-0.61-5.62,0.01c-0.05-0.01-0.1-0.01-0.16-0.01c0.28-0.11,0.55-0.25,0.79-0.37
		c0.57-0.27,1.38-0.95,1.81-1.08c0.41-0.13,1.64-0.41,1.41-0.47c-0.6-0.18-1.14-0.16-1.64-0.04c-0.03,0-0.05,0-0.08-0.01
		c3.35-1.73,5.33-3.96,7.35-4.98c0.99-0.5,2.16-0.61,2.83-1.53c0.04-0.05-0.02-0.11-0.07-0.09c-0.53,0.16-1.08,0.28-1.62,0.42
		c-0.24-0.01-0.49-0.05-0.74-0.11c1.39-0.63,1.37-0.46,2.16-0.88c1.23-0.64,2.07-1.66,3.17-2.4c0.04-0.03,0.04-0.09-0.05-0.11
		c-0.14-0.07-0.5-0.1-0.72-0.18c-0.06-0.04-0.06-0.02-0.11-0.04c1.79-0.65,2.48-1.51,3.45-2.18c0.47-0.33,0.77-0.37,0.97-0.88
		c0.01-0.03,0-0.07-0.03-0.09c-0.2-0.14-0.4-0.18-0.61-0.17c4.63-3.44,9.12-6.71,14.83-8.36c1.7-0.49,3.55-0.98,4.97-2.05
		c1.13-0.55,1.5-1.28,1.71-2.35c1.55-5.27-5.35-14,2.47-21.24c2.69-2.49,5.61-2.87,9.13-2.11c3.29,0.71,4.64,1.13,6.14,3.78
		c0.11,0.33,0.18,0.6,0.38,1.03c-0.4-0.44-0.8-0.88-1.18-1.34c-0.15-0.18-0.48,0-0.37,0.21c0.79,1.59,0.42,2.8,0.03,4.36
		c-0.25-0.02-0.46,0.3-0.21,0.45c2.95,1.69,5.94,3.32,8.88,5.02c-1.33-0.39-0.89-0.12-5.42-2.5c-0.39-0.25-2.37-1.52-2.8-1.72
		c-0.64-0.3-1.09-0.19-1.11-1.08c0.01-0.04,0.02-0.05,0-0.09c0-0.04-0.01-0.09-0.01-0.13c-0.03-0.17-0.28,0.14-0.34,0.31
		c-0.4,0.33-0.76,0.76-0.42,1.2c-0.28,0.07-0.53,0.15-0.81,0.24c0.24-0.26,0.31-0.4,0.39-0.6c-0.12,0.22-0.3,0.43-0.48,0.59
		c0.02-0.16,0.05-0.31,0.13-0.46c0.03-0.06-0.07-0.11-0.1-0.06c-0.16,0.24-0.31,0.47-0.47,0.71c-0.41,0.14-0.82,0.27-1.24,0.37
		c0.09-0.1,0.18-0.21,0.27-0.31c0,0.04,0.01,0.08,0.01,0.12c0.02,0.29,0.7-0.63,0.85-0.88c0.02-0.04-0.03-0.08-0.05-0.04
		c-0.19,0.29-0.42,0.54-0.67,0.77c0-0.05,0-0.1,0-0.15c0-0.07-0.09-0.07-0.13-0.03c-0.19,0.19-0.4,0.38-0.57,0.6
		c-0.22,0.04-0.44,0.07-0.68,0.09c-0.93-0.08-3.82-0.89-4.17,0.9c-0.95,1.8,1.7,3.96,2.68,5.13c6.12,7.28,9.12,10.19,9.03,18
		c-0.04,3.91-1.62,8.53-4.11,11.66c-1.36,1.71-3.17,3.13-4.85,4.55c-3.99,3.36-8.85,7.38-15.95,8.68c3.15-1.61,4.46-4.59,4.08-4.06
		c-2,2.83-4.19,3.45-5.14,3.94c-0.42-0.15-0.38-0.15-0.75-0.29c0.67-0.41,1.31-0.86,1.88-1.32c3.42-2.38,4.19-6.54,3.92-5.97
		c-1.25,2.6-3.42,4.86-6.08,6.18c-1.94,0.96-3.58,0.56-6.43,2.66c-0.02-0.01-0.04-0.03-0.05-0.05c0.47-0.55-0.01-0.2,1.38-1.54
		c1.02-0.98,1.83-2.29,1.53-1.98c-1.58,1.6-2.52,2.64-6.71,3.46c-0.2,0.03-0.41,0.05-0.61,0.07c0.04-0.03,0.08-0.07,0.12-0.1
		c1.16-0.62,2.23-1.75,3.08-2.4c0.04-0.03,0.02-0.12-0.05-0.11c-0.84,0.21-1.49,0.65-2.19,1.13c-0.12,0.08-0.23,0.16-0.34,0.23
		c-0.56,0.18-0.34,0.09-1.08,0.22c-0.1-0.03-0.06-0.13,0.08-0.28c0.11-0.07,0.23-0.13,0.3-0.21c0.59-0.3,1.1-0.67,1.43-1.12
		c0.04-0.05,0-0.13-0.07-0.12c-1.16,0.25-2.22,0.85-3.4,1.12c-0.56,0.13-1.13,0.22-1.7,0.35c0.04-0.05,0.09-0.1,0.13-0.15
		c1.19-0.48,2.26-1.28,2.86-2.14c0.05-0.07-0.04-0.17-0.11-0.11c-1.07,0.85-2.3,1.54-3.67,1.78c-0.85,0.15-1.63,0-2.43-0.1
		c0.57-0.32,1.47-0.83,1.93-1.19c0.48-0.2,0.93-0.43,1.35-0.7c0.06-0.04,0-0.12-0.06-0.1c-5.37,1.69-7.44,0.59-9.7,0.05
		c0.77-0.24,1.31-0.43,1.93-0.6c2.29-0.18,4.43-1.38,4.08-1.35c-1.95,0.19-3.78,0.89-5.78,0.79c-0.76-0.04-1.47-0.16-2.19-0.2
		c-0.04-0.03-0.07-0.06-0.1-0.1c0.55-0.26,1.09-0.57,1.62-0.69c0.05-0.01,0.07-0.07,0.04-0.11c0.98-0.32,1.92-0.78,2.84-1.33
		c0.14-0.08,0-0.25-0.13-0.21c-1.02,0.28-2.06,0.6-3.1,0.84c-3.52,0.51-3.54,0.23-5.2,0.01c0.25-0.2,0.95-0.33,1.1-0.37
		c0.16-0.05,0.08-0.29-0.08-0.27C178.06,434.22,175.54,434.26,175.59,433.69z"/>
	<path class="st1" d="M225.62,382.83c0.02-0.04,0.07-0.06,0.12-0.05c0.1,0.03,0.87,0.38,0.9,0.39c-0.58-0.73,0.58-1.25,0.85-0.5
		c0.21,0.25,0.11,0.62-0.22,0.72c0.48,0.07,0.7,0,1.06,0.04c-0.52-0.41-0.74-0.83-0.97-1.21c-0.02-0.1-0.07-0.17-0.17-0.19
		c-0.02,0.01-0.04,0.01-0.06,0.03c-0.15-0.01-0.37,0.2-0.47,0.28c-0.22,0.17-0.34,0.35-0.6,0.45c-0.16,0.06-0.24-0.32,0.36-0.72
		c0.16-0.34,0.82-0.56,1.09-0.28c0.22,0.22,0.35,0.6,0.52,0.86c0.18,0.28,0.41,0.53,0.61,0.79c0.02,0.01,0.04,0.02,0.05,0.03
		c0.09,0.01,0.18,0.01,0.27,0c0.05-0.01,0.08,0.04,0.06,0.08C228.55,384.61,225.1,384.19,225.62,382.83z"/>
	<path class="st1" d="M197.95,431.45c-0.2-0.39-0.32-0.81-0.36-1.26c-0.2-1.42,0.28-2.72,0.84-3.91c0.01-0.03,0.03-0.04,0.05-0.06
		c0.08-0.14,0.18-0.09,0.16-0.01c0.04,0.02,0.07,0.07,0.07,0.13c-0.03,0.27-0.04,0.53-0.03,0.79c0.26-1.27,1.03-2.55,1.65-3.53
		c0.09-0.14,0.33-0.03,0.3,0.12c-0.03,0.13-0.05,0.27-0.07,0.4c0.34-0.92,0.82-1.8,1.32-2.55c0.11-0.16,0.37-0.04,0.35,0.14
		c-0.05,0.31-0.1,0.61-0.13,0.92c1.43-2.74,2.39-3.57,2.21-3.23c-0.1,0.19-0.2,0.38-0.3,0.57c0.08,0.01,0.05,0.15,0.05,0.23
		c1.25-2.12,3.08-2.76,2.76-2.5c-2.54,2.02-2.76,4.1-3.22,4.64c-0.02,0.03-0.08,0.03-0.09-0.01c-0.01-0.03-0.01-0.06-0.02-0.09
		c-0.04-0.01-0.07-0.03-0.06-0.08c0.05-0.38-0.02-0.81,0.56-1.83c-0.03-0.22-0.24,0.23-0.35,0.41c-1.32,2.11-1.88,4.09-1.88,4.09
		c-0.14,0.46-0.3-0.7,0.13-1.75c-0.03-0.19-0.05-0.38-0.07-0.56c0,0-0.06,0.05-0.06,0.05c-0.81,1.61-1.03,3.25-1.49,5.02
		c-0.01,0.04-0.07,0.05-0.08,0c-0.11-0.46-0.28-0.76-0.09-1.53c0.02-0.19,0.05-0.38,0.08-0.57c-0.02,0-0.03-0.01-0.03-0.04
		c0-0.03,0.02-0.12,0.04-0.23c-0.01-0.25-0.01-0.5,0.01-0.75c-0.88,1.59-1.08,2.42-1.35,4.18c0,0.03-0.04,0.04-0.06,0.03
		c-0.13,0.45-0.23-0.52-0.19-1.01c-0.03-0.16-0.06-0.31-0.08-0.47c0,0.13,0.01,0.26,0.03,0.4c0.01,0.05-0.05,0.06-0.08-0.42
		c-0.56,2.18-0.22,3-0.43,4.25C198.03,431.48,197.97,431.48,197.95,431.45z"/>
	<path class="st1" d="M206.94,415.35c0.32-0.23-1.23,0.42-2.47,1.75c0.04-0.1,0.04-0.16-0.09-0.15c0.15-0.13,0.29-0.26,0.45-0.38
		c0.32-0.25-0.9-0.1-2.59,2.47c0.02-0.1,0.03-0.2,0.04-0.3c0.17-0.19,0.34-0.38,0.51-0.57c0.02-0.02-0.01-0.05-0.04-0.04
		c-1.13,0.75-1.8,1.56-2.39,2.61c0.04-0.3,0.09-0.59,0.13-0.89c0.17-0.25,0.35-0.5,0.52-0.75c0.28-0.4-1.06,0.69-1.98,2.22
		c0.01-0.04,0.04-0.23,0.04-0.26c0.05-0.06,0.3-0.33,0.24-0.29c-0.74,0.49-1.42,1.02-1.94,1.71c-0.05-0.03-0.29,0.17-0.34,0.21
		c-0.01,0-0.03,0-0.04,0.01c-0.83,0.72-1.38,1.46-1.89,2.41c0.03-0.23,0.04-0.47,0.03-0.71c0.08-0.08,0.17-0.16,0.26-0.22
		c0.03-0.02,0-0.05-0.03-0.04c-0.85,0.24-1.27,0.82-1.61,1.57c-0.1,0.21-0.18,0.43-0.27,0.65c0.01-0.08,0.06-0.25-0.02-0.23
		c-0.62,0.13-1.08,1.34-1.37,1.86c-0.58,1.02-1.2,2.18-1.35,3.34c-0.01,0.05,0.07,0.07,0.09,0.02c0.51-1.02,0.82-2.14,1.33-3.16
		c0.05-0.1,0.95-1.82,1.06-1.83c0.1-0.01,0.15,0.09,0.16,0.23c-0.79,2.05-0.96,2.71-1.04,3.26c-0.01,0.08,0.11,0.14,0.16,0.06
		c0.64-1.04,1.61-4.24,2.35-5.21c0.09,0.09,0.17,0.29,0.13,0.6c-0.5,0.98-0.88,2.03-1.26,3.01c-0.05,0.14,0.19-0.01,0.31-0.1
		c0.02,0.02,0.05,0.02,0.07,0c0.76-0.97,0.64-1.14,1.03-2.07c0.44-1.06,0.99-2.13,1.74-3.03c0.01,0,0.02,0,0.02,0
		c0.01,0,0,0.06-0.01,0.13c-0.49,1-0.59,2.17-1,3.21c-0.08,0.21,0.52-0.15,0.77-0.93c0.52-1.3-0.02-1.68,2.04-4.04
		c0.15-0.12,0.21-0.08,0.21,0.03c-0.5,0.87-1.22,2.15-0.96,3.11c0.01,0.03,0.05,0.05,0.07,0.02c0.55-0.74,0.66-1.79,1.1-2.62
		c0.35-0.66,0.77-1.29,1.2-1.92c-0.02,0.19-0.06,0.56-0.09,0.88c-0.43,0.81-0.83,1.78-0.69,2.64c0.08,0.48,0.82-2.05,1.38-3.01
		c0.52-0.81,0.77-1.17,1.18-1.67c0.03,0.04,0.01,0.17-0.02,0.33c-0.45,0.7-0.9,1.47-0.71,2.27c0.01,0.03,0.06,0.05,0.08,0.01
		c0.03-0.08,0.06-0.17,0.09-0.25c0.05,0,0.09-0.03,0.11-0.09c0.33-1.37,2.65-4.71,2.52-3.79c-1.21,1.46-1.39,3.16-1.17,2.79
		c0.13-0.22,0.25-0.43,0.38-0.64c0.04,0,0.08-0.02,0.1-0.07C203.65,419.02,205.07,416.68,206.94,415.35z M197.14,422.81
		c-0.04,0.07-0.08,0.15-0.12,0.22c0.01-0.04,0.01-0.08,0.02-0.11C197.07,422.88,197.11,422.85,197.14,422.81z"/>
</g>
<g>
	<g>
		<path class="st1" d="M370.13,245.47c1.85-4.35,1.13-8.91-1.92-12.55c-2.68-3.2-6.38-4.56-9.62-6.96
			c-0.89-0.66-0.31-2.12,0.82-1.81c8.61,2.29,18.09,13.13,12.43,22.1C371.29,247.12,369.7,246.49,370.13,245.47L370.13,245.47z"/>
	</g>
	<g>
		<path class="st1" d="M372.68,250.6c-0.17-0.87-0.53-1.76-1.11-2.44c-0.58-0.67-1.62-0.96-1.88-1.85c-0.1-0.33,0.1-0.74,0.4-0.9
			c1.16-0.59,2.46,0.67,3.13,1.52c0.81,1.03,1.22,2.17,1.16,3.48C374.34,251.36,372.87,251.59,372.68,250.6L372.68,250.6z"/>
	</g>
	<g>
		<path class="st1" d="M371.87,255.72c-2.68-1.62-5.61-5.84-4.51-9.13c0.31-0.92,1.55-0.84,1.83,0.05c0.45,1.43,0.36,2.89,1.02,4.3
			c0.63,1.35,1.61,2.51,2.71,3.51C373.63,255.09,372.65,256.19,371.87,255.72L371.87,255.72z"/>
	</g>
	<g>
		<path class="st1" d="M365.51,253.14c-0.94-0.91-1.54-2.25-1.46-3.57c0.07-1.11,1.9-1.44,2.05-0.22c0.12,1.02,0.34,1.84,0.94,2.7
			C367.68,252.96,366.25,253.85,365.51,253.14L365.51,253.14z"/>
	</g>
	<g>
		<path class="st1" d="M365,249.97c-6-0.45-9.35-5.54-10.96-10.95c-1.44-4.84-1.3-9.9-3.28-14.6c-2.67-6.34-7.89-10.22-13.02-14.51
			c-13.14-10.98-22.95-25.8-25.52-42.97c-0.21-1.41,1.86-1.96,2.18-0.53c4.19,18.49,13.08,31.67,27.45,43.8
			c4.43,3.74,8.86,7.64,11.18,13.09c3.82,8.98,1.03,20.77,12.23,25.02C366.09,248.64,366,250.04,365,249.97L365,249.97z"/>
	</g>
	<g>
		<path class="st1" d="M360.58,226.25c-4.22-1.46-5.99-4.61-8.24-8.31c-4.11-6.76-8.75-12.05-14.49-17.46
			c-4.32-4.06-8.75-8.08-12.25-12.89c-4.89-6.72-7.41-14.6-13.26-20.67c-1.05-1.08,0.62-2.61,1.7-1.59
			c4.43,4.21,6.83,9.43,9.74,14.73c3.44,6.27,7.91,11.33,13.06,16.23c4.52,4.3,9.25,8.44,12.99,13.47
			c3.82,5.13,5.68,11.58,11.41,15.05C361.99,225.27,361.44,226.54,360.58,226.25L360.58,226.25z"/>
	</g>
	<g>
		<path class="st1" d="M352.89,217.47c-11.31-26.18-16.4-54.32-39.17-73.55c-0.69-0.59,0.27-1.72,1.01-1.22
			c24.22,16.24,29.35,48.99,39.29,74.16C354.32,217.62,353.22,218.24,352.89,217.47L352.89,217.47z"/>
	</g>
	<g>
		<path class="st1" d="M347.43,209.31c-8.08-5.38-12.29-16.06-15.26-24.9c-4.9-14.57-9.8-27.59-19.13-40.01
			c-0.95-1.26,0.86-2.97,1.81-1.69c6.71,9,12.02,18.78,15.71,29.39c4.52,13,7.39,26.23,17.84,36.02
			C349.05,208.72,348.16,209.79,347.43,209.31L347.43,209.31z"/>
	</g>
	<g>
		<path class="st1" d="M356.65,223.52c-4.53-9.74-5.96-20.69-7.88-31.16c-2.27-12.33-6-22.72-11.47-33.96
			c-0.36-0.75,0.63-1.54,1.22-0.87c6.87,7.83,9.44,19.53,11.43,29.48c2.43,12.14,4.45,24.14,7.87,36.07
			C358.01,223.76,356.95,224.18,356.65,223.52L356.65,223.52z"/>
	</g>
	<g>
		<path class="st1" d="M339.16,158.41c2.27,12.34,5.55,24.56,7.71,36.88c0.14,0.82-1.09,1.42-1.45,0.55
			c-4.72-11.46-6.81-24.97-7.72-37.28C337.64,157.73,339.01,157.59,339.16,158.41L339.16,158.41z"/>
	</g>
	<g>
		<path class="st1" d="M363.72,245.84c-2.38-1.68-5.14-4.79-5.01-7.93c0.03-0.63,0.9-0.86,1.2-0.29c0.63,1.19,0.94,2.48,1.67,3.63
			c0.8,1.26,1.79,2.33,3,3.2C365.43,245.07,364.58,246.45,363.72,245.84L363.72,245.84z"/>
	</g>
	<g>
		<path class="st1" d="M358.22,233.97c-0.49-0.7-0.93-1.29-1.2-2.1c-0.17-0.55,0.58-1.14,1.05-0.76c0.72,0.58,1.15,1.27,1.67,2.04
			C360.37,234.09,358.85,234.86,358.22,233.97L358.22,233.97z"/>
	</g>
</g>
<g>
	<path class="st1" d="M235.52,123.12c-0.08-0.08-0.13-0.21-0.12-0.39c0-0.28,0.29-0.74,0.44-1.02c0.39-0.72,0.88-1.38,1.33-2.07
		c2.74-4.18,4.97-8.63,7.37-12.96c4.54-8.18,8.63-16.62,13.42-24.75c3.39-5.74,7.68-10.81,12.19-15.71
		c3.83-4.17,8.15-7.78,12.42-11.49c0.33-0.29,0.89-0.42,0.95-0.92c0.43-3.69,2.79-6.76,3.32-10.47c0.33-2.35,1.89-4.01,3.69-5.55
		c3.28-2.81,6.84-5.17,10.9-6.95c1.78-0.78,3.5-1.77,4.11-3.82c0.27-0.92,1.03-1.15,2.09-0.7c1.07,0.47,0.85,1.02,0.71,1.85
		c-0.25,1.48-0.38,2.96-1.09,4.29c-0.84,1.59-0.19,3.53-0.7,5.23c-0.37,1.22-0.44,2.56-0.61,3.85c-0.72,5.56-3.95,9.27-9,11.13
		c-5.63,2.08-8.96,6.13-11.75,11.13c-4.94,8.88-9.61,17.87-15.08,26.4c-2.08,3.25-4.83,5.91-7.41,8.72
		c-3.76,4.09-7.8,7.85-12.03,11.39c-3.1,2.6-5.94,5.55-8.89,8.36l-3.93,3.69C237.39,122.83,235.95,123.57,235.52,123.12z
		 M299.24,37.22c-0.45-0.28-0.83-0.29-1.29,0.03c-1.72,1.24-3.37,2.56-4.69,4.19c-1.57,1.94-2.43,4.22-3.06,6.61
		c1.44-1.2,2.51-2.65,3.47-4.2c1.54-2.49,3.49-4.62,5.58-6.66c0.47-0.96,1.8-1.29,1.93-2.72C300.17,35.27,299.59,36.16,299.24,37.22
		z M238.13,119.93c0.02,0.03,0.05,0.05,0.11,0.06c0.19,0.03,0.57-0.24,0.76-0.36c0.34-0.22,0.6-0.51,0.9-0.79
		c3.08-2.89,6.15-5.8,9.32-8.6c4.93-4.37,9.65-8.99,14.2-13.8c5.53-5.81,9.03-12.87,12.94-19.7c0.48-0.84,0.17-1.3-0.68-1.51
		c-2.61-0.63-4.55-2.13-5.95-4.39c-0.63-1.05-1.23-0.97-1.99-0.02c-1.37,1.7-2.8,3.35-4.13,5.07c-2.06,2.66-4.06,5.38-5.65,8.33
		c-2.99,5.57-5.87,11.17-8.97,16.65c-1.9,3.48-3.79,6.94-5.68,10.41c-0.89,1.6-1.8,3.18-2.75,4.75l-1.48,2.37
		c-0.24,0.38-0.47,0.77-0.74,1.13C238.23,119.66,238.08,119.84,238.13,119.93z M273.27,72.13c0.69,0.4,1.52,1.01,2.45,1.39
		c1.59,0.66,2.07,0.46,2.99-1.13l8.34-14.64c0.5-0.89,0.67-1.59-0.19-2.42c-0.93-0.91-1.7-0.81-2.61-0.05
		c-1.61,1.34-3.16,2.77-4.86,3.98c-2.76,1.97-4.93,4.56-7.35,6.87c-1.64,1.57-1.61,3.03-0.22,4.61
		C272.23,71.16,272.69,71.54,273.27,72.13z M299.82,33.73c-8.45,2.94-12.47,9.14-13.31,17.58c0.39,0.06,0.58-0.19,0.73-0.55
		c0.86-2.08,1.76-4.16,2.57-6.27c0.69-1.81,1.7-3.37,3.2-4.65C295.33,37.86,297.55,35.77,299.82,33.73z M304.11,41.14
		c-3.11,3.54-5.69,7.18-9.03,10.47C300.28,50.6,304.42,46.11,304.11,41.14z M300.32,38.41c-1.9,1.48-3.77,3-4.96,5.15
		c-1.78,3.2-3.97,6.07-6.52,8.67c-0.41,0.42-1.04,0.81-0.36,1.78C293.03,49.23,297.47,44.47,300.32,38.41z M304.49,35.23
		c-3.57,4.76-6.02,9.71-9.8,13.96c0.86,0.13,1.12-0.13,1.36-0.39c3.02-3.18,5.55-6.75,8.26-10.17
		C304.89,37.9,305.13,37.02,304.49,35.23z"/>
	<g>
		<path class="st1" d="M241.84,74.3c4.14-6.74,9.05-14.73,13.96-22.72c1.78-2.95,3.27-6.08,4.74-9.2c0.34-0.71,0.81-1.18,1.32-1.67
			c4.05-3.91,8.18-7.83,12.39-11.56c0.8-0.71,2.4-3.3,3.72-3.18c1.92,0.17,0.42,3.45,0.1,4.28c-1.6,4.26-3.07,8.56-4.2,12.95
			c-0.22,0.87-0.64,1.71-0.5,2.65c0.07,0.48-0.05,0.91-0.37,1.26c-3.29,3.58-5.45,7.93-8.19,11.89c-4.39,6.37-8.5,12.93-12.71,19.42
			l-13.38,20.57c-1.67,2.6-3.12,5.32-4.7,7.98c-1.1,1.85-1.42,1.95-2.45,0.63c-0.98-1.25-2.12-2.3-3.38-3.21
			c-0.78-0.56-1.97-0.75-2.53-1.58c-0.07-0.11-0.13-0.24-0.14-0.4c-0.01-0.42,0.83-1.47,1.08-1.89l1.35-2.29
			C232.48,90.74,236.4,82.95,241.84,74.3z M262.43,43.2c-0.82,0.73-1.18,1.58-1.62,2.37c-4.17,7.56-8.97,14.75-13.4,22.15
			c-1.73,2.88-3.73,5.61-5.44,8.51l-11.94,20.48c-0.6,1.02-1.21,2.04-1.76,3.08c-1.04,1.95-1.01,2.11-0.06,2.66
			c0.84,0.47,1.02,0.32,2.15-1.77c0.52-0.96,0.94-1.99,1.55-2.88c4.38-6.36,8.23-13.07,12.21-19.69c4.08-6.8,8.55-13.31,12.96-19.87
			c2.03-3.02,4.03-6.04,5.82-9.23C264.02,46.99,264.14,45.08,262.43,43.2z M247.87,78.71c5.4-8.22,9.65-14.68,13.89-21.14
			c1.78-2.74,3.41-5.58,5.14-8.36c0.46-0.74,0.2-1.13-0.42-1.52c-0.65-0.4-1.16-0.4-1.5,0.38c-0.62,1.43-1.53,2.67-2.39,3.96
			c-5.07,7.65-10.57,15-15.29,22.89c-3.92,6.55-7.7,13.19-11.94,19.55c-1.62,2.42-3.07,4.93-4.35,7.53
			c-0.37,0.75-0.87,1.65-0.19,1.99c0.7,0.35,0.97-0.76,1.33-1.27C238.02,94.29,243.03,85.29,247.87,78.71z M267.89,50.26
			c-2.61,3.93-5.27,7.83-7.81,11.8c-3.28,5.13-6.59,10.27-10.02,15.28c-4.26,6.23-8.08,12.74-12.44,18.9
			c-1.67,2.37-3.1,4.92-4.59,7.42c-0.43,0.72-1.2,1.82-0.42,2.21c0.76,0.38,1.09-0.92,1.46-1.51c3.31-5.11,6.48-10.31,9.84-15.38
			c3.21-4.85,6.41-9.72,9.53-14.62c4.4-6.9,8.97-13.69,13.27-20.65C267.33,52.73,268.13,51.82,267.89,50.26z M266.76,45.92
			c0.27,0.12,0.82,0.42,1.41,0.62c2,0.7,2.62,0.43,3.38-1.67c0.61-1.7,0.88-3.53,1.62-5.16c0.87-1.92,0.27-3.16-1.14-4.54
			c-1.02-0.99-1.66-0.86-2.48-0.02c-1.21,1.23-2.4,2.48-3.64,3.67C263.49,41.15,263.8,44,266.76,45.92z M274.7,34.92
			c0.61-1.85,1.13-3.45,1.67-5.11c-0.34,0-0.54-0.05-0.7,0.01c-0.82,0.3-1.17,1.1-1.74,1.66C272.42,33.02,272.44,33.04,274.7,34.92z
			"/>
	</g>
</g>
<g>
	<g>
		<path class="st1" d="M262.04,122.18c-2.96,5.45-9.86,10.22-16.16,10.83c-6.2,0.6-11.49-2.39-17.52,0.62
			c-4.32,2.16-8.68,6.86-9.79,11.68c-1.19,5.2,2.72,10.73,6.05,14.33c0.85,0.92,2.23-0.29,1.46-1.28
			c-2.64-3.39-5.92-7.38-5.33-11.88c0.51-3.88,3.15-7.31,6.27-9.63c6.05-4.51,11.68-1.52,18.3-1.97
			c6.91-0.48,14.74-6.05,17.61-12.26C263.18,122.11,262.31,121.69,262.04,122.18L262.04,122.18z"/>
	</g>
	<g>
		<path class="st1" d="M255.11,135.19c-8.11,8.19-25.39,6.19-29.31,18.56c-2.73,8.61,6.69,22.43,16.1,15.78
			c0.67-0.48,0.04-1.51-0.68-1.37c-6.99,1.34-13.75-2.5-13.69-10.34c0.05-6.28,4.45-9.58,9.69-11.72
			c6.56-2.69,13.83-4.65,18.5-10.36C256.02,135.37,255.44,134.86,255.11,135.19L255.11,135.19z"/>
	</g>
	<g>
		<path class="st1" d="M259.34,139.19c-2.87,3.2-4.92,6.91-6.39,10.94c-2.1,5.73-2.48,11.43-6.79,16.13
			c-0.58,0.63,0.03,1.89,0.91,1.37c3.6-2.14,4.79-6.06,5.77-9.93c1.61-6.42,3.48-12.29,7.3-17.8
			C260.48,139.41,259.75,138.73,259.34,139.19L259.34,139.19z"/>
	</g>
	<g>
		<path class="st1" d="M236.5,171.84c8.76,6.49,20,5.4,25.86-3.93c2.81-4.47,2.26-8.85,1.66-13.88c-1.02-8.56,1.51-15.13,8.08-20.89
			c0.6-0.52-0.06-1.59-0.79-1.18c-8.76,4.96-10.3,14.69-9.21,23.8c0.77,6.37-0.72,13.49-6.99,16.76
			c-6.05,3.16-12.32,0.57-18.01-1.94C236.35,170.25,235.89,171.39,236.5,171.84L236.5,171.84z"/>
	</g>
	<g>
		<path class="st1" d="M262.35,122.37c-0.14,3.1,0.44,6.08,0.04,9.23c-0.06,0.45,0.43,0.83,0.85,0.73c2.63-0.59,5.13-0.4,7.64,0.54
			c0.88,0.33,1.34-1.07,0.46-1.4c-2.74-1.01-5.53-1.19-8.38-0.53c0.28,0.24,0.57,0.49,0.85,0.73c0.36-2.95,0.65-6.69-0.6-9.48
			C263.01,121.78,262.37,121.93,262.35,122.37L262.35,122.37z"/>
	</g>
	<g>
		<path class="st1" d="M235.33,149.56c-2.58,1.04-4.64,3.14-5.16,5.94c-0.48,2.57,0.35,5.99,2.69,7.44
			c0.58,0.36,1.09-0.34,0.74-0.85c-1.38-2.06-2.66-3.79-2.2-6.44c0.43-2.45,2.02-4.37,4.27-5.37
			C236.15,150.06,235.8,149.37,235.33,149.56L235.33,149.56z"/>
	</g>
	<g>
		<path class="st1" d="M237.46,165.37c2.82,0.83,6.12,0.02,8.05-2.28c0.47-0.56-0.42-1.28-0.95-0.83c-2.01,1.73-4.24,2.58-6.93,2.18
			C237.09,164.35,236.94,165.21,237.46,165.37L237.46,165.37z"/>
	</g>
	<g>
		<path class="st1" d="M227.68,138.51c-5.13,3.91-6.07,11.21-1.55,16.03c0.7,0.75,1.9-0.28,1.21-1.05
			c-3.87-4.3-3.71-10.59,0.9-14.34C228.66,138.81,228.11,138.18,227.68,138.51L227.68,138.51z"/>
	</g>
</g>
<g>
	<path class="st1" d="M207.16,116.79c-0.33-0.88-1.18-1.51-2.11-1.56c-0.59-0.03-1.1,0.15-1.56,0.31c-0.37,0.13-0.72,0.26-0.94,0.19
		c-0.3-0.08-0.55-0.54-0.82-1.02c-0.4-0.73-0.9-1.63-1.97-1.85c-0.55-0.12-1.11-0.01-1.61,0.32c-0.82,0.54-1.27,1.52-1.43,2.26
		c-0.06,0.29-0.1,0.58-0.14,0.86c-0.06,0.47-0.13,0.92-0.27,1.28c-0.3-0.16-0.61-0.31-0.92-0.45c-2.92-1.29-6.22-1.57-9.8-0.83
		c-4.04,0.84-24.2,13.98-33.25,21.66c-2.15,1.73-3.96,3.73-5.29,5.87c-2.07,3.33-2.97,6.88-2.67,10.54
		c0.3,3.59,1.82,7.18,4.27,10.11c2.45,2.92,5.69,5,9.11,5.84c2.87,0.71,5.85,0.57,8.63-0.26c1.3-0.39,2.55-0.94,3.72-1.62
		c7.66-3.52,25.68-19.46,30.81-25.98c3.42-4.34,4.35-10.34,2.69-15.67c0.56,0.01,1.17-0.02,1.77-0.2c0.15-0.05,0.3-0.1,0.45-0.17
		c1.03-0.47,1.95-1.66,1.62-2.95c-0.25-0.98-1.07-1.52-1.73-1.95c-0.08-0.05-0.16-0.1-0.23-0.15c-0.47-0.32-0.74-0.72-0.68-0.88
		c0.05-0.15,0.36-0.3,0.67-0.45c0.34-0.17,0.74-0.36,1.07-0.68C207.25,118.7,207.49,117.67,207.16,116.79z M158.19,168.64
		c-6.32-1.56-11.51-7.76-12.07-14.41c-0.45-5.41,2.25-10.84,7.3-14.91l0,0c0,0,0.01-0.01,0.01-0.01c0.67-0.53,1.37-1.05,2.12-1.53
		c0.62-0.41,1.31-0.72,2.05-0.94c2.04-0.62,4.48-0.53,7.08,0.28c3.22,1.01,6.32,3.03,8.27,5.4c4.29,5.21,5.05,13.15,1.81,18.88
		c-1.3,2.3-3.19,4.16-5.39,5.47c-0.03,0.02-0.07,0.03-0.1,0.05l0.01,0.01c-1.06,0.62-2.19,1.11-3.36,1.47
		C163.43,169.16,160.76,169.28,158.19,168.64z M199.58,141.38c-3.88,4.92-15.2,15.3-23.62,21.4c0.11-0.17,0.21-0.34,0.31-0.52
		c3.58-6.33,2.75-15.09-1.98-20.83c-2.16-2.62-5.56-4.85-9.09-5.96c-2.11-0.66-4.15-0.89-6.02-0.7
		c10.02-7.49,23.89-16.18,26.77-16.78c6.11-1.27,11.37,0.83,14.41,5.75C203.76,129.23,203.44,136.48,199.58,141.38z M205.37,118.1
		c-0.14,0.14-0.38,0.26-0.64,0.38c-0.55,0.27-1.23,0.61-1.52,1.39c-0.37,1,0.14,2.11,1.34,2.92c0.08,0.06,0.17,0.11,0.25,0.17
		c0.45,0.29,0.91,0.6,1,0.93c0.08,0.31-0.23,0.75-0.66,0.95c-0.57,0.26-1.35,0.23-2.02,0.2l-0.01,0.29
		c-0.35-0.86-0.77-1.69-1.27-2.49c-1.08-1.74-2.45-3.21-4.03-4.33c0.32-0.64,0.42-1.33,0.5-1.97c0.04-0.27,0.07-0.52,0.12-0.75
		c0.1-0.49,0.38-0.96,0.68-1.16c0.14-0.09,0.23-0.09,0.3-0.07c0.29,0.06,0.54,0.52,0.81,1c0.39,0.7,0.87,1.57,1.86,1.85
		c0.75,0.21,1.44-0.03,1.99-0.23c0.33-0.12,0.64-0.23,0.89-0.22c0.25,0.01,0.5,0.2,0.59,0.43
		C205.62,117.62,205.55,117.93,205.37,118.1z"/>
	<path class="st1" d="M156.53,143.7c-0.07-0.06-0.14-0.11-0.22-0.14c-0.32-0.13-0.8-0.08-1.01,0.24c-0.04,0.06-0.08,0.13-0.12,0.19
		c-0.37,0.37-0.52,0.97-0.34,1.46c0.07,0.18,0.18,0.34,0.32,0.48c0.29,0.36,0.74,0.58,1.22,0.54c0.68-0.06,1.16-0.6,1.25-1.25
		c0.05-0.36-0.05-0.72-0.27-1.01C157.14,143.92,156.85,143.77,156.53,143.7z"/>
	<path class="st1" d="M153.12,154.8c0.09-0.05,0.18-0.12,0.26-0.21c0,0,0,0,0,0c0,0,0.01-0.01,0.01-0.01
		c0.06-0.07,0.11-0.16,0.14-0.25c0.05-0.13,0.07-0.26,0.06-0.4c0-0.02-0.01-0.04-0.01-0.07c0-0.02,0-0.04,0-0.06
		c0.01-0.04,0.02-0.08,0.03-0.11c0.03-0.24-0.03-0.43-0.15-0.64c-0.01-0.01-0.01-0.02-0.02-0.04c-0.05-0.06-0.11-0.11-0.16-0.17
		c-0.09-0.08-0.19-0.13-0.31-0.15c-0.18-0.05-0.38-0.06-0.55,0.01c-0.08,0.03-0.15,0.08-0.21,0.12c-0.17,0.09-0.32,0.23-0.39,0.41
		c-0.02,0.07-0.04,0.14-0.06,0.22c-0.02,0.15-0.01,0.3,0.04,0.44c0.02,0.1,0.05,0.2,0.07,0.3c0.07,0.28,0.24,0.52,0.52,0.63
		C152.63,154.93,152.88,154.93,153.12,154.8z"/>
	<path class="st1" d="M164.69,148.66c0.12,0.17,0.27,0.29,0.46,0.37c0.09,0.03,0.18,0.05,0.28,0.08c0.19,0.03,0.38,0.01,0.56-0.06
		c0.14-0.05,0.26-0.13,0.36-0.24c0.12-0.09,0.21-0.21,0.26-0.35c0.06-0.13,0.09-0.27,0.08-0.42c0.02-0.14,0-0.28-0.06-0.42
		c-0.04-0.08-0.09-0.17-0.13-0.25c-0.12-0.17-0.27-0.29-0.46-0.37c-0.09-0.03-0.18-0.05-0.28-0.08c-0.19-0.03-0.38-0.01-0.56,0.06
		c-0.14,0.05-0.26,0.13-0.36,0.24c-0.12,0.09-0.21,0.21-0.26,0.36c-0.06,0.13-0.09,0.27-0.08,0.42c-0.02,0.14,0,0.28,0.06,0.42
		C164.61,148.49,164.65,148.58,164.69,148.66z"/>
	<path class="st1" d="M158.82,158.44c-1.38,0.42-0.59,2.5,0.78,2.09C160.98,160.12,160.18,158.03,158.82,158.44z"/>
	<path class="st1" d="M168.24,161.09c0.16-0.05,0.29-0.14,0.4-0.26c0.13-0.1,0.23-0.23,0.29-0.39c0.07-0.15,0.1-0.3,0.09-0.46
		c0.02-0.16,0-0.31-0.07-0.46c-0.05-0.09-0.1-0.19-0.15-0.28c-0.13-0.18-0.3-0.32-0.5-0.41c-0.1-0.03-0.2-0.06-0.3-0.09
		c-0.21-0.03-0.42-0.01-0.62,0.06c-0.16,0.05-0.29,0.14-0.4,0.26c-0.13,0.1-0.23,0.23-0.29,0.39c-0.07,0.15-0.1,0.3-0.09,0.46
		c-0.02,0.16,0,0.31,0.07,0.46c0.05,0.09,0.1,0.19,0.15,0.28c0.13,0.18,0.3,0.32,0.5,0.41c0.1,0.03,0.2,0.06,0.3,0.09
		C167.84,161.19,168.04,161.17,168.24,161.09z"/>
	<path class="st1" d="M172.9,154.2c1.53-0.46,0.65-2.77-0.86-2.31C170.51,152.35,171.39,154.66,172.9,154.2z"/>
	<path class="st1" d="M166.98,141.97c1.07-0.32,0.46-1.94-0.6-1.62C165.31,140.67,165.92,142.29,166.98,141.97z"/>
	<path class="st1" d="M155.28,159.75c-1.28,0.39-0.55,2.32,0.72,1.94C157.28,161.3,156.55,159.37,155.28,159.75z"/>
	<path class="st1" d="M178.6,133.04c-1.17-2.68-4.91-3.64-7.55-3.57c-0.63,0.02-0.66,1.06-0.03,1.11c1.33,0.09,2.63,0.43,3.84,1
		c1.14,0.54,2.08,1.41,3.21,1.97C178.37,133.7,178.74,133.36,178.6,133.04z"/>
	<path class="st1" d="M179.31,123.53c0.95,0.25,1.81,0.77,2.56,1.4c0.67,0.57,1.15,1.39,1.9,1.85c0.38,0.23,0.89,0.03,0.86-0.46
		c-0.14-2.3-3.28-3.45-5.19-3.64C178.88,122.62,178.78,123.39,179.31,123.53z"/>
	<path class="st1" d="M188.27,122.12c0.69,0.49,1.57,1.44,2.48,1.31c0.25-0.04,0.53-0.24,0.55-0.52c0.07-1.15-1.18-1.88-2.05-2.38
		c-1.07-0.62-2.17-0.93-3.38-1.11c-0.63-0.09-0.88,0.78-0.31,1.06C186.49,120.94,187.41,121.52,188.27,122.12z"/>
	<path class="st1" d="M198.68,128.08c0.09,0.66,0.07,1.28,0.08,1.95c0.01,0.54,0.14,1.01,0.06,1.56c-0.17,1.18-0.64,2.12-1.2,3.14
		c-1.19,2.16-2.86,3.96-4.6,5.69c-1.74,1.72-3.41,3.52-5.17,5.22c-0.88,0.85-1.77,1.68-2.67,2.52c-0.76,0.71-1.89,1.62-1.99,2.72
		c-0.03,0.29,0.16,0.66,0.5,0.68c1.15,0.06,2.19-0.88,3.01-1.61c1.02-0.91,2-1.86,2.96-2.83c1.94-1.95,3.85-3.96,5.43-6.22
		c1.34-1.91,2.81-3.97,3.41-6.25c0.3-1.16,0.47-2.34,0.74-3.5c0.27-1.14,0.2-2.01-0.08-3.16
		C199.08,127.7,198.64,127.8,198.68,128.08z"/>
</g>
<g>
	<g>
		<path class="st1" d="M109.46,432.17c6.07-0.88,12.73-3.49,16.8-8.28c0.53-0.63-0.22-1.51-0.89-0.96
			c-4.97,4.16-9.59,7.24-16.12,8.34C108.67,431.37,108.88,432.25,109.46,432.17L109.46,432.17z"/>
	</g>
	<g>
		<path class="st1" d="M108.95,431.12c-4.11,5.1,1.12,11.32,6.69,11.66c7.96,0.47,15.31-7.75,17.65-14.66
			c0.23-0.69-0.84-1.23-1.18-0.55c-2.2,4.4-4.99,8.5-9.13,11.31c-2.5,1.7-5.48,2.79-8.52,2.09c-4.37-0.99-6.68-5.13-4.57-9.24
			C110.22,431.07,109.4,430.56,108.95,431.12L108.95,431.12z"/>
	</g>
	<g>
		<path class="st1" d="M126.15,422.92c1.71-2.42-1.29-4.94-3.61-4.98c-2.89-0.04-4.8,2.7-4.26,5.42c0.18,0.9,1.58,0.58,1.4-0.33
			c-0.32-1.62,0.62-3.32,2.31-3.65c1.42-0.28,4.24,1.05,3.12,2.86C124.67,422.94,125.69,423.58,126.15,422.92L126.15,422.92z"/>
	</g>
	<g>
		<path class="st1" d="M132.24,428.56c1.35-1.3,3.08-2.63,4.97-1.37c2.08,1.38,1.17,4.09-1.24,4.14c-0.74,0.02-0.98,1.08-0.23,1.32
			c3.19,1,5.12-3.22,3.39-5.57c-1.93-2.64-6.33-2.17-7.79,0.74C131.06,428.37,131.73,429.06,132.24,428.56L132.24,428.56z"/>
	</g>
	<g>
		<path class="st1" d="M134.13,432.15c0.32,8.96,13.57,7.28,17.85,2.47c7.48-8.42,0.37-18.26-7.73-22.48
			c-0.89-0.46-1.74,0.82-0.85,1.33c5.07,2.87,10.4,7.31,9.88,13.79c-0.32,4.09-3.02,7.54-6.78,9.02
			c-3.86,1.51-10.42,0.96-11.12-4.23C135.29,431.32,134.11,431.43,134.13,432.15L134.13,432.15z"/>
	</g>
	<g>
		<path class="st1" d="M144.77,412.32c-7.6-5.38-17.71-9.11-26.25-3.35c-6.61,4.45-8.15,13.4,0.93,15.79
			c0.95,0.25,1.42-1.21,0.46-1.46c-5.92-1.56-6.67-7.59-2.64-11.47c2.51-2.41,5.75-3.8,9.18-4.05c7.01-0.52,11.76,2.42,17.66,5.57
			C144.81,413.71,145.42,412.77,144.77,412.32L144.77,412.32z"/>
	</g>
	<g>
		<path class="st1" d="M118.63,424.04c1.04,0.81,2.25,1.42,3.39,2.09c0.72,0.42,1.42-0.68,0.7-1.09c-1.19-0.68-2.36-1.44-3.63-1.96
			C118.49,422.83,118.19,423.69,118.63,424.04L118.63,424.04z"/>
	</g>
	<g>
		<path class="st1" d="M131.24,431.16c0.68,0.5,1.39,0.9,2.13,1.31c0.64,0.36,1.23,0.78,1.98,0.84c0.45,0.04,0.62-0.51,0.38-0.82
			c-0.48-0.61-1.26-0.9-1.94-1.26c-0.69-0.37-1.38-0.72-2.11-1C131.1,430.02,130.79,430.83,131.24,431.16L131.24,431.16z"/>
	</g>
	<g>
		<path class="st1" d="M128.89,434.34c2.74,1.9,6.87,3.66,10.26,3.36c0.54-0.05,0.78-0.82,0.18-1c-1.56-0.48-3.21-0.6-4.78-1.08
			c-1.78-0.55-3.39-1.37-5.05-2.22C128.86,433.06,128.28,433.92,128.89,434.34L128.89,434.34z"/>
	</g>
	<g>
		<path class="st1" d="M113.48,418.8c0.4,3.86,2.17,7.81,5.79,9.65c0.78,0.4,1.53-0.69,0.75-1.17c-3.3-2.03-4.87-4.95-5.58-8.7
			C114.32,417.94,113.41,418.19,113.48,418.8L113.48,418.8z"/>
	</g>
	<g>
		<path class="st1" d="M108.18,431.88c2.67,4.43,7.68,7.33,12.59,8.55c0.78,0.19,1.16-1,0.38-1.19c-5.19-1.28-8.64-4.08-12.18-7.92
			C108.61,430.91,107.89,431.39,108.18,431.88L108.18,431.88z"/>
	</g>
	<g>
		<path class="st1" d="M124.28,415.49c0.11,0.17,0.21,0.33,0.32,0.5c0.26,0.4,0.74,0.6,1.19,0.36c0.39-0.21,0.62-0.79,0.36-1.19
			c-0.11-0.17-0.21-0.33-0.32-0.5c-0.26-0.4-0.74-0.6-1.19-0.36C124.25,414.52,124.02,415.09,124.28,415.49L124.28,415.49z"/>
	</g>
	<g>
		<path class="st1" d="M130.31,414.45c-0.17,0.47-0.32,0.91-0.3,1.43c0.02,0.41,0.26,0.78,0.69,0.85c0.39,0.06,0.83-0.15,0.94-0.56
			c0.16-0.57,0.1-1.08,0.03-1.66C131.59,413.78,130.52,413.85,130.31,414.45L130.31,414.45z"/>
	</g>
	<g>
		<path class="st1" d="M134.82,418.32c0.46-0.24,1.03-0.47,1.28-0.95c0.25-0.47,0.02-1.3-0.65-1.24c-0.67,0.06-1.08,0.44-1.58,0.86
			C133.15,417.6,134,418.75,134.82,418.32L134.82,418.32z"/>
	</g>
	<g>
		<path class="st1" d="M137.7,420.88c0.57,0.05,1.15,0.05,1.73,0c0.5-0.04,0.94-0.34,0.96-0.89c0.02-0.48-0.39-0.96-0.89-0.96
			c-0.65,0-1.32,0.06-1.96,0.18C136.57,419.4,136.79,420.8,137.7,420.88L137.7,420.88z"/>
	</g>
	<g>
		<path class="st1" d="M142.03,424.59c0.4-0.22,0.82,0.08,1.19,0.25c0.79,0.37,1.54-0.29,1.21-1.12c-0.54-1.35-2.37-1.18-3.31-0.42
			C140.41,423.87,141.25,425.02,142.03,424.59L142.03,424.59z"/>
	</g>
	<g>
		<path class="st1" d="M142.41,428.03c0.36,0.32,0.64,0.59,1.07,0.83c1.07,0.6,2.08-0.95,1.03-1.61c-0.41-0.26-0.79-0.4-1.24-0.56
			C142.52,426.42,141.78,427.48,142.41,428.03L142.41,428.03z"/>
	</g>
	<g>
		<path class="st1" d="M140.06,431.58c-0.03,0.09-0.06,0.18-0.08,0.27c-0.32,1.02,1.33,1.37,1.47,0.26
			c0.01-0.09,0.02-0.18,0.04-0.27C141.58,431.01,140.29,430.82,140.06,431.58L140.06,431.58z"/>
	</g>
</g>
<g>
	<path class="st0" d="M105.57,181.28c-0.02,0.03-0.04,0.06-0.06,0.1c-3.3-6.49-11-15.05-14.28-17.76c-0.85-0.31-1.76,0.03-2.04,0.76
		c-0.28,0.74,0.18,1.59,1.02,1.9c10.29,8.69,10.51,11.71,16.65,20.6c0.19-0.13,0.18-0.17,0.19-0.41c0.03-0.85-0.2-1.87-0.61-2.99
		c0.69,0.24,1.46,0.07,1.86-0.47c2.82-4.63,6.78-8.16,12.73-9.76c0.67-0.18,1.1-0.27,1.5-0.32c-0.81,1.41-1.57,3.37,1.16,3.04
		c9.82-1.22,14.17,2.22,14.77,2.19l0.1-0.02c-0.06-0.11-0.02-0.07-0.11-0.15l0.02,0.01l-1.43-1.18c-4.81-3.21-10.17-2.37-12.98-2.47
		c1.24-1.91,3.71-4.86-3.86-3.21C113.77,172.57,108.85,176.39,105.57,181.28z"/>
	<path class="st0" d="M99.53,187.43c0.89,0.06,1.61-0.53,1.61-1.33c0-0.21-0.05-0.4-0.14-0.58c0.18,0.19,0.36,0.37,0.54,0.56
		c0.77,0.46,1.76,0.32,2.22-0.33c0.46-0.65,0.21-1.56-0.56-2.02c-7.66-8.37-11.05-10.53-19.78-17.36c2.61,0.7,4.52-0.16,5.98-2.36
		c3.64-5.48-13.1-0.53-7.33,3.67c7.94,5.77,12.04,10.69,18.22,17.12c-0.23-0.13-0.49-0.22-0.78-0.24
		c-8.81,0.37-15.66,16.09-12.91,22.85C87.22,201.66,92.46,187.31,99.53,187.43z M88.45,162.76L88.45,162.76l0.01,0.03
		C88.45,162.78,88.45,162.78,88.45,162.76z M83.17,166.15c-0.99-0.78,3.1-3.72,5.29-3.34c0.1,0.95-2.3,3.61-4.89,3.33
		c-0.1-0.01-0.27-0.01-0.35,0.05L83.17,166.15z"/>
	<path class="st0" d="M102.89,222.1c0.75,0.53,2.21,1.48,3.59,2.23c0.73,1.07,1.4,2.17,2.57,2.92c9.24,5.91,9.5,4.59,8.43,2.47
		c3.73,2.46,9.43,5.8,10.14,3.61c1.61,0.76,3.29,1.54,3.98,2.15c0.6,0.63,1.62,0.75,2.28,0.26c0.56-0.41,0.67-1.13,0.33-1.72
		c2.75-1.81,7.09-4.8,7.09-8.27c0.47,0.15,0.95,0.08,1.34-0.36c2.84-3.23,2.35-9.84,2.3-14.36c4.95,2.12,2.23-5.63,1.52-9.41
		c0.49,0.23,0.97,0.43,1.58,0.33c4.41-0.72-4.08-10.16-6.52-12.78c8.27-0.3,0.17-5.16-1.88-7.65c0.35-0.23,0.81-0.47,1.08-0.62
		c0.73-0.41,0.9-1.3,0.38-1.99c-0.52-0.69-1.53-0.91-2.26-0.5c-1.07,0.63-1.75,1.2-2.16,1.73c-9.74-1.76-23.01,7.49-26,10.98
		c-1.14-1.19-2.29-2.38-3.42-3.58c-0.58-0.65-1.61-0.79-2.28-0.32c-0.68,0.47-0.75,1.38-0.17,2.03c0.23,0.23,0.46,0.45,0.68,0.68
		c-0.42-0.16-0.9-0.17-1.32,0.01c-5.87,4.11-10.12,7.53-12.04,14.47c-0.49,1.78-0.87,4.3-0.08,6.19c0.25-0.12,0.26-0.15,0.31-0.42
		c1.47-8.67,5.47-12.76,13.41-17.61c0.67-0.29,0.96-0.97,0.75-1.62c1.95,1.92,3.83,3.75,5.64,5.52c-0.16-0.12-0.35-0.22-0.56-0.28
		c-0.86-0.26-1.75,0.13-1.97,0.89c-2.13,8.11-4.76,18.44-0.63,26.92c-0.18-0.1-0.34-0.18-0.49-0.24
		c-4.31-4.14-5.68-1.21-10.83-10.32c-2.31-4.09-3.38-0.93-3.59,2.01c-2.84-3.33-3.61-6.2-3.35-10.53c-0.02-0.8-0.76-1.48-1.66-1.53
		c-0.89-0.04-1.6,0.56-1.58,1.36c-0.15,6.05,1.53,9.39,6.62,14.31c1.53,1.48,3.07,0.9,2.4-1.94c-0.05-0.22,0.04-0.74,0.14-1.41
		C97.8,217.63,97.32,218.13,102.89,222.1z M108.15,225.14c0.37,0.15,0.69,0.26,0.95,0.29c2.51,1.86,3.03,2.64,5.68,3.42
		c0.07,0.11,0.15,0.22,0.23,0.33C111.43,227.92,109.62,226.35,108.15,225.14z M136.06,182.87c0.34,0.12,0.69,0.13,1,0.06
		c1.1,1.13,3.04,2.24,4.31,3.68c-9.01,0.57,2.2,6.24,4.81,12.7c-2.51-0.49-2.47,0.86-1.94,3.1c-0.03-0.02-0.05-0.05-0.08-0.07
		c-7.14-4.5-21.38-12.48-29.59-8.42c10.58-0.42,19.24,4.7,27.72,10.63c0.73,0.51,1.74,0.44,2.25-0.18c0.05-0.07,0.1-0.13,0.14-0.2
		c0.37,1.52,0.74,3.27,0.71,5.07c-2.78-1.23-3.03,0.09-2.56,4.63c0.47,4.53,0.81,3.78-0.72,9.01c-0.11,0.39-0.33,1.09-0.59,1.53
		c-0.24-0.15-0.45-0.29-0.65-0.5l0.03,0.04l-1.18,0.49l0,0.01l0,0l0,0c1.7,3.31-3.82,7.57-5.63,9.37c-0.04-0.05-0.07-0.1-0.11-0.15
		c-1.04-0.86-7.81-4.81-9.2-3.68c-0.43,0.35-0.48,0.73-0.39,1.12c-0.38-0.18-0.8-0.4-1.25-0.65c0.95-7.78-0.38-9.31,3.84-16.14
		c0.02-0.04,0.03-0.08,0.05-0.11c2.42,4.24,4.24,8.98,5.32,14.7l0.56,3.3c0.6-7.48-1.34-13.96-4.72-19.93
		c5.47,1.92,9.14,3.54,13.54,7.7c0.22,0.2,0.36,0.21,0.6,0.1c-4.03-6.43-7.75-7.94-15.41-11.26c-0.31-0.1-0.63-0.12-0.92-0.06
		c-4.07-6.02-9.46-11.6-14.94-17.29C113.88,188.59,130.22,181.39,136.06,182.87z M112.77,198.02c0.13-0.43,0.01-0.88-0.27-1.24
		c5.22,5.14,9.78,9.88,13.31,15.4c-0.67-0.14-1.35,0.09-1.68,0.63c-3.87,7.85-2.96,8.82-1.12,17.59c-4.06-2.32-10.15-6.87-9.23-3.37
		c0.05,0.19,0.17,0.44,0.34,0.74l-0.16-0.08c-0.33-0.18-2.57-2.16-4.23-3.27C108.16,211.7,108.86,209.89,112.77,198.02z"/>
</g>
<g>
	<path class="st1" d="M233.14,294.71c-0.02,0.06-1.72,6.11-6.04,8.76c-2.2,1.35-6.02,0.15-7.31-0.43c-0.25-0.11-0.55-0.08-0.77,0.09
		c-0.22,0.17-0.34,0.45-0.3,0.72c0.25,1.76,0.52,6.75-1.26,8.7c-0.54,0.59-1.23,0.86-2.11,0.81c-4.15-0.21-6.08-8.98-6.47-12.34
		c-0.03-0.23-0.16-0.43-0.35-0.56c-0.19-0.12-0.44-0.15-0.65-0.08c-0.06,0.02-5.86,1.96-8.34,1.76c-5.21-0.43-9.22-3.29-9.26-3.32
		c-0.29-0.21-0.68-0.19-0.95,0.04c-0.27,0.23-0.34,0.61-0.18,0.93c0.02,0.04,1.99,3.97,2.23,9.48c0.13,2.93-2.94,6.5-2.97,6.53
		c-0.13,0.15-0.23,0.36-0.19,0.56c0.01,0.2,0.11,0.39,0.26,0.53c3.4,2.91,8.79,8.44,8.76,10.88c0,0.3-0.09,0.51-0.3,0.68
		c-2.8,2.3-8.11-1.05-8.16-1.08c-0.25-0.16-0.57-0.16-0.82-0.01c-0.25,0.16-0.38,0.44-0.36,0.73c0.14,1.28,0.26,4.96-0.91,6.65
		c-1.52,2.19-8.77,8.3-8.84,8.37c-0.19,0.16-0.28,0.39-0.27,0.63c0,0.06,0.01,0.12,0.03,0.18c0.09,0.29,0.35,0.5,0.66,0.54
		c0.1,0.01,10.37,1.1,12.52,7.35c0.77,2.22-0.73,6.57-1.38,8.06c-0.12,0.27-0.07,0.59,0.13,0.81c0.2,0.22,0.51,0.31,0.8,0.22
		c0.06-0.02,6.15-1.85,11.7,0.63c6.01,2.68,8.59,8.11,8.62,8.17c0.11,0.23,0.32,0.39,0.58,0.43c0.25,0.04,0.51-0.05,0.68-0.24
		c0.06-0.06,5.62-6.08,9.23-8.08c2.65-1.47,7.14,2.35,8.65,3.94c0.17,0.19,0.43,0.27,0.68,0.23c0.25-0.04,0.47-0.21,0.57-0.44
		c0.04-0.08,3.73-8.18,7.67-12.97c10.06,6.91,16.17,21.32,14.56,28.95c-0.12,0.56,0.07,1.06,0.49,1.33c1.32,0.85,4.63-1.04,4.9-1.24
		c0.49-0.36,0.46-0.76,0.4-0.96c-0.02-0.07-0.05-0.13-0.08-0.19c-3.97-17.55-14.03-27.6-17.9-30.18c5.32-3.79,14.16-5.89,14.25-5.91
		c0.31-0.07,0.54-0.33,0.58-0.65c0.04-0.32-0.12-0.63-0.4-0.77c-0.08-0.04-8.32-4.46-9.61-11.65c-1.25-6.97,4.26-15.18,4.31-15.27
		c0.17-0.25,0.18-0.59,0.01-0.85c-0.17-0.26-0.47-0.39-0.78-0.34c-3.21,0.57-11.9,1.12-13.5-3.05c-2.09-5.46-1.34-16.72-1.34-16.83
		c0.02-0.4-0.25-0.74-0.64-0.81C233.62,294.09,233.24,294.33,233.14,294.71z M232.97,299.07c-0.03,3.91-0.25,10.72,1.13,14.33
		c1.88,4.92,10.46,3.56,14,3.17c-1.6,2.77-5.75,9.22-4.7,15.07c1.07,5.95,7.19,9.94,9.83,11.7c-3.18,0.9-9.9,3.07-14.02,6.45
		c-0.22,0.18-0.32,0.47-0.27,0.74c0.05,0.28-1.14,1.22-0.87,1.31c2.06,0.63,15.05,9.98,19.37,28.75c-0.65,0.36-1.96,0.89-2.62,0.96
		c1.71-9.22-6.04-24.27-15.84-30.63c-0.32-0.21-0.74-0.15-0.99,0.14c-3.45,3.96-6.7,10.41-7.88,12.87
		c-1.81-1.68-6.69-6.56-10.07-4.69c-3.05,1.7-6.85,7.1-8.52,8.84c-1.07-1.81-3.21-6.74-8.23-8.98c-4.43-1.98-9.66-0.45-11.95-0.01
		c0.54-1.54,2.54-5.79,1.83-8.57c-1.44-5.69-9.81-6.7-13.07-7.32c2.21-1.91,7.25-5.26,8.49-7.05c1.18-1.71,0.66-5.08,0.62-6.79
		c2.02,1,6,2.49,8.69,0.28c0.55-0.45,0.85-1.09,0.86-1.85c0.02-3.5-6.6-9.68-8.74-11.56c0.96-1.25,3.57-3.9,3.45-6.67
		c-0.14-3.38-1.47-6.49-2.09-8.27c1.8,0.94,5.1,3.18,8.46,3.46c2.19,0.18,5.83-2.06,7.63-2.62c0.48,3.05,2.71,13.89,8.1,14.16
		c1.35,0.07,2.37-0.83,3.23-1.77c1.98-2.17,1.71-7.48,1.55-9.63c1.78,0.58,5.47,1.96,7.87,0.49
		C230.59,303.93,231.91,301.05,232.97,299.07z"/>
	<path class="st1" d="M230.95,344.4c-0.01-0.03-0.02-0.06-0.02-0.09c-0.02-0.23-0.04-0.46-0.05-0.69c-0.23-4.11,0.71-8.24,2.8-12.27
		c0.15-0.3,0.32-0.63,0.5-0.99c1.22-2.45,2.89-5.81,5.13-6.92c0.38-0.19,0.84-0.03,1.03,0.35c0.19,0.38,0.03,0.84-0.35,1.03
		c-1.77,0.88-3.37,4.1-4.43,6.23c-0.18,0.37-0.35,0.71-0.51,1.01c-2.07,3.99-2.33,9.9-1.98,13.95c0.06,0.41-0.88-1.04-1.3-1
		c3.93,2.87,8.08,5.08,8.16,5.13c0.36,0.22,0.48,0.69,0.27,1.05c-0.22,0.36-1.21,1.09-1.57,0.88c-0.28-0.17-29.42-16.02-44.06-45.68
		c-0.05-0.11-0.09-0.21-0.09-0.32c-0.02-0.29,0.13-0.57,0.4-0.72c0.37-0.2,0.84-0.06,1.04,0.31
		C205.89,324.02,221.71,337.54,230.95,344.4z"/>
	<path class="st1" d="M224.48,312c0.19,0.38,0.03,0.84-0.35,1.03c-1.33,0.66-2.56,3.14-3.38,4.78c-0.14,0.29-0.28,0.55-0.4,0.79
		c-1.6,3.08-2.26,6.24-1.99,9.35c0.05,0.43-0.27,0.79-0.7,0.83c-0.42,0.04-0.79-0.27-0.83-0.7c-0.02-0.18-0.03-0.36-0.04-0.54
		c-0.18-3.23,0.56-6.48,2.2-9.64c0.12-0.23,0.25-0.49,0.39-0.77c0.96-1.93,2.28-4.58,4.07-5.47
		C223.84,311.46,224.3,311.62,224.48,312z"/>
	<path class="st1" d="M221.67,338.01c-0.08,0.41,1.55,1.31,1.14,1.23c-3.99-0.8-10.17-1.01-14.37,0.61
		c-0.32,0.12-0.67,0.25-1.06,0.39c-2.24,0.82-5.61,2.06-6.68,3.72c-0.23,0.36-0.7,0.46-1.06,0.23c-0.21-0.14-0.34-0.37-0.35-0.6
		c-0.01-0.16,0.03-0.31,0.12-0.46c1.34-2.1,4.87-3.39,7.44-4.33c0.38-0.14,0.73-0.27,1.04-0.39c4.47-1.72,8.91-2.16,13.18-1.3
		C221.49,337.19,221.76,337.59,221.67,338.01z"/>
</g>
</svg>
