<?xml version="1.0" encoding="utf-8"?>
<!-- Generator: Adobe Illustrator 27.5.0, SVG Export Plug-In . SVG Version: 6.00 Build 0)  -->
<svg version="1.1" id="Layer_1" xmlns="http://www.w3.org/2000/svg" xmlns:xlink="http://www.w3.org/1999/xlink" x="0px" y="0px"
	 viewBox="0 0 182.28 254.3" style="enable-background:new 0 0 182.28 254.3;" xml:space="preserve">
<style type="text/css">
	.st0{fill:#F3F3F3;}
</style>
<g>
	<path class="st0" d="M152.99,111.74c2.67-3.6,5.09-7.65,8.02-10.8c3.81-4.04,8.04-8.67,14.26-6.36c5.31,1.95,6.22,8.02,6.93,13.15
		c0.39,2.64-0.6,5.82-1.75,8.26c-5.6,11.93-14.4,19.25-26.17,22.48c-2.55,0.7-5.48,2.18-6.93,4.33c-6.44,9.57-7.12,21.57-10.28,32.5
		c3.29-1.84,5.54-4.64,8.37-6.46c5.86-3.77,11.79-7.66,18.11-10.46c5.29-2.35,8.49,0.17,8.87,6.52c0.19,3.25-0.57,7.49-2.44,9.63
		c-5.32,6.11-11.16,11.89-19.98,11.01c-8.76-0.84-14.52,6.77-22.34,8.73c-0.61,0.15-1.03,1.41-1.44,2.21
		c-5.89,11.61-13.45,21.56-22.37,30.39c-8.03,7.9-15.4,16.78-23.18,24.75c-1.2,1.22-3.04,1.83-4.59,2.71
		c3.65-6.1,8.18-11.16,12.76-16.26c2.33-2.59,4.7-5.18,7.18-7.67c10.16-10.59,20.28-21.58,27.45-35.34
		c3.7-6.94,5.22-10.69-3.61-16.53c-7.39-4.84-9.92-13.17-12.42-21.13c-1.32-4.41,1.01-7.49,4.69-9.42c3.49-1.84,6.77-1.27,9.33,2.21
		c1.46,1.94,2.68,3.96,3.87,6.05c2.39,4.5,4.77,8.97,7.31,13.74c5.3-3.63,4.59-9.51,6-14.26c3.72-12.34,1.5-16.83-8.77-23.97
		c-4.2-2.88-8.72-5.33-12.44-8.69c-3.5-3.1-6.61-6.87-8.95-10.95c-4.04-7.22-0.05-13.36,8-12.95c2.4,0.13,4.78,1.09,8.28,1.98
		c-1.56-3.32-2.69-5.44-3.6-7.65c-1.77-4.28-3.85-8.48-5.02-12.91c-1.68-6.76,0.13-13,3.52-18.33c3.06-4.85,8.18-3.04,12.84-1.75
		c1.29,0.36,2.69,0.17,3.71,0.22c8.99,15.87,15.56,32.21,14.88,50.41L152.99,111.74z M144.55,90.86
		c-1.69-8.31-5.14-16.4-10.81-22.62c-2.12-2.21-5.69-4.25-8.27-3.98c-1.87,0.2-4.26,4.06-4.54,6.59c-0.54,4.41-1.1,9.71,0.6,13.55
		c5.18,12.22,12.89,23.1,23.32,33.66C148.28,108.2,146.28,99.31,144.55,90.86z M174.93,117.13c0.77-1.33,1.59-2.65,2.14-4.12
		c1.59-4.25,0.69-10.51-1.76-12.8c-2.61-2.35-7.69-1.76-10.9,2.16c-3.44,4.11-6.76,8.6-9.23,13.44c-2.73,5.33-4.42,11.29-7.01,17.94
		C160.69,132.96,169.03,127.31,174.93,117.13z M120.48,104.33c-2.29-0.97-6.14-0.78-7.86,0.68c-3.01,2.54-1.16,6.26,1.14,8.77
		c5.46,6.31,12.16,10.94,21.14,16.03C133.49,117.5,130.43,108.44,120.48,104.33z M139.61,179.71c10.74,2.67,19.39,1.23,26.3-7.26
		c2.58-3.16,3.57-6.27,0.22-10.92C154.85,163.69,147.52,171.53,139.61,179.71z M120.43,155.96c-0.94-1.63-3.94-3.2-5.56-2.81
		c-3.26,0.8-2.72,4.15-2.01,6.74c2.36,8.65,6.78,15.55,16.43,19.8C128.91,169.72,124.4,162.82,120.43,155.96z"/>
	<path class="st0" d="M13.32,18.08c-2.58-1.47-4.59-4.03-4.1-7.29c0.53-3.7,3.5-5.46,7-6.27C22.62,3,28.94,2.64,35.2,5.09
		c8.56,3.35,16.02,8.19,23.09,13.49c2.86,2.15,5.29,4.08,7.73-0.52c0.99-1.86,2.98-3.32,5.11-3.84c4.35-1.06,5.47-2.82,2.84-6.71
		c-1.34-1.99-1.84-4.7,0.8-6.48c3.09-2.09,5.69-0.66,8.29,1.21c2.5,1.81,2.25,5.25,4.68,7.47c2.03-3.51,2.42-8.63,7.36-7.99
		c2.87,0.38,6.66,1.27,8.16,4.49c2.08,4.4-2.8,5.66-4.64,8.28c7.53,10.95,7.7,22.03-5.71,26.45c-5.88,1.94-8.3,5.39-9.86,10.9
		c-3.61,12.92-9.79,23.37-20.82,31.11c-6.01,4.1-12.9,3.1-15.94-2.59c-3.8-7.13-1.14-15.16-3.71-22.52
		c-0.92-2.6,4.13-2.93,3.92-6.06c-0.05-0.65-0.19-1.06-0.8-1.2c-0.25,0.01-0.55-0.07-0.75,0.04c-0.68,0.4-1.38,0.79-1.96,1.31
		c-5.56,5.01-11.46,7.15-17.66,7.62c-6.15,0.67-12.56-0.24-19.12-1.69c-5.01-1.1-6.8-3.51-6.06-7.89
		c1.39-8.18,4.66-15.49,13.08-19.33c4.2-2.01,8.61-3.37,14.11-5.46C22.07,22.52,17.51,20.54,13.32,18.08z M13.94,35.66
		c-0.69,0.43-1.36,0.93-1.91,1.51c-3.97,4.2-8.63,9.08-6.72,14.6c1.73,5,8.32,3.53,12.81,3.81c6.09,0.26,12.12-0.73,17.33-4.45
		c4.53-3.19,9.39-6.01,13.37-10.03c3.01-3.04,5.63-6.36,7.17-11.16C41.38,29.05,26.93,27.83,13.94,35.66z M92.64,35.63
		c6.2-3.35,7.85-8.7,4.36-14.74c-3.1-5.38-10.88-7.31-16.81-4.27c-1.44,0.74-2.98,1.3-4.5,1.85c-7.02,2.53-8.82,8.7-4.11,14.26
		c3.57,4.22,7.8,6.61,13.07,3.88C87.8,37.91,90.23,36.94,92.64,35.63z M22.2,8.33l-3.32,0.4c-2.06,0.28-3.99,1.16-4.56,3.03
		c-0.65,2.14,1.28,3.58,2.94,4.31c7.94,3.49,15.33,8.38,24.54,7.66c4.32-0.33,8.63,0.79,14.97-0.83C45.44,15.55,36.63,6.2,22.2,8.33
		z M66.05,52.55c4.22-1.3,8.29-3.23,12.22-5.31c2.43-1.28,2.41-3.64-0.3-4.62c-4.74-1.71-8.24-4.77-11.25-8.67
		c-1.19-1.54-2.58-1.66-4.11-0.36c-3.26,2.93-5.39,6.7-7.62,10.35c-0.38,0.63-0.36,1.5-0.46,1.96
		C55.21,49.74,62.14,53.94,66.05,52.55z M49.17,65.26c-0.41,1.2-0.98,2.15-1.04,3.14c-0.25,4.33-0.13,8.99,3.87,11.4
		c3.63,2.2,6.75-0.95,9.7-2.86c2.51-1.62,5.34-3.07,6.94-7.97C60.98,71.54,55.41,67.5,49.17,65.26z M54.71,62.05
		c9.09,4.46,17.45,2,21.48-6.59c-4.64-0.94-8.16,3.48-12.5,2.34c-3.96-1.12-7.91-2.36-11.45-6.1C49.4,59.43,49.45,59.43,54.71,62.05
		z"/>
</g>
</svg>
