<?xml version="1.0" encoding="utf-8"?>
<!-- Generator: Adobe Illustrator 27.5.0, SVG Export Plug-In . SVG Version: 6.00 Build 0)  -->
<svg version="1.1" id="Layer_1" xmlns="http://www.w3.org/2000/svg" xmlns:xlink="http://www.w3.org/1999/xlink" x="0px" y="0px"
	 viewBox="0 0 293.69 278.98" style="enable-background:new 0 0 293.69 278.98;" xml:space="preserve">
<style type="text/css">
	.st0{fill-rule:evenodd;clip-rule:evenodd;fill:#F3F3F3;}
</style>
<g>
	<path class="st0" d="M27.74,53.11c6.99,5.52,19.3,20.11,21.94,24.4c18.45,29.97,10.31,38.36,16.53,54.93
		c8.5,22.61,121.82,124.5,146.99,143.45c21.96,16.53,62.36-37.94,71.86-49.88c1.82-2.56,1.23-6.11-1.33-7.93
		c-0.12-0.09-0.25-0.14-0.38-0.22c5.32-2.85,8.91-5.53,10.23-12.54c2.8-14.81-56.93-67.2-64.04-73.2
		c-25.41-21.45-46.94-47.92-71.16-66.15c-27.53-20.72-40.77-5.17-67.09-13.13c-5.12-1.55-30.37-21.87-37.92-28
		C58.6,12.51,45.41,6.24,31.34,0.49C18.37-4.81-4.23,34.33,0.69,43.61C9.08,59.44,19.05,59.41,27.74,53.11z M43.84,19.69
		c-0.02-0.01-0.01,0-0.04-0.02c-0.96,2.09-1.17,2.1-2.85,3.98c-2.15,2.29-2.04,5.89,0.24,8.04c0.22,0.21,0.45,0.4,0.7,0.56
		C35.6,38.8,24.76,50.07,21.35,51.1c-7.34-0.69-10.09-3.82-13.95-10.44C4.87,36.35,23.9,11.92,27.75,9.75
		C30.3,11.12,43.77,18.31,43.84,19.69z M28.75,52.36c5.93-4.67,11.2-12.15,14.87-19.32c0.7,0.19,1.41,0.19,2.12,0.11
		c54.58,40.06,25.9,28.28,88.32,31.68c21.16,1.15,65.48,53.18,86.49,68.91c8.31,6.22,71.76,58.91,70.34,71.18
		c-0.7,6.03-4.12,9.01-8.25,12.56c-2.4-1.02-5.26-0.28-6.84,1.93c-4.7,6.08-44.12,57.48-56.24,48.73
		C196,251.1,79.49,149.91,71.46,130.35c-6.44-15.68,0.72-26.39-18.8-54.67C51.28,73.67,36.29,56.61,28.75,52.36z"/>
	<path class="st0" d="M119.64,126.22c27.28-8.22,36.8-22.92,68.37-5.9c17.59,9.49,70.51,55.48,78.65,75.35
		c-14.66-20.68-70.09-68.69-92.31-75.16c-24.14-7.02-50.35,17.24-75.41,15.45c30.82,29.95,108.36,100.12,123.64,103.83
		c13.14,3.19,42.06-28.16,44.16-38.66c0.12-3.14,2.76-5.59,5.9-5.46c3.14,0.12,5.58,2.76,5.46,5.9
		c-3.32,18.9-39.56,59.8-66.98,45.09c-8.73-4.68-132.35-110.54-128.52-119.82C85.05,120.92,101.45,131.7,119.64,126.22z"/>
</g>
</svg>
