<?xml version="1.0" encoding="utf-8"?>
<!-- Generator: Adobe Illustrator 27.5.0, SVG Export Plug-In . SVG Version: 6.00 Build 0)  -->
<svg version="1.1" id="Layer_1" xmlns="http://www.w3.org/2000/svg" xmlns:xlink="http://www.w3.org/1999/xlink" x="0px" y="0px"
	 viewBox="0 0 311.15 283.95" style="enable-background:new 0 0 311.15 283.95;" xml:space="preserve">
<style type="text/css">
	.st0{fill-rule:evenodd;clip-rule:evenodd;fill:#F3F3F3;}
	.st1{fill:#F3F3F3;}
</style>
<g>
	<path class="st0" d="M0,210.22c18.14-8.59,31.97-20.02,40.91-35.35c2.67-4.58,4.84-9.38,5.99-14.73c1.57-7.3,0.89-15.24-0.5-23.53
		c-0.8-5.69-6.07-9.66-11.76-8.86c-5.69,0.8-9.66,6.07-8.86,11.76c0.43,4.44,0.15,8.65-0.14,12.7c-0.13,1.8-0.27,3.56-0.39,5.31
		c-0.46,6.39-0.85,12.37-2.89,18.26C18,188.35,10.57,199.56,0,210.22L0,210.22z"/>
	<path class="st0" d="M10.61,230.26c23.47,0.8,45.64-5,64.62-17.01c5.39-3.41,10.49-7.19,14.88-11.92
		c6.37-6.86,10.94-15.41,14.86-24.43c2.4-5.22,0.11-11.41-5.11-13.81c-5.22-2.4-11.41-0.11-13.81,5.11
		c-2.56,5.09-5.74,9.65-8.97,14.08c-1.41,1.93-2.84,3.83-4.25,5.73c-4.94,6.68-9.87,13.06-16.09,18.45
		C43.65,217.8,28.18,225.9,10.61,230.26L10.61,230.26z"/>
	<path class="st0" d="M12.71,247.33c13.88,13.04,31.85,24.89,51.61,31.98c5.48,1.97,10.94,3.63,16.61,4.29
		c8.93,1.03,17.84-0.33,26.27-2.42c5.61-1.25,9.14-6.82,7.89-12.43c-1.25-5.61-6.82-9.14-12.43-7.89
		c-4.81,0.88-9.74,0.92-14.75,0.93c-2.15,0-4.31-0.02-6.49,0c-7.54,0.08-15.03,0.22-22.69-0.83
		C42.15,258.68,26.3,253.89,12.71,247.33L12.71,247.33z"/>
</g>
<g>
	<g>
		<path class="st1" d="M240.34,139.22c-16.7,24.46-43.74,43.77-75.06,59.68c-16.22,7.8-32.38,15.05-50.03,21.49
			c-17.46,6.5-36.22,12.26-54.42,17.88c-4.14,1.29-4.33,0.93-0.61-1.09c5.87-3.08,11.24-6.61,17.3-9.13
			c25.33-10.88,42.81-19.12,58.83-27c16.39-7.82,31.26-15.31,46.97-26.47c14.09-9.38,29.45-21.5,38.32-31.81
			c16.67-17.45,26.71-38.3,33.47-60.35c2.98-11.38,5.82-22.74,7.59-34.74c1.62-8.65,6.87-18.59-2.11-28.72
			c-2.38-2.56-4.7-5.91-5.75-9.09c-1.27-3.21-1.23-6.26,1.38-8.37c5.91-4.99,16.2,3.49,18.92,9.71c3.82,9.13-2.08,17.62-3.29,25.21
			c-1.44,8.28-1.08,16.65-2.04,24.83c-1.84,14.23-5.99,27.64-10.92,40.55C253.73,114.65,248.76,127.66,240.34,139.22z"/>
	</g>
	<path class="st1" d="M244.05,123.23c16-5.19,26.91-8.33,47.41-3.27c11.59,2.92,23.19-0.08,18.7-12.5
		c-3.5-9.65-11.14-7.47-19.01-3.19c-8,4.29-17.13,10.27-22.06,10.84c-7.61,0.9-15.61,1.84-23.05,2.72L244.05,123.23z"/>
	<path class="st1" d="M240.84,117.17c-3.86-11.74-7.59-19.29-20.56-27.97c-7.83-5.33-14.1-12.1-7.89-16.48
		c6.5-5.16,11.15-1.07,14.32,5.41c3.01,6.35,4.12,14.85,4.9,17.16c2.25,5.58,7.18,11.84,12.35,17.17L240.84,117.17z"/>
	<path class="st1" d="M263.93,81.34c6.73-5.69,14.05-13.81,25.93-14.18c7.74-0.22,16.23,3.17,19.67-3.96
		c3.11-6.49-2.44-15.23-11.39-14.89c-9.07,0.33-12.87,9.05-16.71,14.26c-4.01,5.98-9.75,8.57-17.86,10.56L263.93,81.34z"/>
	<path class="st1" d="M205.6,159.72c0.93-4.23,2.17-8.78,1.89-13.57c-0.23-2.24-0.16-5.03-1.65-6.8c-0.9-2.49-2.24-4.95-4.1-7.31
		c-2.45-3.07-5.57-5.7-7.79-8.46c-2.3-2.71-3.19-5.93-3.2-8.68c0.32-4.88,8.05-6.21,15.36,0.1c7.29,6.9,6.48,14.1,4.51,20.61
		c-0.49,1.73-0.67,3.44-0.71,5.11c0.08,0.7-0.23,1.97,0.28,2.18l0.22,2.35c0.43,3.17,1.43,6.49,2.89,10.36L205.6,159.72z"/>
	<path class="st1" d="M163.3,196.55c11.6-0.98,25.16-3.69,37.74,1.35c8.14,3.25,14.11,8.84,23.55,5.96
		c8.38-2.76,9.58-10.2-0.02-14.17c-9.79-4.11-20.42-0.32-28.5,1.49c-8.89,2.16-16.61,1.69-26.46-0.5L163.3,196.55z"/>
	<path class="st1" d="M160.74,189.26c4.34-7.89,9.2-17.37,3.46-27.31c-3.72-6.45-10.05-11.6-7.3-17.59
		c2.56-5.2,10.76-5.27,16.58,1.88c5.98,7.39,1.73,15-1.25,20.45c-3.03,6.25-3.45,11.73-2.51,19.52c0,0-2.21,0.76-4.47,1.55
		C162.99,188.51,160.74,189.26,160.74,189.26z"/>
	<path class="st1" d="M260.42,72.77c-1.79-8.42-4.14-14.66-15.32-19.7c-7.96-3.57-13.62-6.63-14.4-13.78
		c-0.4-5.72,2.22-7.23,11-3.85c9.25,3.6,11.3,8.78,12.28,14.32c0.56,5.91,2.33,8.83,9.23,14.12L260.42,72.77z"/>
	<path class="st1" d="M281.81,163.29c0.52,1.56,0.7,3.12,0.42,4.25c-0.65,2.34-2.9,4.4-5.45,5.44c-2.4,0.77-5.37,1.02-8.05,0.83
		c-4.17-0.29-7.6-1.65-10.96-3.24l-5.06-2.45l-2.63-1.15l-1.38-0.52l-0.7-0.24l-0.09-0.03l-0.04-0.02l-0.36,0.37l0,0l-0.02,0
		l-0.02-0.01l-0.18-0.06l-0.37-0.11c-16.3-4.98-25.24-3.87-30.75-2.61c-2.55-4.49,4.07-4.68,12.29-4.26
		c2.08,0.15,4.26,0.3,6.41,0.45c1.15-0.01,1.98,0.38,3.37,0.03c1.02,0.07,2.01,0.13,2.97,0.19c3.82,0.23,7.02,0.33,8.6-0.07
		c5.61-1.13,13.14-5.54,20.85-4.96c3.35,0.18,6.59,1.47,8.75,3.87C280.34,159.99,281.28,161.61,281.81,163.29z"/>
</g>
</svg>
