<?xml version="1.0" encoding="utf-8"?>
<!-- Generator: Adobe Illustrator 27.5.0, SVG Export Plug-In . SVG Version: 6.00 Build 0)  -->
<svg version="1.1" id="Layer_1" xmlns="http://www.w3.org/2000/svg" xmlns:xlink="http://www.w3.org/1999/xlink" x="0px" y="0px"
	 viewBox="0 0 165.78 230.55" style="enable-background:new 0 0 165.78 230.55;" xml:space="preserve">
<style type="text/css">
	.st0{fill:#F3F3F3;}
</style>
<g>
	<g>
		<path class="st0" d="M44.33,120.63c3.51,0,6.36-2.85,6.36-6.36V6.36c0-3.51-2.85-6.36-6.36-6.36c-3.51,0-6.36,2.85-6.36,6.36
			v107.91C37.97,117.79,40.82,120.63,44.33,120.63z"/>
	</g>
	<g>
		<path class="st0" d="M21.98,130.26c0-12.32,10.02-22.35,22.34-22.35c12.32,0,22.35,10.02,22.35,22.35
			c0,12.32-10.02,22.35-22.35,22.35C32.01,152.61,21.98,142.59,21.98,130.26z M34.7,130.26c0,5.31,4.32,9.63,9.63,9.63
			c5.31,0,9.63-4.32,9.63-9.63c0-5.31-4.32-9.63-9.63-9.63C39.02,120.63,34.7,124.95,34.7,130.26z"/>
	</g>
	<g>
		<path class="st0" d="M0,185.22c0-24.99,20.11-45.33,44.83-45.33c24.72,0,44.83,20.34,44.83,45.33s-20.11,45.33-44.83,45.33
			C20.11,230.55,0,210.21,0,185.22z M12.72,185.22c0,17.98,14.41,32.61,32.11,32.61c17.7,0,32.11-14.63,32.11-32.61
			s-14.4-32.61-32.11-32.61C27.12,152.61,12.72,167.24,12.72,185.22z"/>
	</g>
	<g>
		<path class="st0" d="M114.47,134.26c2.92,0,5.86-0.24,8.82-0.72c22.3-3.64,37.88-17.43,41.67-36.89c3.39-17.41-4-35-18.4-43.76
			c-13.28-8.09-30.09-7.5-42.83,1.51c-10.86,7.69-16.1,19.65-13.67,31.21c2.61,12.4,13.06,22.38,25.42,24.28
			c10.28,1.59,19.38-2.71,24.31-11.48c7.47-13.28,0.54-25.24-4.16-29.71c-2.55-2.42-6.57-2.32-8.99,0.23
			c-2.42,2.55-2.32,6.57,0.23,8.99c0.6,0.6,6.19,6.51,1.84,14.26c-3.1,5.51-8.4,5.59-11.29,5.15c-5.92-0.91-13.11-5.78-14.91-14.33
			c-1.64-7.79,3.35-14.52,8.57-18.21c6.83-4.83,18-7.64,28.87-1.03c9.88,6.01,14.91,18.26,12.53,30.47
			c-2.73,14.01-14.41,24.02-31.24,26.77c-43.28,7.08-68.74-56.36-68.99-57c-1.29-3.27-4.96-4.88-8.24-3.6
			c-3.27,1.28-4.88,4.97-3.6,8.23c0.29,0.74,7.25,18.32,20.55,35.11C76.88,123.84,95.24,134.26,114.47,134.26z"/>
	</g>
</g>
</svg>
