<?xml version="1.0" encoding="utf-8"?>
<!-- Generator: Adobe Illustrator 27.5.0, SVG Export Plug-In . SVG Version: 6.00 Build 0)  -->
<svg version="1.1" id="Layer_1" xmlns="http://www.w3.org/2000/svg" xmlns:xlink="http://www.w3.org/1999/xlink" x="0px" y="0px"
	 viewBox="0 0 229.19 240.68" style="enable-background:new 0 0 229.19 240.68;" xml:space="preserve">
<style type="text/css">
	.st0{fill:#F3F3F3;}
</style>
<g>
	<path class="st0" d="M203.31,30.17c0.17,1.53,1.28,2.71,2.81,2.98c-0.03-1.44-0.71-2.75-1.88-3.66c-0.23-0.18,0.04-0.51,0.28-0.35
		c1.52,1.01,2.41,2.63,2.43,4.42c0.01,1.17-4.47,0.17-4.85-3.22C202.01,29.57,203.22,29.41,203.31,30.17z"/>
	<path class="st0" d="M175.26,153.33c-2.91,6.32-6.97,12.11-10.88,18.19c-0.55,0.86,1.67-1.72,2.34-2.51
		c0.5,1.44,8.1-11.17,9.73-14.97c-0.58,2.11-1.35,4.17-2.38,6.19c-0.2,0.39,0.41,0.71,0.66,0.37c3.3-4.39,5.4-7.02,7.05-13.87
		c-0.44,4.1-0.31,3.27-0.46,3.99c-0.06,0.32,0.42,0.52,0.61,0.24c1.58-2.34,4.75-4.49,6.22-11.97c-0.02,1.4-0.07,2.81-0.16,4.22
		c-0.02,0.35,0.54,0.55,0.65,0.17c0.26-0.91,0.49-1.82,0.7-2.73c1.47-4.23,1.94-8.77,1.64-13.29c0.77,3.22,0.78,2.51,0.73,4.28
		c-0.01,0.47,0.68,0.48,0.83,0.18c2.1-4,0.78-9.27-0.24-15.56c3.99,11.53,4.07,6.46,3.01,2.79c0.18-15.93-9.07-27.58-8.46-26.06
		c4.58,11.29,5.61,13.39,7.13,22.44c-0.44-1.07-0.31-1.55-1.92-4.96c-1.26-3.16-2.62-6.23-4.26-9.27c-0.1-0.18-0.45-0.12-0.39,0.11
		c1.86,7.76,4.66,11.6,4.96,25.62c-0.58-5.84-2.98-9.81-5.32-14.94c-0.1-0.21-0.48-0.12-0.42,0.11c2.49,9.27,2.53,17.86,2.09,27.17
		c0.06-1.22-0.01-2.47-0.08-3.7c1.13-12.94-4.63-23.81-3.79-21.11c5.63,18.05,1.1,27.28-1.96,33.66c0.52-1.83,0.98-11.9-0.06-15.85
		c0,0-0.03,3.58-0.28,6.72c-1.61,9.95-4.86,14.57-6.67,18.16c0.49-1.62,0.93-3.25,1.28-4.9c2.71-7.3,2.05-12.67,1.86-11.28
		C178.39,145.4,177.09,149.22,175.26,153.33z M188.56,141.08c0.04-0.27,0.08-0.68,0.13-1.27
		C188.65,140.38,188.66,140.61,188.56,141.08z"/>
	<path class="st0" d="M104.41,195.33c3.45-1.55,6.74-3.31,9.87-5.42c0.07-0.05,0.18,0,0.17,0.09c-0.25,1.64-2.94,4.27-3.96,4.56
		c1.96-0.57,11.67-7.06,12.87-7.88c0.1-0.07,0.21,0.07,0.11,0.14c-4.48,3.22-9.15,6.12-14.04,8.72c-0.27,0.15-0.51-0.27-0.27-0.45
		c1.33-1,7.1-6.03,2.27-3.15c-2.23,1.33-4.55,2.5-6.93,3.58C104.36,195.59,104.28,195.39,104.41,195.33z"/>
	<path class="st0" d="M93.13,191.71c0.07-0.09,0.21,0.01,0.14,0.11c-2.15,2.85,3.58,0.1,4.56-0.42c0.2-0.11,0.37,0.16,0.26,0.32
		c-0.26,0.35-1.55,1.76-1.23,1.98c0.34,0.24,4.18-2.24,4.66-2.51c2.7-1.54,5.25-3.25,7.72-5.11c0.16-0.12,0.35,0.12,0.19,0.24
		c-6.66,5.22-15.08,9.62-13.88,8.04c1.02-1.34,2.56-2.3,0-1.4c-0.88,0.31-4.65,1.42-4.09,0.73
		C92.01,193.02,92.56,192.36,93.13,191.71z"/>
	<path class="st0" d="M81.04,196.28c3.9-1.6,7.85-2.81,11.64-4.7c0.18-0.09,0.3,0.19,0.12,0.28
		C83.51,196.64,79.93,196.74,81.04,196.28z"/>
	<path class="st0" d="M64.93,192.41c4.66-0.44,8.94-2.13,13.28-3.79c1.05-0.4-2.05,3.74-2.75,4.61c-0.57,0.19-1.14,0.37-1.73,0.52
		c-0.4,0.1-0.5-0.47-0.18-0.64c1.53-0.34,2.42-1.18,2.67-2.52c0.89-1.47,0.5-1.61-1.16-0.41c-2.05,0.38-4.51,2.98-10.12,2.66
		C64.67,192.83,64.68,192.43,64.93,192.41z"/>
	<path class="st0" d="M75.45,193.23c0.02-0.01,0.04-0.01,0.06-0.02C75.43,193.27,75.41,193.29,75.45,193.23z"/>
	<path class="st0" d="M89.2,187.08c0.02-0.01,0.04,0.03,0.01,0.04c-4.8,1.71-8.84,4.48-13.71,6.09c0.24-0.18,1.03-0.79,2.31-1.29
		C81.6,190.41,85.27,188.11,89.2,187.08z"/>
	<path class="st0" d="M59.25,188.35c0.1-0.06,0.2,0.06,0.11,0.14c-0.71,0.61-2.83,1.77-0.37,0.85c3.09-1.15,6.87-2.6,12.51-5.76
		c0.2-0.11,0.34,0.21,0.14,0.32c-7.48,4.18-16.46,7.42-14.87,6.21C57.58,189.5,58.4,188.91,59.25,188.35z"/>
	<path class="st0" d="M61.72,186.13c-3.92,0.51-7.56,1.69-11.35,2.72c-0.18,0.05-0.24-0.22-0.08-0.29
		C55.74,186.04,63.13,185.95,61.72,186.13z"/>
	<path class="st0" d="M42.59,184.09c-0.35,0.24-2.74,1.94-2.9,1.71c0.36,0.51,8.48-1.94,8.68-2c4.63-1.32,9.13-2.95,13.51-4.92
		c2.56-1.15-7.73,5.41-23.88,7.85c-0.36,0.05-0.53-0.48-0.17-0.61c1.37-0.5,6.52-2.84,0.31-1.14c-0.19,0.05-0.32-0.23-0.12-0.28
		c1.48-0.43,2.89-0.73,4.43-0.94C42.63,183.73,42.75,183.98,42.59,184.09z"/>
	<path class="st0" d="M23.91,179.1c0.35-0.03,0.51,0.44,0.17,0.59c-1.52,0.67-5.62,1.59-0.83,1.54c5.48-0.05,15.33-2.48,18.39-3.21
		c1.48-0.35-11.84,3.83-22.54,3.83c-0.31,0-0.31-0.43-0.07-0.54c1.68-0.76,5.43-1.64,0.87-1.26
		C10.15,180.86,5.91,180.39,23.91,179.1z"/>
	<path class="st0" d="M97.99,184.17c-8.59,9.6-15.67,10.11-14.44,9.05c3.55-3.07,8.03-3.82,14.12-9.35
		C97.86,183.7,98.16,183.98,97.99,184.17z"/>
	<path class="st0" d="M88.49,183.71c-5.05,3.98-7.18,4.41-6.5,3.96c2.1-1.4,4.21-2.78,6.16-4.37
		C88.43,183.07,88.77,183.49,88.49,183.71z"/>
	<path class="st0" d="M188.64,34.71c-0.08,0.14-0.14,0.28-0.2,0.42c0.04-0.15,0.07-0.3,0.09-0.45
		C188.54,34.6,188.68,34.64,188.64,34.71z"/>
	<path class="st0" d="M188.11,35.91c0.11-0.26,0.21-0.52,0.33-0.78C188.36,35.39,188.25,35.65,188.11,35.91z"/>
	<path class="st0" d="M174.46,37.48c0.02,0.52-0.04,1.06,0.46,0.53c0.47-0.51,0.85-1.51,1.51-1.28c0.43,0.15,0.31,0.51,0.5,0.8
		c-0.07,0.4,0.13,0.44,0.61,0.14c0.21-0.24,1.28-1.45,1.49-1.69c0.09-0.1,0.26-0.04,0.24,0.1c-0.08,0.6-0.15,1.19-0.23,1.79
		c-0.01,0.09-0.14,0.07-0.13-0.02c0.02-0.45,0.05-0.9,0.07-1.35c-0.42,0.58-0.83,1.21-1.32,1.71c-0.76,0.77-1.24,0.27-1.17-0.63
		c-0.41-0.3-0.71-0.27-0.89,0.1c-0.37,0.26-0.94,1.31-1.09,0.97c-0.17-0.39-0.24-0.75-0.22-1.18
		C174.28,37.38,174.46,37.38,174.46,37.48z"/>
	<path class="st0" d="M171,38.85c1.16-0.58,2.2-1.31,3.12-2.2c0.05-0.05,0.15,0.04,0.1,0.09c-0.91,0.94-1.95,1.72-3.11,2.35
		C170.96,39.18,170.85,38.93,171,38.85z"/>
	<path class="st0" d="M112.48,213.19c-0.34-0.14-0.37-0.6-0.05-0.78C113.23,211.95,113.42,213.58,112.48,213.19z"/>
	<path class="st0" d="M113.73,215.88c0.12,0.22,0.14,0.37-0.01,0.57c-0.14,0.19-0.3-0.06-0.45-0.22
		C112.92,215.94,113.49,215.45,113.73,215.88z"/>
	<path class="st0" d="M114.48,219.89c0.43-0.06,0.59,0.45,0.3,0.7C114.29,221.04,113.78,219.99,114.48,219.89z"/>
	<path class="st0" d="M118.39,226.11c-0.55,0.01-0.89-0.14-1.3-0.49c-0.09-0.08-0.04-0.27,0.1-0.24c0.18,0.04,0.36,0.07,0.55,0.1
		c-0.25-0.28-0.54-0.53-0.79-0.78c-0.2-0.2,1,0.7,1.51,0.89C118.7,225.68,118.68,226.1,118.39,226.11z"/>
	<path class="st0" d="M110.3,211.88c-0.03-0.07-0.06-0.14-0.09-0.21c-0.07-0.15,0.07-0.33,0.24-0.3c0.08,0.01,0.16,0.02,0.24,0.03
		C111.45,211.49,110.6,212.58,110.3,211.88z"/>
	<path class="st0" d="M109.1,209.1c-0.46,0.06-0.56-0.63-0.09-0.7C109.47,208.34,109.56,209.03,109.1,209.1z"/>
	<path class="st0" d="M119.75,222.58c-2.26-0.83-2.37-5.23-4.12-8.36c-0.16-0.29,0.37-0.29,2.41,3.99c0.62,1.29,1.8,2.76,1.98,4.16
		C120.05,222.52,119.89,222.63,119.75,222.58z"/>
	<path class="st0" d="M121.89,227.55c-0.41-1.01-0.82-2.02-1.23-3.04c-0.1-0.24,0.29-0.39,0.38-0.16c0.38,1.02,0.76,2.05,1.14,3.07
		C122.25,227.61,121.96,227.74,121.89,227.55z"/>
	<path class="st0" d="M129.64,210.82c-0.68-1.46-1.38-2.91-2.14-4.34c-0.1-0.2,0.22-0.38,0.35-0.2c1.8,2.43,4.54,5.68,4.01,8.9
		C131.66,216.43,130.18,211.97,129.64,210.82z"/>
	<path class="st0" d="M132.2,216.9c0.34,0.71,0.73,1.4,1.2,2.05c0.33,0.46,0.88,0.88,0.91,1.47c0.03,0.59-1.18,0.09-2.4-3.39
		C131.85,216.84,132.12,216.72,132.2,216.9z"/>
	<path class="st0" d="M126.46,211.01c-0.61,0.08-0.73-0.83-0.12-0.91C126.95,210.01,127.07,210.92,126.46,211.01z"/>
	<path class="st0" d="M126.35,208.02c-0.64,0.09-0.77-0.87-0.13-0.96C126.86,206.98,126.99,207.93,126.35,208.02z"/>
	<path class="st0" d="M128.81,213.18c0.58-0.08,0.7,0.79,0.12,0.87C128.35,214.13,128.23,213.26,128.81,213.18z"/>
	<path class="st0" d="M136.13,221.74c-0.55,0.07-0.66-0.75-0.11-0.83C136.57,220.84,136.68,221.67,136.13,221.74z"/>
	<path class="st0" d="M133.59,216.69c-0.78,0.11-0.94-1.07-0.16-1.17C134.21,215.41,134.37,216.59,133.59,216.69z"/>
	<path class="st0" d="M120.94,230.11c-0.52,0.07-0.63-0.71-0.11-0.78C121.36,229.26,121.47,230.04,120.94,230.11z"/>
	<path class="st0" d="M112.56,207.2c-0.58,0.08-0.7-0.79-0.12-0.87C113.02,206.26,113.14,207.12,112.56,207.2z"/>
	<path class="st0" d="M109.74,206.69c-0.92,0.28-1.01-0.61-0.08-0.59C109.97,206.11,110.03,206.6,109.74,206.69z"/>
	<path class="st0" d="M213.16,40.15c0.43,0.88,0.86,1.76,1.29,2.65c0.07,0.15-0.18,0.26-0.25,0.1c-0.4-0.89-0.8-1.79-1.2-2.68
		C212.95,40.12,213.11,40.05,213.16,40.15z"/>
	<path class="st0" d="M210.49,40.83c-0.16-0.55-0.33-1.09-0.49-1.64c-0.03-0.11,0.13-0.18,0.17-0.07c0.19,0.54,0.38,1.07,0.58,1.61
		C210.79,40.89,210.53,40.99,210.49,40.83z"/>
	<path class="st0" d="M204.41,36.46c0.09-0.01,0.1,0.12,0.02,0.13C204.35,36.6,204.33,36.47,204.41,36.46z"/>
	<path class="st0" d="M1.01,181.79c1.11-0.06,1.46-0.09,1.81-0.27c2.39,0.89,4.72,1.46,7.28,1.57c-0.67,0.17-1.35,0.36-2.03,0.54
		c-0.6,0.16-0.74,0.87-0.16,1.16c0.25,0.13,0.53,0.22,0.8,0.33c3.23,2.78,9.17,3.07,13.5,2.74c-1.49,0.66-2.93,1.39-4.24,1.98
		c-0.59,0.26,1.02,0.49,1.67,0.5c3.45,0.83,7.09,1.39,10.75,1.58c0.11,0.12,0.09,0.25-0.05,0.42c-0.75,0.2-5.71,1.47-4.99,1.77
		c0.73,0.31,1.45,0.43,2.17,0.45c0.56,1.6,10.56,6.23,23.87,4.03c-3.28,1.65-3.83,1.49-2.45,2.19c3.31,3.18,8.06,3.54,12.64,2.32
		c-0.11,0.08-0.24,0.16-0.36,0.24c-0.97,0.28-3.83,1.21-2.81,1.37c3.8,0.61,9.49,0.19,14.39-1.39c-0.02,0.16-0.03,0.32-0.01,0.48
		c-0.2,0.19-0.41,0.37-0.22,0.6c0,0.24,0.29,0.27,0.53,0.35c0.37,0.58,0.82,0.27,1.52,0.33c-5.05,2.35-8.08,1.33-5.86,2.33
		c-0.04,0-0.07,0-0.11,0c-0.16,0.01-0.15,0.24,0,0.26c2.4,0.36,2.56,0.42,3.39,0.4c0.73,0.07,1.47,0.12,2.2,0.16
		c0.29,0.22,0.7,0.11,1.1,0.08c5.38,0.83,10.83-0.84,15.58-3.73c-0.84,1.24-1.77,3.31-1.95,3.7c-0.02,0.04-0.04,0.09-0.05,0.13
		c-0.45,1.45,3.49-0.01,3.9-0.16c1.33-0.47,2.63-1.02,3.92-1.58c0.65-0.29,1.31-0.58,1.96-0.88c0.7-0.32,1.29-0.75,1.67,0.19
		c0.21,0.54-0.44,0.94-0.7,1.37c-0.06,0.09,0.02,0.21,0.13,0.17c0.16-0.06,0.32-0.15,0.48-0.22c0.13,0.01,0.6-0.11,0.73-0.14
		c-0.83,2.25,4.16,5.37,6.77,8.58c4.76,5.87,2.33,11.67,6.9,14.43c1.26,1.6,2.47,2.05,3.31,3.07c-0.52,0.19,0.37,1.09,0.76,1.49
		c0.21,0.94,1.31,1.48,2.35,1.51c4.07,1.54,7.77-0.4,18.48,0.86c7.93,1.91,12.14,4.14,14.69,3.44c0.2-0.06,0.37-0.3,0.39-0.5
		c0.2-2.19-3.42-4.73-1.88-6.4c1.71-1.85,7.15,0.74,8.85-1.69c0.12-0.17,0.18-0.4,0.08-0.59c-0.86-1.69-2.45-2.69-4.27-3.31
		c-2.05-1.25-4.51-1.89-6.78-2.71c3.7-0.48,6.95-0.38,10.61,0.7c1.2,0.36,2.4-0.9,1.55-1.97c-0.09-0.12-0.17-0.23-0.26-0.35
		c-0.25-0.62-0.63-1.14-1.21-1.72c-0.4-0.64-0.75-1.3-1.07-2c0.04-0.02,0.08-0.05,0.12-0.08c0.77-0.08,1.52-0.22,2.3-0.11
		c0.53,0.07,1.17,0.38,1.66,0.02c0.42-0.3,0.39-0.69,0.17-1.03c0.33-0.06,0.49-0.32,0.48-0.6c0.53,0,0.94,0.02,1.1,0.02
		c0.65,0.01,0.95-0.81,0.31-1.09c-13.6-5.92-23.54-3.36-27.72,0.57c-4.01-6.93-2.98-10.62-4.07-13.04
		c-0.16-0.35-0.35-0.61-0.57-0.82c17.53-4.09,31.95-15.74,44.85-27.07c5.59-4.91,11.64-9.7,15.94-15.77
		c8.3-11.72,12.93-26.97,12.88-41.05c-0.11-27.6-17.64-46.65-31.41-63.58c-2.15-2.65-12.65-12.27-3.77-12.35
		c6.14-0.05,13.09,0.48,18.07-2.81c4.31-1.53,6.89-0.96,9.89,0.84c5.66,3.39,14.55,10.22,23.26,10.54c1.31,0.33,2.47,0.42,3.16,0.06
		c0.32,0.19,0.65,0.37,0.97,0.57c0.55,0.33,1.41-0.01,1.28-0.73c-1.28-7.34-5.6-12.43-11.33-17.49
		c-6.62-5.86-11.31-6.32-16.42-15.15c-1.45-5.25-3.77-10.15-8.76-13.25c-6.88-4.28-17.63-6.23-25.69-6.57
		c-14.85-0.62-27.42,10.14-33.92,22.43c-8.36,15.81-2.21,32.44,0.15,48.77c1.49,10.29,1.4,14.32-10.08,18.72
		c-16.11,6.17-21.06,3.4-42.35,19.96c-6.98,5.43-13.94,11.06-20.17,17.29c-0.82,0.82-0.18,1.87,0.72,2.19
		c-14.84,11.52-16.36,8.13-9.79,9.4c-1.64,1.02-3.21,2.4-5.23,3.52c-4.17,2.31-9.14,3.22-12.92,6.07c-1.59,0.32-3.15,0.91-4.53,1.67
		c-0.22,0.12-0.15,0.44,0.12,0.42c2.4-0.16,4.56-0.46,6.79-0.41c0.27,0.21,0.49,0.38,0.68,0.51c-9.8,6.57-19.28,13.6-29.33,19.8
		c-1.4,0.67-8.26,3.81-6.98,3.69c3.4-0.32,6.49-1.11,9.41-2.22c-2.75,1.52-5.44,3.32-8.56,3.95c-0.58,0.12-0.83,1.01-0.17,1.21
		c1.12,0.34,2.36,0.72,3.58,0.92c-1.05,0.88-2.04,2.03-3.58,3.48C0.68,181.55,0.78,181.8,1.01,181.79z M198.36,22.47
		c3.68,3.99,7.58,7.77,11.74,11.31c5.95,5.07,9.56,5.69,16.85,16.56c0.08,0.21,0.16,0.42,0.23,0.64c-0.9-0.54-1.8-1.07-2.71-1.6
		c-2.71-4.34-2.51-4.01-0.33-0.2c-0.44-0.26-0.88-0.52-1.32-0.78c-0.31-0.78-0.63-1.57-0.94-2.35c-0.03-0.08-0.15-0.03-0.13,0.05
		c0.26,0.71,0.52,1.42,0.77,2.13c-0.54-0.31-1.06-0.63-1.6-0.95c-0.27-0.65-0.47-1.32-0.59-2.02c0.17,0.1,0.32,0.23,0.39,0.43
		c0.03,0.09,0.15,0.1,0.2,0.08c0.31-0.09-0.07-0.48-0.26-0.75c-0.06-0.08-0.15-0.07-0.21-0.03c-0.1-0.05-0.19-0.12-0.32-0.14
		c-0.44-0.09,0.19,1.76,0.35,2.18c-0.59-0.34-1.19-0.68-1.78-1.02c0.05-0.02,0.09-0.07,0.06-0.14c-0.29-0.62-0.57-1.24-0.86-1.86
		c-0.06-0.13-0.27-0.04-0.21,0.09c0.28,0.61,0.56,1.21,0.84,1.82c-0.78-0.45-1.56-0.89-2.34-1.33c0-0.06-1.48-2.64-1.51-2.69
		c-0.08-0.15-0.34-0.04-0.25,0.1c0.47,0.8,0.94,1.59,1.41,2.39c-0.95-0.54-1.89-1.08-2.84-1.62c-0.35-1.01-0.7-2.01-1.05-3.02
		c-0.03-0.08-0.15-0.03-0.13,0.05c0.28,0.93,0.56,1.85,0.85,2.78c-0.18-0.1-0.37-0.21-0.55-0.31c-0.03-0.1-1.32-2.84-1.36-2.93
		c-0.07-0.15-0.32-0.05-0.25,0.1c0.37,0.85,0.73,1.69,1.1,2.54c-1.1-0.62-2.2-1.24-3.29-1.85c-0.3-0.97-0.9-1.91-1.36-2.82
		c-0.04-0.08-0.16-0.03-0.13,0.05c0.33,0.81,0.61,1.71,1.02,2.51c-0.06-0.03-0.12-0.07-0.18-0.1c-0.01-0.07-0.97-2.35-1-2.42
		c-0.03-0.08-0.15-0.03-0.13,0.05c0.26,0.72,0.52,1.45,0.78,2.17c-4.17-2.34-8.33-4.69-12.48-7.06c1.57-1.66,2.35-3.8,2.56-6.06
		c1.35,6.62,2.98,8.75,12.89,10.68c0.13,0.03,0.17-0.16,0.06-0.21c-2.43-0.99-5.01-1.93-7.31-3.19
		C198.6,31.27,199.21,26.02,198.36,22.47z M119.15,207.73c0.25,0.49,0.58,1.07,1.02,1.87c2.12,3.8,3.24,7.27,6.18,11.28
		c0.29,0.39,1.63,2.36,1.87,2.36c-0.12,0,0.11,0.06,0.33,0.09c0.06,0.09,0.06,0.12,0.23,0.17c-2.19-0.23-3.71-1.41-4.94-3.01
		C122.72,217.5,120.39,213.81,119.15,207.73z M129,223.53c-0.02,0-0.04,0-0.06-0.01c0.01,0,0.03-0.01,0.04-0.01
		C128.99,223.52,128.99,223.52,129,223.53z M143.16,218.84c3.96-1.12,4.95-1.72,11.22-2.06c0.5-0.03,7.97,0.6,8.32,0.28
		c-0.02,0.02-0.02,0.04-0.01,0.06c0.07,0.09,0.15,0.19,0.22,0.28c-1.15,0.15-2.26,0.01-4.63,1.39c-1.14-0.44-2.79-0.27-3.81-0.28
		c-2.32-0.01-4.24,0.25-6.26,1.42c-0.22,0.13,0,0.4,0.2,0.34c2.12-0.63,4.42-0.63,6.61-0.5c0.98,0.06,1.99,0.37,2.98,0.48
		c0.27,0.92,0.59,1.79,0.99,2.61c-3.88-0.91-9.2-1.78-11.82,0.28c-0.05-0.01-0.1-0.02-0.16-0.03c-0.01-0.02-0.01-0.04-0.03-0.06
		c1.3-1.42-4.85-1.06-6.78-0.89c0.21-0.33,0-0.88-0.52-0.81c-0.5,0.07-0.56,0.62-0.3,0.9c-1.71,0.18-3.4,0.45-5.13,0.72
		c-1.15-1.29-1.95-0.93-3.95-4.87c-0.54-1.06,0.82,3.83,2.58,5.08c-0.48,0.07-0.96,0.14-1.45,0.21c-1.09-0.97-1.75-2.05-2.27-3.24
		c-1.33-5.19-4.34-12.28-6.45-14.91c2.32-0.03,4.61-0.21,6.87-0.55c1.82,3.13,2.45,7.24,4.47,10.3c0.85,1.29,1.87,5.24,3.76,5.68
		C139.31,221.02,141.39,219.81,143.16,218.84z M185.48,38.36c0.25-0.35,0.51-0.7,0.76-1.05c-0.04,0.26-0.06,0.53-0.05,0.81
		C185.95,38.2,185.72,38.28,185.48,38.36z M162.99,218.99c0.2-0.03,0.41-0.05,0.61-0.07c0.06,0.1,0.11,0.18,0.1,0.22
		C163.71,219.1,163.35,219.04,162.99,218.99z M156.44,232.01c-3.01,0.88-11.91-1.38-18.59-1.95c-9.74-2.67-15.09,0.23-13.93,0.19
		c0.43-0.01,0.86,0,1.29-0.01c0,0,9.58-0.62,21.32,3.75c1.55,0.8,2.75,1.87,3.77,3.52c0,0.17-0.02,0.33-0.05,0.47
		c-7.7-5.05-19.46-4.78-28.79-4.75c-0.05-0.02-0.1-0.06-0.14-0.09c-0.68-2.01-2.51-2.66-4.18-3.68c-2.17-2.77-2.46-4.22-3.47-7.59
		c0.03-1.33,0.41-4.76-3.74-10.06c-0.93-1.96-2.14-4.16-3.77-5.46c0.35-0.22,0.68-0.45,1.01-0.68c4.22-0.95,5.28-1.09,6.51-0.7
		c0.18,0.36-0.14,0.57,1.66,0.78c-0.01,0.11,0,0.22,0.01,0.34c1.22,8.92,4.18,12.65,6.05,14.99c0.68,1.12,1.44,2.14,2.28,2.92
		c2.04,4.72,17.64-2.01,20.5,0.12c-0.96,0.96-1.34,1.37-2.52,2.09c-1.37,0.11-2.78,0.43-4.15,0.8c-1.76,0.02-3.45,0.27-4.87,1.03
		c-0.14,0.08-0.11,0.26,0.04,0.29c2.34,0.55,5.01,0.11,7.44,0.21c1.71,0.07,3.33,0.33,4.93-0.23c2.61,0.28,5.63-0.35,8.3,0.01
		C156.76,228.8,162.06,230.36,156.44,232.01z M4.83,180.34c5.65-2.99,4.82-0.35,20.92-3.97c3.07-0.69-13.05-2.02-18.73,0.02
		c-0.17-0.02-0.35-0.03-0.52-0.04c0.93-0.36,1.83-0.84,2.65-1.23c1.88-0.91,4.6-3.15,6.03-3.6c1.37-0.43,5.46-1.35,4.69-1.58
		c-1.99-0.6-3.78-0.54-5.47-0.13c-0.09-0.01-0.17-0.01-0.26-0.02c11.15-5.76,17.76-13.18,24.48-16.6c3.28-1.67,7.19-2.02,9.42-5.08
		c0.13-0.17-0.05-0.36-0.24-0.3c-1.77,0.52-3.6,0.93-5.4,1.39c-0.81-0.04-1.62-0.17-2.46-0.36c4.63-2.11,4.56-1.54,7.2-2.92
		c4.09-2.14,6.88-5.51,10.55-8c0.14-0.09,0.13-0.31-0.18-0.36c-0.45-0.25-1.68-0.32-2.4-0.59c-0.18-0.12-0.19-0.08-0.36-0.15
		c5.98-2.18,8.26-5.03,11.5-7.27c1.57-1.08,2.57-1.24,3.23-2.92c0.04-0.11,0.02-0.24-0.09-0.31c-0.67-0.46-1.35-0.61-2.02-0.56
		c15.41-11.44,30.37-22.35,49.42-27.84c5.66-1.63,11.81-3.27,16.57-6.84c3.76-1.84,4.99-4.27,5.68-7.81
		c5.18-17.56-17.82-46.65,8.21-70.76c8.97-8.31,18.67-9.55,30.42-7.01c10.95,2.36,15.47,3.77,20.44,12.6
		c0.37,1.08,0.59,2.01,1.27,3.44c-1.34-1.46-2.65-2.94-3.93-4.46c-0.5-0.6-1.59-0.01-1.23,0.71c2.64,5.28,1.39,9.32,0.1,14.53
		c-0.83-0.08-1.53,1-0.69,1.49c9.82,5.63,19.78,11.05,29.58,16.72c-4.42-1.29-2.98-0.38-18.07-8.33c-1.28-0.82-7.89-5.05-9.32-5.74
		c-2.12-1.02-3.63-0.63-3.71-3.59c0.04-0.12,0.08-0.18-0.01-0.31c-0.01-0.14-0.02-0.28-0.05-0.43c-0.1-0.57-0.92,0.47-1.13,1.03
		c-1.33,1.1-2.53,2.52-1.4,3.99c-0.94,0.22-1.78,0.49-2.71,0.8c0.79-0.88,1.03-1.35,1.3-2.01c-0.4,0.74-1.01,1.44-1.59,1.98
		c0.05-0.53,0.18-1.03,0.42-1.54c0.1-0.2-0.22-0.38-0.35-0.19c-0.52,0.79-1.04,1.57-1.56,2.36c-1.37,0.47-2.72,0.91-4.13,1.24
		c0.31-0.34,0.61-0.69,0.9-1.04c0.01,0.13,0.02,0.26,0.03,0.39c0.08,0.95,2.32-2.09,2.83-2.94c0.07-0.12-0.1-0.25-0.18-0.13
		c-0.64,0.95-1.39,1.79-2.24,2.56c0-0.17-0.01-0.33-0.01-0.5c-0.01-0.22-0.3-0.24-0.43-0.11c-0.63,0.64-1.34,1.27-1.91,1.99
		c-0.73,0.14-1.48,0.23-2.26,0.29c-3.09-0.25-12.72-2.98-13.9,2.99c-3.16,6,5.66,13.21,8.93,17.1
		c20.39,24.26,30.38,33.93,30.09,59.95c-0.15,13.03-5.4,28.41-13.68,38.86c-4.53,5.71-10.55,10.44-16.14,15.15
		c-13.3,11.2-29.49,24.59-53.14,28.92c10.48-5.37,14.85-15.27,13.6-13.51c-6.67,9.44-13.94,11.48-17.11,13.14
		c-1.4-0.5-1.25-0.5-2.49-0.98c2.23-1.35,4.36-2.86,6.25-4.39c11.39-7.93,13.96-21.77,13.05-19.88
		c-4.15,8.67-11.4,16.18-20.26,20.59c-6.45,3.21-11.93,1.86-21.42,8.87c-0.07-0.04-0.12-0.09-0.16-0.15
		c1.58-1.82-0.02-0.67,4.59-5.12c3.4-3.28,6.11-7.63,5.08-6.58c-5.25,5.34-8.39,8.81-22.37,11.53c-0.68,0.09-1.35,0.16-2.03,0.23
		c0.13-0.11,0.26-0.22,0.39-0.34c3.86-2.06,7.44-5.83,10.26-8.01c0.15-0.11,0.05-0.4-0.15-0.35c-2.78,0.71-4.97,2.15-7.29,3.77
		c-0.39,0.27-0.77,0.53-1.15,0.78c-1.85,0.59-1.12,0.3-3.59,0.74c-0.35-0.11-0.2-0.44,0.28-0.94c0.38-0.23,0.77-0.44,1.01-0.71
		c1.98-0.99,3.66-2.22,4.77-3.73c0.12-0.16-0.01-0.43-0.23-0.38c-3.88,0.84-7.4,2.83-11.33,3.73c-1.87,0.43-3.78,0.75-5.66,1.15
		c0.14-0.16,0.29-0.32,0.43-0.49c3.97-1.61,7.53-4.27,9.53-7.12c0.17-0.24-0.13-0.56-0.38-0.37c-3.55,2.85-7.65,5.13-12.23,5.91
		c-2.82,0.48-5.44,0.01-8.09-0.33c1.92-1.05,4.89-2.78,6.42-3.96c1.59-0.66,3.1-1.43,4.49-2.34c0.21-0.14,0-0.4-0.2-0.34
		c-17.9,5.62-24.77,1.98-32.3,0.17c2.55-0.79,4.35-1.45,6.42-2.01c7.64-0.6,14.77-4.6,13.6-4.49c-6.5,0.62-12.59,2.95-19.25,2.62
		c-2.52-0.12-4.91-0.52-7.31-0.68c-0.13-0.1-0.23-0.21-0.33-0.33c1.83-0.87,3.63-1.88,5.38-2.31c0.18-0.04,0.24-0.24,0.15-0.36
		c3.28-1.08,6.4-2.6,9.47-4.43c0.46-0.27-0.01-0.82-0.43-0.71c-3.4,0.93-6.85,1.99-10.33,2.8c-11.72,1.7-11.79,0.76-17.33,0.05
		c0.84-0.67,3.17-1.1,3.66-1.23c0.54-0.15,0.27-0.98-0.25-0.9C13.08,182.12,4.68,182.27,4.83,180.34z"/>
	<path class="st0" d="M171.5,10.95c0.06-0.15,0.24-0.21,0.39-0.16c0.32,0.11,2.91,1.25,3.01,1.3c-1.92-2.45,1.93-4.15,2.84-1.67
		c0.69,0.84,0.37,2.07-0.73,2.41c1.58,0.22,2.35-0.01,3.54,0.12c-1.73-1.38-2.46-2.76-3.23-4.03c-0.07-0.34-0.22-0.57-0.56-0.65
		c-0.07,0.02-0.13,0.05-0.21,0.1c-0.49-0.02-1.22,0.65-1.58,0.93c-0.72,0.56-1.13,1.18-2.01,1.5c-0.54,0.2-0.79-1.07,1.21-2.4
		c0.52-1.14,2.73-1.86,3.63-0.95c0.73,0.74,1.16,1.99,1.72,2.86c0.6,0.94,1.38,1.75,2.03,2.64c0.06,0.04,0.12,0.07,0.18,0.11
		c0.31,0.03,0.61,0.04,0.89-0.01c0.15-0.02,0.28,0.13,0.21,0.27C181.26,16.85,169.77,15.47,171.5,10.95z"/>
	<path class="st0" d="M79.35,172.89c-0.67-1.3-1.05-2.71-1.21-4.19c-0.66-4.73,0.93-9.06,2.79-13.02c0.04-0.08,0.1-0.14,0.16-0.19
		c0.26-0.48,0.61-0.3,0.53-0.02c0.14,0.08,0.24,0.23,0.22,0.44c-0.1,0.89-0.13,1.76-0.12,2.64c0.86-4.22,3.44-8.51,5.5-11.76
		c0.29-0.46,1.09-0.12,0.98,0.39c-0.09,0.44-0.16,0.89-0.24,1.34c1.13-3.07,2.73-5.99,4.39-8.49c0.36-0.55,1.25-0.13,1.16,0.46
		c-0.16,1.03-0.32,2.04-0.45,3.06c4.77-9.12,7.97-11.9,7.38-10.75c-0.32,0.63-0.66,1.26-0.99,1.89c0.26,0.02,0.17,0.48,0.16,0.77
		c4.17-7.08,10.26-9.18,9.2-8.33c-8.45,6.73-9.2,13.66-10.71,15.45c-0.08,0.09-0.27,0.1-0.31-0.04c-0.03-0.09-0.04-0.19-0.07-0.29
		c-0.12-0.02-0.23-0.11-0.21-0.28c0.17-1.26-0.06-2.7,1.87-6.11c-0.09-0.72-0.79,0.75-1.18,1.37c-4.41,7.03-6.26,13.62-6.26,13.62
		c-0.46,1.54-0.99-2.34,0.45-5.83c-0.1-0.63-0.18-1.26-0.22-1.88c-0.01,0.01-0.19,0.18-0.19,0.18c-2.69,5.37-3.42,10.82-4.95,16.73
		c-0.04,0.14-0.24,0.15-0.27,0c-0.35-1.55-0.93-2.54-0.3-5.1c0.06-0.63,0.15-1.27,0.27-1.9c-0.05-0.01-0.1-0.05-0.1-0.12
		c0.01-0.12,0.07-0.4,0.14-0.75c-0.04-0.83-0.02-1.66,0.03-2.49c-2.95,5.29-3.6,8.05-4.49,13.91c-0.01,0.1-0.12,0.13-0.2,0.09
		c-0.43,1.49-0.76-1.74-0.63-3.37c-0.1-0.52-0.2-1.04-0.27-1.56c0.01,0.44,0.04,0.88,0.1,1.34c0.02,0.16-0.17,0.19-0.26-1.39
		c-1.88,7.27-0.74,10-1.43,14.17C79.59,172.99,79.41,173,79.35,172.89z"/>
	<path class="st0" d="M109.3,119.25c1.07-0.76-4.09,1.4-8.22,5.83c0.13-0.32,0.14-0.52-0.3-0.5c0.49-0.44,0.98-0.87,1.49-1.27
		c1.06-0.82-3.01-0.32-8.62,8.22c0.05-0.33,0.09-0.67,0.12-1.01c0.55-0.64,1.12-1.28,1.69-1.89c0.07-0.08-0.05-0.18-0.13-0.12
		c-3.76,2.51-5.98,5.21-7.96,8.71c0.14-0.99,0.29-1.98,0.43-2.97c0.58-0.84,1.16-1.67,1.73-2.5c0.93-1.35-3.52,2.29-6.59,7.4
		c0.02-0.12,0.14-0.75,0.13-0.87c0.17-0.19,1.01-1.11,0.8-0.97c-2.46,1.64-4.73,3.4-6.46,5.69c-0.17-0.1-0.98,0.58-1.14,0.7
		c-0.05-0.01-0.09-0.01-0.13,0.02c-2.77,2.4-4.61,4.87-6.29,8.04c0.09-0.78,0.13-1.56,0.11-2.38c0.27-0.27,0.56-0.52,0.88-0.75
		c0.09-0.07,0-0.18-0.09-0.15c-2.82,0.79-4.23,2.73-5.35,5.24c-0.32,0.71-0.61,1.44-0.91,2.16c0.03-0.26,0.19-0.83-0.05-0.78
		c-2.08,0.43-3.58,4.46-4.55,6.18c-1.92,3.4-3.99,7.26-4.5,11.14c-0.02,0.18,0.23,0.23,0.3,0.08c1.71-3.39,2.73-7.12,4.43-10.54
		c0.17-0.34,3.17-6.08,3.55-6.11c0.35-0.03,0.49,0.3,0.53,0.78c-2.64,6.82-3.19,9.04-3.45,10.85c-0.04,0.26,0.37,0.47,0.53,0.21
		c2.12-3.47,5.36-14.12,7.84-17.35c0.29,0.29,0.56,0.97,0.44,2.01c-1.67,3.26-2.95,6.77-4.19,10.02c-0.17,0.45,0.62-0.03,1.02-0.32
		c0.06,0.06,0.16,0.07,0.23-0.01c2.53-3.23,2.12-3.78,3.42-6.9c1.48-3.54,3.28-7.1,5.79-10.09c0.03,0.01,0.05,0,0.08,0.02
		c0.02,0.01,0.01,0.18-0.02,0.44c-1.64,3.35-1.97,7.23-3.34,10.69c-0.28,0.71,1.72-0.5,2.57-3.11c1.72-4.32-0.06-5.61,6.79-13.45
		c0.51-0.39,0.69-0.27,0.7,0.1c-1.65,2.91-4.08,7.16-3.21,10.35c0.03,0.1,0.17,0.16,0.24,0.06c1.83-2.46,2.19-5.97,3.67-8.72
		c1.18-2.2,2.56-4.3,3.98-6.38c-0.06,0.64-0.19,1.86-0.3,2.92c-1.45,2.69-2.77,5.92-2.3,8.79c0.26,1.6,2.74-6.83,4.61-10.01
		c1.72-2.69,2.58-3.91,3.95-5.55c0.09,0.12,0.04,0.55-0.06,1.09c-1.5,2.32-3.01,4.91-2.36,7.57c0.03,0.12,0.21,0.17,0.26,0.03
		c0.1-0.28,0.21-0.55,0.31-0.83c0.16-0.01,0.32-0.11,0.36-0.29c1.1-4.57,8.84-15.69,8.4-12.61c-4.02,4.86-4.62,10.53-3.9,9.3
		c0.42-0.72,0.84-1.43,1.25-2.13c0.13,0.01,0.26-0.05,0.32-0.22C98.33,131.49,103.06,123.69,109.3,119.25z M76.64,144.11
		c-0.15,0.23-0.28,0.49-0.41,0.73c0.02-0.13,0.05-0.25,0.07-0.38C76.41,144.34,76.53,144.23,76.64,144.11z"/>
</g>
</svg>
