<?xml version="1.0" encoding="utf-8"?>
<!-- Generator: Adobe Illustrator 27.5.0, SVG Export Plug-In . SVG Version: 6.00 Build 0)  -->
<svg version="1.1" id="Layer_1" xmlns="http://www.w3.org/2000/svg" xmlns:xlink="http://www.w3.org/1999/xlink" x="0px" y="0px"
	 viewBox="0 0 212.01 212.14" style="enable-background:new 0 0 212.01 212.14;" xml:space="preserve">
<style type="text/css">
	.st0{fill:#e72749;}
</style>
<g>
	<g>
		<path class="st0" d="M171.61,0.92c-11.64,21.41-38.75,40.15-63.48,42.53c-24.37,2.34-45.15-9.4-68.82,2.42
			C22.34,54.33,5.19,72.82,0.86,91.75c-4.68,20.42,10.7,42.15,23.78,56.28c3.36,3.62,8.75-1.15,5.75-5.01
			C20.03,129.7,7.15,114.03,9.46,96.35c1.99-15.25,12.36-28.69,24.61-37.83c23.77-17.73,45.89-5.96,71.88-7.75
			c27.16-1.87,57.88-23.77,69.17-48.15C176.05,0.62,172.67-1.03,171.61,0.92L171.61,0.92z"/>
	</g>
	<g>
		<path class="st0" d="M144.39,52c-31.84,32.18-99.72,24.31-115.13,72.9c-10.72,33.81,26.29,88.09,63.25,61.98
			c2.65-1.87,0.18-5.92-2.65-5.37c-27.44,5.26-54.01-9.83-53.77-40.63c0.19-24.65,17.46-37.61,38.07-46.05
			c25.77-10.55,54.32-18.26,72.67-40.7C147.96,52.72,145.67,50.71,144.39,52L144.39,52z"/>
	</g>
	<g>
		<path class="st0" d="M161,67.71c-11.27,12.58-19.33,27.13-25.12,42.97c-8.23,22.52-9.73,44.88-26.66,63.34
			c-2.27,2.47,0.13,7.42,3.57,5.37c14.12-8.41,18.83-23.78,22.65-39.01c6.34-25.23,13.66-48.28,28.68-69.91
			C165.45,68.56,162.61,65.91,161,67.71L161,67.71z"/>
	</g>
	<g>
		<path class="st0" d="M71.28,195.97c34.42,25.48,78.55,21.23,101.57-15.44c11.02-17.56,8.88-34.75,6.52-54.5
			c-4.02-33.63,5.92-59.44,31.73-82.05c2.34-2.05-0.25-6.26-3.1-4.65c-34.41,19.48-40.47,57.71-36.16,93.47
			c3.02,25.01-2.81,52.97-27.45,65.84c-23.75,12.41-48.39,2.26-70.73-7.62C70.68,189.7,68.89,194.2,71.28,195.97L71.28,195.97z"/>
	</g>
	<g>
		<path class="st0" d="M172.8,1.63c-0.53,12.19,1.73,23.89,0.14,36.24c-0.23,1.77,1.68,3.25,3.33,2.88
			c10.31-2.3,20.15-1.59,30.02,2.13c3.47,1.3,5.28-4.19,1.79-5.48c-10.77-3.97-21.73-4.66-32.92-2.09c1.11,0.96,2.22,1.92,3.33,2.88
			c1.41-11.6,2.54-26.27-2.37-37.22C175.41-0.66,172.88-0.09,172.8,1.63L172.8,1.63z"/>
	</g>
	<g>
		<path class="st0" d="M66.68,108.45c-10.14,4.09-18.22,12.33-20.27,23.32C44.53,141.87,47.81,155.3,57,161
			c2.28,1.41,4.26-1.32,2.91-3.33c-5.43-8.1-10.44-14.89-8.63-25.31c1.67-9.61,7.95-17.18,16.78-21.11
			C69.91,110.42,68.53,107.7,66.68,108.45L66.68,108.45z"/>
	</g>
	<g>
		<path class="st0" d="M75.03,170.53c11.09,3.27,24.03,0.07,31.62-8.97c1.84-2.2-1.65-5.04-3.72-3.25
			c-7.9,6.81-16.66,10.15-27.22,8.55C73.6,166.53,73,169.93,75.03,170.53L75.03,170.53z"/>
	</g>
	<g>
		<path class="st0" d="M36.63,65.05c-20.14,15.37-23.85,44.03-6.08,62.96c2.76,2.94,7.45-1.11,4.74-4.13
			C20.1,107,20.7,82.27,38.82,67.57C40.5,66.2,38.32,63.76,36.63,65.05L36.63,65.05z"/>
	</g>
</g>
</svg>
