<?xml version="1.0" encoding="utf-8"?>
<!-- Generator: Adobe Illustrator 27.5.0, SVG Export Plug-In . SVG Version: 6.00 Build 0)  -->
<svg version="1.1" id="Layer_1" xmlns="http://www.w3.org/2000/svg" xmlns:xlink="http://www.w3.org/1999/xlink" x="0px" y="0px"
	 viewBox="0 0 237.76 258.68" style="enable-background:new 0 0 237.76 258.68;" xml:space="preserve">
<style type="text/css">
	.st0{fill-rule:evenodd;clip-rule:evenodd;fill:#F3F3F3;}
</style>
<g>
	<path class="st0" d="M85.88,68.5c-0.08,0.11-0.13,0.23-0.19,0.34C74.21,46.31,47.48,16.55,36.08,7.13c-2.94-1.09-6.12,0.1-7.1,2.66
		c-0.98,2.56,0.61,5.51,3.56,6.6C68.29,46.56,69.06,57.08,90.4,87.94c0.67-0.45,0.64-0.6,0.67-1.41c0.11-2.96-0.69-6.49-2.13-10.38
		c2.39,0.85,5.07,0.24,6.46-1.63c9.81-16.07,23.56-28.34,44.24-33.9c2.33-0.62,3.81-0.93,5.23-1.12
		c-2.82,4.89-5.45,11.72,4.03,10.55c34.12-4.24,49.24,7.7,51.32,7.62l0.35-0.07c-0.2-0.39-0.07-0.23-0.38-0.5l0.08,0.05l-4.97-4.11
		c-16.69-11.15-35.33-8.23-45.1-8.56c4.31-6.62,12.88-16.9-13.4-11.15C114.35,38.22,97.26,51.49,85.88,68.5z"/>
	<path class="st0" d="M64.88,89.84c3.1,0.21,5.61-1.86,5.59-4.63c0-0.71-0.18-1.39-0.48-2.02c0.63,0.64,1.23,1.27,1.87,1.93
		c2.66,1.61,6.11,1.1,7.71-1.16c1.6-2.26,0.73-5.4-1.93-7.02C51.03,47.88,39.26,40.36,8.93,16.62c9.06,2.43,15.71-0.55,20.79-8.2
		C42.37-10.63-15.8,6.59,4.24,21.16C31.82,41.19,46.06,58.3,67.52,80.63c-0.81-0.45-1.72-0.75-2.69-0.82
		c-30.59,1.3-54.38,55.88-44.85,79.37C22.12,139.28,40.33,89.44,64.88,89.84z M26.39,4.16l0.02,0.01l0.02,0.09
		C26.41,4.24,26.4,4.22,26.39,4.16z M8.04,15.92C4.6,13.22,18.81,3,26.44,4.32c0.35,3.3-7.99,12.56-16.97,11.58
		c-0.33-0.04-0.94-0.05-1.22,0.18L8.04,15.92z"/>
	<path class="st0" d="M76.55,210.28c2.6,1.85,7.69,5.13,12.48,7.74c2.55,3.71,4.86,7.52,8.93,10.13
		c32.09,20.54,32.99,15.95,29.29,8.57c12.94,8.56,32.76,20.14,35.22,12.54c5.58,2.63,11.43,5.36,13.82,7.46
		c2.09,2.2,5.64,2.6,7.94,0.91c1.94-1.43,2.34-3.91,1.16-5.97c9.56-6.3,24.63-16.69,24.61-28.72c1.63,0.51,3.29,0.28,4.65-1.25
		c9.88-11.2,8.15-34.2,8-49.87c17.21,7.38,7.74-19.56,5.29-32.7c1.71,0.79,3.35,1.49,5.49,1.15c15.33-2.48-14.18-35.29-22.67-44.4
		c28.73-1.04,0.57-17.91-6.52-26.58c1.23-0.81,2.83-1.65,3.76-2.17c2.53-1.43,3.12-4.52,1.32-6.9c-1.8-2.38-5.31-3.17-7.84-1.74
		c-3.7,2.19-6.09,4.17-7.5,5.99c-33.83-6.11-79.93,26-90.31,38.14c-3.97-4.12-7.95-8.26-11.89-12.44c-2.03-2.24-5.58-2.73-7.92-1.1
		c-2.35,1.64-2.61,4.79-0.58,7.03c0.8,0.79,1.58,1.57,2.37,2.36c-1.47-0.55-3.12-0.6-4.57,0.03
		c-20.39,14.26-35.15,26.15-41.82,50.25c-1.71,6.19-3.03,14.95-0.29,21.5c0.88-0.41,0.9-0.53,1.06-1.45
		c5.1-30.13,18.99-44.31,46.59-61.18c2.33-1.01,3.34-3.37,2.6-5.61c6.76,6.68,13.3,13.02,19.58,19.19
		c-0.57-0.41-1.21-0.76-1.93-0.98c-3-0.92-6.07,0.46-6.86,3.08c-7.39,28.16-16.52,64.05-2.19,93.52c-0.62-0.34-1.2-0.63-1.7-0.82
		c-14.96-14.37-19.72-4.2-37.61-35.84c-8.03-14.21-11.75-3.23-12.47,7c-9.87-11.58-12.54-21.53-11.65-36.59
		c-0.08-2.77-2.65-5.15-5.75-5.31c-3.1-0.16-5.56,1.96-5.48,4.74c-0.52,21.03,5.3,32.62,23.01,49.69c5.32,5.13,10.66,3.12,8.34-6.75
		c-0.18-0.75,0.15-2.57,0.48-4.89C58.87,194.77,57.21,196.51,76.55,210.28z M94.85,220.85c1.28,0.52,2.41,0.89,3.3,1.02
		c8.71,6.45,10.54,9.17,19.74,11.88c0.26,0.38,0.52,0.76,0.79,1.15C106.22,230.51,99.93,225.04,94.85,220.85z M191.8,74.01
		c1.18,0.42,2.38,0.46,3.47,0.22c3.82,3.94,10.54,7.79,14.97,12.77c-31.29,1.97,7.64,21.67,16.73,44.13
		c-8.72-1.69-8.57,2.98-6.74,10.77c-0.09-0.08-0.17-0.16-0.27-0.23c-24.79-15.64-74.27-43.34-102.79-29.23
		c36.76-1.47,66.85,16.34,96.29,36.94c2.53,1.79,6.03,1.51,7.83-0.61c0.19-0.23,0.33-0.46,0.47-0.71c1.3,5.29,2.58,11.36,2.47,17.61
		c-9.66-4.28-10.53,0.32-8.88,16.1c1.64,15.73,2.81,13.12-2.51,31.31c-0.4,1.37-1.14,3.79-2.05,5.32c-0.82-0.51-1.58-1.02-2.27-1.74
		l0.09,0.15l-4.09,1.71l0.01,0.02l0,0l0.01,0.01c5.9,11.51-13.27,26.3-19.55,32.54c-0.13-0.17-0.25-0.35-0.4-0.51
		c-3.62-2.98-27.12-16.72-31.95-12.78c-1.49,1.22-1.67,2.53-1.36,3.9c-1.32-0.62-2.78-1.39-4.33-2.27
		c3.31-27.02-1.31-32.36,13.34-56.07c0.08-0.12,0.12-0.26,0.18-0.39c8.4,14.73,14.75,31.19,18.48,51.07l1.96,11.45
		c2.09-26-4.66-48.5-16.39-69.22c19.01,6.68,31.75,12.29,47.04,26.74c0.75,0.71,1.25,0.73,2.07,0.35
		c-14-22.33-26.92-27.58-53.54-39.11c-1.08-0.35-2.18-0.4-3.18-0.2c-14.15-20.92-32.87-40.29-51.89-60.04
		C114.72,93.88,171.51,68.87,191.8,74.01z M110.87,126.63c0.45-1.5,0.03-3.07-0.95-4.32c18.14,17.85,33.99,34.33,46.24,53.51
		c-2.32-0.49-4.7,0.32-5.84,2.2c-13.43,27.28-10.28,30.63-3.91,61.1c-14.09-8.05-35.26-23.86-32.07-11.72
		c0.17,0.66,0.6,1.54,1.17,2.56l-0.56-0.28c-1.16-0.64-8.93-7.49-14.71-11.36C94.87,174.15,97.31,167.85,110.87,126.63z"/>
</g>
</svg>
