<?xml version="1.0" encoding="utf-8"?>
<!-- Generator: Adobe Illustrator 27.5.0, SVG Export Plug-In . SVG Version: 6.00 Build 0)  -->
<svg version="1.1" id="Layer_1" xmlns="http://www.w3.org/2000/svg" xmlns:xlink="http://www.w3.org/1999/xlink" x="0px" y="0px"
	 viewBox="0 0 303.46 330.99" style="enable-background:new 0 0 303.46 330.99;" xml:space="preserve">
<style type="text/css">
	.st0{fill:#F3F3F3;}
</style>
<g>
	<path class="st0" d="M206.77,2.1c-0.06,0.23-6.39,22.73-22.48,32.62c-8.18,5.02-22.42,0.55-27.22-1.59
		c-0.95-0.42-2.05-0.3-2.88,0.33c-0.83,0.62-1.25,1.67-1.1,2.68c0.94,6.54,1.93,25.12-4.69,32.38c-2.01,2.21-4.58,3.2-7.86,3.03
		c-15.45-0.78-22.62-33.41-24.08-45.91c-0.1-0.85-0.58-1.61-1.3-2.08c-0.73-0.46-1.62-0.57-2.43-0.29
		c-0.22,0.07-21.79,7.3-31.04,6.54c-19.41-1.61-34.3-12.24-34.45-12.35c-1.07-0.77-2.52-0.71-3.52,0.14c-1,0.85-1.28,2.28-0.69,3.46
		c0.07,0.15,7.41,14.76,8.31,35.3c0.47,10.92-10.94,24.18-11.05,24.31c-0.5,0.57-0.84,1.33-0.69,2.08c0.06,0.76,0.41,1.46,0.99,1.95
		c12.66,10.84,32.7,31.4,32.61,40.48c-0.01,1.13-0.35,1.91-1.1,2.52c-10.43,8.56-30.17-3.9-30.37-4.03
		c-0.92-0.59-2.11-0.6-3.04-0.02c-0.93,0.58-1.43,1.64-1.33,2.74c0.53,4.75,0.96,18.47-3.39,24.76
		c-5.65,8.16-32.64,30.91-32.91,31.14c-0.7,0.59-1.06,1.46-1.01,2.34c0.01,0.23,0.05,0.46,0.12,0.68c0.34,1.09,1.3,1.88,2.44,1.99
		c0.38,0.04,38.6,4.11,46.61,27.35c2.85,8.26-2.73,24.45-5.13,29.99c-0.44,1.02-0.24,2.2,0.5,3.03c0.74,0.83,1.9,1.15,2.96,0.82
		c0.23-0.07,22.91-6.89,43.55,2.34c22.38,9.99,31.98,30.19,32.07,30.39c0.4,0.86,1.2,1.47,2.14,1.61c0.94,0.15,1.89-0.18,2.53-0.88
		c0.21-0.23,20.94-22.62,34.37-30.08c9.87-5.48,26.58,8.74,32.19,14.68c0.65,0.69,1.61,1.01,2.54,0.86
		c0.93-0.16,1.73-0.77,2.12-1.63c0.14-0.31,13.89-30.45,28.55-48.28c37.43,25.71,60.2,79.37,54.18,107.75
		c-0.44,2.08,0.25,3.93,1.84,4.95c4.91,3.15,17.25-3.88,18.25-4.62c1.81-1.35,1.71-2.83,1.5-3.59c-0.07-0.25-0.18-0.49-0.31-0.71
		c-14.78-65.33-52.22-102.75-66.62-112.34c19.82-14.1,52.71-21.92,53.05-22c1.16-0.27,2.02-1.23,2.18-2.41
		c0.15-1.19-0.45-2.33-1.5-2.88c-0.31-0.16-30.97-16.61-35.77-43.37c-4.66-25.94,15.84-56.52,16.04-56.82
		c0.64-0.95,0.66-2.18,0.04-3.15c-0.62-0.96-1.76-1.46-2.89-1.26c-11.96,2.11-44.3,4.17-50.24-11.36c-7.78-20.33-5-62.21-4.97-62.63
		c0.09-1.48-0.92-2.76-2.36-3C208.55-0.2,207.16,0.69,206.77,2.1z M206.14,18.34c-0.12,14.57-0.92,39.89,4.22,53.32
		c7.01,18.33,38.95,13.24,52.11,11.82c-5.95,10.3-21.39,34.3-17.48,56.1c3.97,22.13,26.75,37.01,36.6,43.53
		c-11.85,3.33-36.85,11.43-52.19,24.01c-0.81,0.67-1.19,1.73-0.99,2.76c0.2,1.03-4.23,4.55-3.22,4.86
		c7.68,2.34,56.03,37.15,72.1,107c-2.43,1.34-7.28,3.31-9.75,3.59c6.38-34.31-22.49-90.32-58.96-114c-1.19-0.77-2.77-0.55-3.7,0.52
		c-12.86,14.76-24.94,38.76-29.33,47.91c-6.74-6.26-24.91-24.43-37.49-17.44c-11.36,6.32-25.5,26.41-31.72,32.89
		c-3.99-6.75-11.95-25.1-30.62-33.44c-16.47-7.36-35.96-1.69-44.46-0.03c2.02-5.75,9.45-21.55,6.82-31.91
		c-5.36-21.19-36.52-24.95-48.65-27.25c8.22-7.09,26.99-19.59,31.59-26.22c4.39-6.35,2.47-18.91,2.3-25.28
		c7.51,3.73,22.33,9.25,32.36,1.03c2.05-1.69,3.16-4.06,3.19-6.87c0.07-13.04-24.58-36.02-32.51-43.04
		c3.56-4.64,13.29-14.5,12.84-24.83c-0.52-12.58-5.49-24.14-7.8-30.79c6.68,3.48,19,11.85,31.5,12.88
		c8.16,0.68,21.7-7.66,28.38-9.74c1.78,11.34,10.1,51.7,30.14,52.71c5.02,0.25,8.83-3.07,12.01-6.57
		c7.35-8.07,6.36-27.83,5.78-35.85c6.61,2.17,20.35,7.31,29.28,1.83C197.29,36.42,202.17,25.7,206.14,18.34z"/>
	<path class="st0" d="M198.6,187.05c-0.03-0.12-0.06-0.23-0.07-0.35c-0.08-0.85-0.14-1.71-0.18-2.56
		c-0.85-15.31,2.64-30.66,10.41-45.67c0.57-1.1,1.19-2.34,1.85-3.67c4.55-9.13,10.77-21.64,19.08-25.75
		c1.41-0.7,3.12-0.12,3.82,1.29c0.7,1.41,0.12,3.12-1.29,3.82c-6.59,3.26-12.56,15.25-16.51,23.19c-0.68,1.36-1.31,2.63-1.89,3.75
		c-7.7,14.87-8.67,36.85-7.37,51.92c0.21,1.51-3.26-3.87-4.82-3.73c14.64,10.7,30.08,18.92,30.38,19.1c1.36,0.81,1.79,2.56,0.99,3.9
		c-0.8,1.35-4.49,4.08-5.84,3.27c-1.04-0.62-109.5-59.63-164.01-170.02c-0.19-0.39-0.32-0.79-0.34-1.2
		c-0.06-1.06,0.48-2.12,1.48-2.66c1.38-0.75,3.11-0.24,3.86,1.14C105.35,111.19,164.22,161.52,198.6,187.05z"/>
	<path class="st0" d="M174.54,66.44c0.71,1.41,0.12,3.12-1.29,3.82c-4.94,2.45-9.53,11.67-12.57,17.78
		c-0.53,1.06-1.02,2.06-1.48,2.93c-5.94,11.47-8.42,23.23-7.42,34.8c0.19,1.61-1.02,2.95-2.59,3.09c-1.57,0.14-2.95-1.02-3.09-2.59
		c-0.06-0.68-0.11-1.35-0.15-2.02c-0.67-12.04,2.08-24.1,8.18-35.89c0.44-0.85,0.92-1.82,1.44-2.85
		c3.58-7.19,8.48-17.04,15.14-20.34C172.14,64.45,173.85,65.03,174.54,66.44z"/>
	<path class="st0" d="M164.09,163.24c-0.31,1.54,5.77,4.88,4.23,4.57c-14.83-2.97-37.86-3.76-53.48,2.25
		c-1.18,0.45-2.51,0.94-3.94,1.47c-8.32,3.05-20.89,7.66-24.86,13.85c-0.85,1.33-2.61,1.71-3.94,0.86c-0.8-0.51-1.26-1.36-1.31-2.24
		c-0.03-0.58,0.11-1.17,0.45-1.69c5-7.8,18.12-12.61,27.7-16.12c1.4-0.51,2.7-0.99,3.85-1.44c16.65-6.41,33.16-8.04,49.06-4.85
		C163.4,160.2,164.39,161.69,164.09,163.24z"/>
</g>
</svg>
