<svg xmlns="http://www.w3.org/2000/svg" viewBox="0 0 155.52 94.61" width="132" height="80"><path d="M154.11 13.87l-.18-1.17-1.11-.41C152.48 12.16 118.79 0 85.46 0 60.58 0 42.1 6.6 30.53 19.62c-8.1 9.11-12.72 21.35-13.81 36.52-4.34 1.42-7.88 3.64-10.58 6.68C1.03 68.57-.9 77.09.4 88.15l.15 1.25 1.19.41c.58.2 14.26 4.8 28.28 4.8 9.52 0 16.89-2.14 21.97-6.34 10.37 1.83 22.18 3.25 33.97 3.25h.01c26.18 0 45.3-6.8 56.84-20.2 11.26-13.1 15.07-32.43 11.3-57.45z" fill="#fff"/><path d="M154.11 13.87l-.18-1.17-1.11-.41C152.48 12.16 118.79 0 85.46 0 60.58 0 42.1 6.6 30.53 19.62c-8.1 9.11-12.72 21.35-13.81 36.52 3.77-1.23 8.14-1.86 13.1-1.86 14.04 0 27.79 4.96 28.37 5.17l1.11.41.18 1.17c1.62 10.74-.05 19.08-4.96 24.79A20.13 20.13 0 0 1 52 88.27c10.37 1.83 22.18 3.25 33.97 3.25h.01c26.18 0 45.3-6.8 56.84-20.2 11.25-13.1 15.06-32.43 11.29-57.45z" fill="#52ae32"/><path d="M57.49 61.33s-13.83-5.05-27.68-5.05c-4.57 0-9.13.56-13.21 2.02C7.1 61.69.27 70.04 2.38 87.91c0 0 13.79 4.7 27.64 4.7 7.01 0 14.03-1.21 19.3-4.83 6.45-4.44 10.27-12.5 8.17-26.45z" fill="#95609c"/><path d="M81.69 27.98c-1.51-1.23-9.79.86-7.52 3.12 1.05-.84 2.45-.17 2.14 1.18.1.62-2.76 16.64-1.84 16.68 1.46 1.6 5.88 1.13 6.12-1.35-.32-2.12 4.19-18.92 1.1-19.63zM71.53 45.12c-.79 1.19-2.33 1.36-1.84-.87h0c.1-1.33 1.92-12.28 1.6-13.33-1.02-6.1-8.38-2.34-10.97.7-.11-6.71-8.47-3.44-11.14 0 1.76-7.16-11.32-2.94-8.57-.51.98-.8 2.38-.31 2.1 1.08.11.69-2.82 16.67-1.81 16.77 1.46 1.55 5.86 1.18 6.07-1.31l1.91-13.8c9.69-10.08 1.27 12.74 3.15 15.11 1.45 1.56 5.87 1.17 6.08-1.31l1.91-13.8c.93-1.45 4.99-4.37 4.84-.82l-1.9 13.76c-.35 1.9 1.36 3.16 3.24 3.06 1.62.45 7.32-2.97 5.94-4.43-.24-.28-.4-.49-.61-.3zm65.51.3c-.24-.27-.4-.48-.61-.29-.78 1.19-2.34 1.36-1.84-.87h0c.1-1.33 1.92-12.28 1.59-13.33-1.02-6.1-8.38-2.34-10.97.7-.11-6.71-8.47-3.44-11.14 0 1.76-7.16-11.31-2.94-8.57-.51.98-.8 2.38-.31 2.1 1.08.11.69-2.82 16.67-1.81 16.77 1.46 1.55 5.86 1.18 6.07-1.31l1.91-13.8c9.69-10.08 1.27 12.74 3.15 15.11 1.45 1.56 5.87 1.17 6.08-1.31l1.91-13.8c.93-1.45 4.99-4.37 4.84-.82l-1.9 13.76c-.35 1.9 1.36 3.16 3.24 3.06 1.63.43 7.33-2.98 5.95-4.44zm-33.78-.37c-.96 1.07-2.37 1.84-2.02-.73.02-2.13 2.21-11.37 1.15-13.23-2.7-6.46-19.11-3.29-15.68 3.55 1.48 1.88 6.45.25 5.08-2.33-1.44-.98-3.26-1.1-.61-2.47 5.44-2.59 7.7 3.8 2.52 6.35-15.59 2.94-10.68 20.98 1.04 10.42.25 5.09 6.83 3.27 8.71.28.02-.06.68-.72.63-.79.01-.22-.55-1.01-.82-1.05zm-8.34-1.51c-2.65 6.31-6.5 1.77-4.07-3.17.35-1.54 4.97-4.07 5.03-2.56l-.96 5.73zM84.3 20.52s-9.11-3.37-8.27 3.59c0 .01 8.89 3.52 8.27-3.59zm22.96 34.26c.19.16.48.33.74.33h.04c.68.01.74-.37.75-.49.02-.49-.66-1.05-1.15-1.09-.31-.02-.65.15-.7.72 0 .22.17.41.32.53zm9.56 0c.19.16.48.33.74.33h.04c.69.01.74-.37.75-.49.02-.49-.66-1.05-1.15-1.09-.31-.02-.65.15-.7.72 0 .22.18.41.32.53zm-27.13 6.31l.09-.15c.08.59.01 1.46-.03 2.04-.04.54-.05.78-.02.91-.07.66.22 1.07.51 1.24.24.14.52.12.72-.03.13-.09.4-.39.21-1.07l-.02-.06-.04-.04c-.18-.2-.15-1.3-.13-2.1.04-1.52.04-2.47-.4-2.77a.54.54 0 0 0-.13-.07c.17-1.2-.03-1.93-.6-2.17-1.21-.51-3.4 1.62-4.59 3.17-.62.81-2.56 3.57-1.43 4.88l.08.06c.43.22.84.31 1.23.31 2 0 3.5-2.44 4.55-4.15zm-4.66 2.71c-.09-.07-.13-.33.04-.86.59-1.85 2.96-4.76 3.97-4.94.3.16.47.37.52.65.11.64-.3 1.96-2.95 4.63-1.22.72-1.53.56-1.58.52zm8.37 1.4c1.33.22 3.34-3.34 4.24-5.22l-.01.92c-.03 1.73-.05 3.52.74 4.17a1.08 1.08 0 0 0 .7.24 1.24 1.24 0 0 0 .27-.03l.1-.02.06-.08c.11-.14.4-.52-.01-.96-.7-.96-.69-3.17-.68-4.94l-.04-1.91c-.1-.39-.47-.67-.83-.61-.25.04-.5.24-.49.71-.38 1.21-1.69 4.94-3.66 6.22-.37-.64-.11-2.87.17-4.01l.01-.03v-.03c-.01-.26.22-.71.43-1.11.3-.57.55-1.06.35-1.39-.07-.11-.21-.24-.51-.26l-.09-.01-.07.05c-1.28.95-1.49 3.76-1.61 5.44l-.02.26c0 1.67.3 2.49.95 2.6zm8.11.27c.03 0 .06 0 .08-.01.23-.01.37-.11.45-.2.25-.27.21-.71.17-1.06-.01-.08-.02-.16-.02-.27-.42-1.99 1.11-5.1 2.53-5.94.13.01.25.14.41.33.17.2.36.43.65.44.17.01.35-.08.53-.25.26-.23.29-.48.27-.65-.05-.41-.46-.8-.88-1.01-1.85-.63-2.92 1.37-3.64 2.96v-.02c.07-1.29.15-2.62-.54-2.79-.15-.09-.33-.07-.45.05-.7.67-.34 7.69.19 8.3.06.07.15.12.25.12zm7.36-5.26c.11-2.83-.14-3.49-.54-3.61-.38-.11-.66.33-.77.49l-.05.09.02.1c.09.39.09 1.4.09 2.48 0 2.8.05 4.99.73 5.56.12.1.27.16.42.16.03 0 .07 0 .1-.01l.19-.03.03-.18c.14-.91.03-1.66-.09-2.46-.11-.74-.22-1.51-.13-2.46v-.13zm2.82 5c.12.03.24.05.36.05 1.01 0 2.28-1.08 3.78-3.22l.02-.03c.31-.6.43-.9.19-1.06-.27-.17-.49.04-1.61 1.34l-.61.69c-1.16 1.05-1.62.97-1.76.89-.31-.17-.46-.98-.12-2.38.43-1.78 1.5-3.74 2.52-3.92.04.1.06.33.07.46.01.2.03.39.08.53l.04.07c.26.31.51.21.58.17.39-.22.33-1.17.12-1.73-.23-.59-.64-.88-1.18-.78-2.64.96-3.76 4.51-3.68 6.61.04 1.27.48 2.11 1.2 2.31zm6.75-5c.11-2.83-.14-3.49-.54-3.61-.38-.11-.66.33-.76.49l-.06.09.02.1c.09.39.09 1.4.09 2.48 0 2.8.05 4.99.73 5.56.12.1.27.16.42.16.03 0 .07 0 .1-.01l.19-.03.03-.18c.14-.91.03-1.66-.09-2.46-.11-.74-.22-1.51-.13-2.46v-.13zm8.66.72c-.03-.27-.17-.35-.28-.37-.3-.05-.49.27-.99 1.2-.22.42-.6 1.12-.74 1.2l-.05.02-.04.04c-.81.85-1.73 1.08-2.47.63-.7-.43-1.16-1.52-.71-2.81 2.51-.26 4.02-1.56 4.36-2.67.16-.52.05-.98-.3-1.26-.36-.28-1.28-.58-3.33.56l-.05.04c-2.39 2.24-2.55 4.55-1.9 5.97.5 1.09 1.5 1.77 2.58 1.77.06 0 .12 0 .17-.01.77-.05 2.69-.57 3.76-4.22l.01-.05-.02-.04zm-3.34-2.97c.21-.09.42-.14.62-.14.17 0 .33.03.49.1.11.16.09.27.06.35-.23.59-1.8 1.15-2.76 1.38.31-.66.91-1.39 1.59-1.69zm-41.25-4.89l-.16-.06c-3.12-1.19-5.82 4.32-7.6 8.39.92-6.27 0-6.74-.41-6.95-.29-.15-.78-.21-1.41.36-2.37 2.18-6.09 12.55-4.2 16.62.08.19.24.33.45.36a.45.45 0 0 0 .11.01.62.62 0 0 0 .49-.23c.14-.17.18-.4.11-.56-1.14-3.7.99-11.01 2.9-14.23.52-.87.84-1.14.97-1.21.16.29.66 1.92-.84 9.72l-.01.06c-.01.2-.05.75.44.86.57.14.71-.19 1.84-2.73 1.27-2.86 4.2-9.45 6.23-9.56.75 1.11-.37 5.64-1.19 8.99-.92 3.72-1.72 6.95-1.16 8.34.06.19.21.33.41.39.22.06.45 0 .61-.16.16-.15.22-.38.15-.6-.38-1.13.48-4.84 1.25-8.11 1.19-5.11 1.86-8.31 1.11-9.55l-.09-.15zM68.92 71.33c-.01-.02-.01-.04-.02-.05.01.02.02.04.02.05h0zm54.39-1.62c-8.81-1.78-28.12-1.65-36.9.26a.5.5 0 0 0-.39.6c.05.23.27.39.5.39.04 0 .07 0 .11-.01 8.68-1.88 27.77-2.02 36.47-.26.27.05.55-.12.61-.39s-.12-.54-.4-.59zm-73.13-3.23c-.09-.2-.27-.31-.54-.34-.31-.04-.59.04-.85.25-.26.2-.52.49-.79.86l-1.22 1.67a.9.9 0 0 0-.14.22c-.03.07-.03.13.02.19.04.05.1.08.19.08a.8.8 0 0 0 .26-.05l1.79-1.06c.35-.18.62-.35.83-.54.21-.18.36-.4.46-.65.08-.23.08-.43-.01-.63zm-29.76 5.98c.18-.49.25-.91.23-1.25-.03-.34-.14-.59-.35-.77-.21-.17-.5-.26-.88-.26-.54 0-1.03.13-1.46.39-.44.26-.77.61-1 1.04-.08.15-.12.27-.12.37s.04.17.11.21c.06.03.13.03.2.01s.15-.08.25-.16c.15-.14.27-.24.37-.29s.19-.08.27-.08c.14 0 .23.09.28.26s-.02.47-.17.9L16.9 76.2c-.16.46-.24.85-.24 1.18.01.33.11.58.32.75.21.18.52.26.93.26.56 0 1.06-.13 1.5-.38.44-.26.77-.6 1-1.02.08-.15.12-.28.12-.38s-.04-.17-.12-.21c-.06-.03-.13-.03-.19-.01-.07.02-.15.08-.24.17a1.47 1.47 0 0 1-.36.28c-.1.05-.19.08-.27.08-.14 0-.23-.09-.28-.26-.04-.17.01-.47.17-.9l1.18-3.3zm1.17-4.34a1.41 1.41 0 0 0 .26-.75c.02-.31-.07-.58-.28-.8s-.54-.33-1-.33c-.36 0-.68.07-.96.21-.27.14-.49.33-.65.55-.16.23-.25.47-.26.72a.94.94 0 0 0 .31.79c.23.22.56.33.99.33.36 0 .68-.07.95-.2.27-.12.48-.29.64-.52zm-5.33 2.79c-.1-.05-.24-.08-.42-.08h-1.21c.02-.16.02-.32-.02-.49-.06-.26-.14-.51-.24-.77l-.26-.72c-.07-.23-.08-.44-.04-.63.06-.24.16-.44.31-.59s.34-.23.57-.23c.16 0 .31.05.46.14s.3.2.45.31c.15.12.32.22.49.31a1.2 1.2 0 0 0 .57.14c.32 0 .57-.1.77-.31s.29-.47.29-.8c0-.32-.14-.59-.42-.83s-.7-.36-1.27-.36c-.95 0-1.7.27-2.26.82s-.96 1.35-1.19 2.39l-.38 1.58h-.94c-.19 0-.33.04-.42.11-.1.1-.14.19-.14.31 0 .08.03.17.09.24.06.08.19.16.39.25.32.06.52.16.59.32s.06.41-.03.76l-1.99 7.01c-.16.57-.18 1-.06 1.29s.38.43.79.43c.38 0 .74-.05 1.08-.16s.62-.25.83-.42c.22-.18.32-.36.32-.55 0-.14-.04-.25-.13-.34l-.26-.28c-.09-.1-.13-.23-.13-.4a2.36 2.36 0 0 1 .03-.35 3.42 3.42 0 0 1 .1-.45l1.8-6.71h1.04c.2 0 .37-.03.51-.09s.26-.13.34-.23c.09-.1.13-.2.13-.31.02-.16-.04-.25-.14-.31zm33.51 1.71a.23.23 0 0 1-.18-.12c-.04-.07-.07-.15-.08-.25-.03-.39-.14-.74-.31-1.05a1.81 1.81 0 0 0-.76-.74c-.33-.18-.75-.28-1.25-.28-.65 0-1.26.13-1.84.39a4.96 4.96 0 0 0-1.54 1.07c-.45.46-.81.98-1.09 1.58s-.44 1.23-.5 1.91c-.05.68.02 1.26.23 1.75a2.23 2.23 0 0 0 1 1.12c.47.26 1.07.39 1.81.39.81 0 1.5-.12 2.08-.37s1.04-.58 1.39-.99.58-.84.7-1.31c.05-.2.05-.35-.02-.44a.3.3 0 0 0-.26-.14c-.09-.01-.17.02-.25.07s-.17.15-.27.29c-.16.32-.37.6-.62.83a2.68 2.68 0 0 1-.82.53c-.3.12-.61.18-.94.18-.59 0-1.03-.21-1.33-.63-.24-.35-.36-.84-.36-1.46.04-.01.1-.03.14-.05l1.23-.4 1.34-.44 1.24-.4.91-.29c.23-.07.38-.14.46-.23a.39.39 0 0 0 .12-.27c0-.07-.02-.13-.06-.17-.03-.04-.09-.06-.17-.08zm-3.1.93l-1.11.38-.94.32a6.68 6.68 0 0 1 .24-1.15c.14-.44.32-.81.53-1.13s.43-.56.67-.74.47-.26.7-.26c.24 0 .42.11.56.33s.2.5.2.85c0 .29-.02.55-.05.78a2.78 2.78 0 0 1-.08.36l-.72.26zm-6.02-2.12h1.4c.25 0 .45-.05.59-.15s.22-.24.22-.42c0-.2-.11-.3-.33-.3h-1.62l.27-.92c.05-.15.08-.29.1-.4.02-.12.03-.21.03-.28a.4.4 0 0 0-.09-.27c-.06-.07-.16-.1-.29-.1a.73.73 0 0 0-.3.06.94.94 0 0 0-.27.2l-1.14 1.29c-.11.12-.23.21-.35.28s-.26.1-.42.1h-.65c-.17 0-.31.04-.41.11s-.15.17-.15.28a.4.4 0 0 0 .08.23.5.5 0 0 0 .23.16l.56.14c.14.04.22.12.24.24s-.01.33-.1.63l-1.09 3.54c-.16.57-.23 1.04-.21 1.41.03.37.16.65.4.84s.59.28 1.06.28c.45 0 .88-.07 1.27-.2a4.03 4.03 0 0 0 1.04-.51 3.15 3.15 0 0 0 .72-.68c.18-.24.29-.47.32-.7.02-.1 0-.17-.04-.23-.05-.05-.1-.08-.18-.08-.06 0-.12.02-.17.05s-.12.09-.2.17c-.23.25-.44.43-.65.54a1.32 1.32 0 0 1-.64.16c-.29 0-.47-.09-.56-.27-.08-.18-.05-.53.11-1.04l1.22-4.16zm-5.09-1.24c-.33 0-.68.09-1.02.27-.35.18-.69.45-1.02.82-.32.35-.61.78-.88 1.29l.25-.7c.09-.29.13-.55.13-.77 0-.29-.09-.52-.26-.67s-.43-.23-.76-.23a3.12 3.12 0 0 0-1.02.17c-.32.12-.61.28-.86.5-.26.22-.46.47-.62.76-.08.15-.12.28-.11.38 0 .1.04.17.11.21.06.03.13.03.19.01.07-.02.15-.08.25-.16a1.56 1.56 0 0 1 .36-.29.63.63 0 0 1 .28-.08c.14 0 .23.09.27.26s-.01.47-.16.9l-1.29 3.82c-.13.38-.2.7-.2.96s.07.46.22.59.38.2.69.2c.46 0 .84-.04 1.15-.12s.54-.19.7-.32c.16-.14.24-.28.24-.44 0-.15-.03-.26-.1-.33s-.13-.15-.2-.23-.1-.2-.1-.36c0-.19.03-.41.09-.65l.28-.96c.26-.77.52-1.41.79-1.91s.54-.87.79-1.12c.26-.24.49-.37.7-.37.12 0 .22.04.28.11.06.08.09.18.09.3a1.21 1.21 0 0 1-.06.38 1.27 1.27 0 0 0-.06.39.57.57 0 0 0 .19.43c.12.12.33.18.6.18.24 0 .47-.07.69-.2.22-.14.39-.33.53-.59s.21-.56.23-.92c.02-.44-.09-.8-.33-1.08-.24-.29-.59-.43-1.05-.43zm-6.84 2.43a.23.23 0 0 1-.18-.12c-.04-.07-.07-.15-.08-.25-.03-.39-.14-.74-.31-1.05a1.81 1.81 0 0 0-.76-.74c-.33-.18-.75-.28-1.25-.28-.65 0-1.26.13-1.84.39a4.96 4.96 0 0 0-1.54 1.07c-.45.46-.81.98-1.09 1.58s-.44 1.23-.5 1.91c-.05.68.02 1.26.23 1.75a2.23 2.23 0 0 0 1 1.12c.47.26 1.07.39 1.81.39.81 0 1.5-.12 2.08-.37s1.04-.58 1.39-.99.58-.84.7-1.31c.05-.2.05-.35-.02-.44a.3.3 0 0 0-.26-.14c-.09-.01-.17.02-.25.07s-.17.15-.27.29c-.16.32-.37.6-.62.83a2.68 2.68 0 0 1-.82.53c-.3.12-.61.18-.94.18-.59 0-1.03-.21-1.33-.63-.24-.35-.36-.84-.36-1.46.04-.01.1-.03.14-.05l1.23-.4 1.34-.44 1.24-.4.91-.29c.23-.07.38-.14.46-.23a.39.39 0 0 0 .12-.27c0-.07-.02-.13-.06-.17s-.1-.06-.17-.08zm-3.1.93l-1.11.38-.94.32a6.68 6.68 0 0 1 .24-1.15c.14-.44.32-.81.53-1.13s.43-.56.67-.74.47-.26.7-.26c.24 0 .42.11.56.33s.2.5.2.85c0 .29-.02.55-.05.78-.02.14-.05.25-.08.36l-.72.26z" fill="#fff"/></svg>