<?xml version="1.0" encoding="utf-8"?>
<!-- Generator: Adobe Illustrator 27.5.0, SVG Export Plug-In . SVG Version: 6.00 Build 0)  -->
<svg version="1.1" id="Layer_1" xmlns="http://www.w3.org/2000/svg" xmlns:xlink="http://www.w3.org/1999/xlink" x="0px" y="0px"
	 viewBox="0 0 250.73 243.12" style="enable-background:new 0 0 250.73 243.12;" xml:space="preserve">
<style type="text/css">
	.st0{fill:#F3F3F3;}
</style>
<g>
	<path class="st0" d="M249.95,128.4c-2.75-18.41-13.61-35.75-30.08-44.8c-10.89-5.98-23.43-9.25-35.45-12.11
		c-12.09-2.88-24.55-4.19-36.96-2.9c-2.64,0.27-5.25,0.7-7.82,1.27c-19.43,1.61-38.34,6.89-56.45,14.37
		c-22.03,9.09-44.62,20-61.89,36.83C5.38,136.58-2.09,158.01,0.5,180.09c1.25,10.7,4,21.11,9.7,30.35
		c5.36,8.68,12.71,15.87,21.31,21.31c17.4,11.01,39.89,14.72,59.57,8c11.96-4.09,22.8-10.86,33.47-17.5
		c10.81-6.72,22.49-12.34,34.12-17.48c11.74-5.19,23.77-9.64,36-13.52c6.19-1.96,12.44-3.61,18.75-5.12
		c5.85-1.4,11.9-2.42,17.43-4.87c9.7-4.3,15.09-15.43,17.67-25.2C250.91,147.1,251.31,137.56,249.95,128.4z M233.18,167.49
		c-3.51,4.24-8.02,5.87-13.19,7.25c-5.72,1.52-11.36,3.42-16.94,5.37c-11.27,3.94-22.5,7.9-33.57,12.39
		c-11,4.46-21.86,9.32-32.49,14.62c-10.59,5.28-20.94,11.05-31.5,16.4c-9.38,4.76-19.36,8.78-29.96,9.53
		c-9.29,0.66-18.58-0.79-27.32-3.99c-17.29-6.33-31.46-20.4-37.27-37.93c-1.21-3.65-2.01-7.41-2.45-11.22
		c3.06,6.91,8.36,12.98,14.69,17.17c13.9,9.2,31.63,9.74,47.34,5.69c4.77-1.23,9.61-2.78,14.07-4.88c4.69-2.2,9.12-5.42,13.48-8.21
		c1.33-0.85,0.18-2.76-1.22-2.09c-4.81,2.29-9.77,3.87-14.71,5.79c-4.76,1.85-9.46,3.68-14.44,4.87c-9.39,2.25-19.31,2.6-28.69,0.13
		c-8.9-2.35-17.15-7.31-22.41-14.99c-4.9-7.15-7.32-16.09-6.39-24.74c0.04-0.36-0.04-0.66-0.19-0.9c1.94-7.78,5.3-15.22,9.91-21.7
		c6.48-9.11,15.69-16.38,24.69-22.85c6.88-4.95,13.88-9.7,21.15-14.02c23.15-10.95,48.06-18.37,73.46-20.83
		c4.89-0.47,9.78-0.82,14.69-0.97c5.15-0.16,10.37,0.2,15.45-0.81c0.75-0.15,1.27-0.57,1.59-1.1c10,1.98,19.82,4.55,29.54,7.75
		c9.74,3.21,19.19,7.32,26.55,14.65c4.37,4.35,7.92,9.49,10.57,15.06c-0.18,4.08-0.33,7.93-2.15,11.75
		c-1.92,4.02-4.72,7.55-8.18,10.36c-7.93,6.46-18.45,9.06-28.11,11.67c-10.77,2.92-21.46,6.05-31.88,10.02
		c-10.32,3.93-20.42,8.32-30.51,12.8c-11.7,5.2-23.22,10.64-34.5,16.72c-0.56,0.3-0.07,1.1,0.49,0.84
		c21.86-10.28,44.3-18.81,67.65-25.02c11.38-3.03,22.75-5.98,34.19-8.76c10.55-2.56,21.32-5.81,29.59-13.2
		c3.16-2.82,6.22-6.65,8.36-10.88c0.88,5.81,0.9,11.77-0.08,17.52c-1.03-0.54-2.44-0.43-3.35,0.8
		c-5.15,6.99-10.92,12.69-18.59,16.88c-7.42,4.06-15.98,6.33-24.44,6.49c-2.01,0.04-1.93,2.88,0,3.07
		c16.29,1.64,34.35-5.75,44.26-19.16C238.72,159.36,236.36,163.65,233.18,167.49z"/>
	<path class="st0" d="M97.37,213.11c-8.31,5.45-17.82,8.85-27.64,10.36c-4.86,0.75-9.85,1.02-14.76,0.78
		c-2.46-0.12-4.92-0.24-7.37-0.52c-2.4-0.27-4.81-1-7.23-1.05c-0.84-0.02-1.12,1.14-0.42,1.56c3.9,2.31,9.63,3.14,14.09,3.54
		c5.26,0.47,10.55,0.27,15.77-0.54c10.44-1.62,20.23-5.83,28.83-11.94C99.96,214.37,98.75,212.2,97.37,213.11z"/>
	<path class="st0" d="M146.23,179.82c0.63-1.82-2.2-3-3.1-1.31c-1.43,2.69-2.53,5.52-3.12,8.51c-0.54,2.71-1.16,5.89,0.44,8.32
		c1.09,1.65,3.32,1.24,3.99-0.52c0.86-2.27,0.16-4.79,0.23-7.17C144.76,184.95,145.35,182.37,146.23,179.82z"/>
	<path class="st0" d="M157.4,176.53c-0.35,2.01-0.68,4.03-1.05,6.04c-0.36,1.96-0.94,3.92-0.73,5.92c0.29,2.73,4.02,3.5,4.92,0.67
		c0.62-1.93,0.48-3.94,0.53-5.95c0.05-2.05,0.13-4.11,0.19-6.16C161.33,174.89,157.79,174.32,157.4,176.53z"/>
	<path class="st0" d="M170.86,171.87c-0.63,3.31-1.89,7.04-1.28,10.4c0.36,1.97,3.53,2.39,4.38,0.57c1.45-3.08,1.2-7.01,1.45-10.36
		C175.6,169.9,171.35,169.29,170.86,171.87z"/>
	<path class="st0" d="M39.96,167.42c-0.09-0.32-0.25-0.6-0.49-0.83c-0.37-0.34-0.82-0.55-1.33-0.55c-0.48,0-0.99,0.21-1.33,0.55
		c-0.23,0.24-0.4,0.51-0.49,0.83c-0.09,0.33-0.09,0.67,0,1c0.05,0.36,0.08,0.68,0.28,1.01c0.21,0.35,0.52,0.57,0.87,0.77
		c0.41,0.24,0.92,0.24,1.33,0c0.34-0.2,0.66-0.42,0.87-0.77c0.2-0.33,0.23-0.65,0.28-1.01C40.05,168.09,40.05,167.75,39.96,167.42z"
		/>
	<path class="st0" d="M48.44,179.5c-2.77,0-2.78,4.31,0,4.31C51.22,183.81,51.22,179.5,48.44,179.5z"/>
	<path class="st0" d="M136.57,152.96c-3.05,0-3.06,4.74,0,4.74C139.62,157.7,139.63,152.96,136.57,152.96z"/>
	<path class="st0" d="M153.97,139.65c-0.16-0.31-0.6-0.67-0.95-0.73l-1.09-0.18c-0.62-0.1-1.27-0.04-1.73,0.46
		c-0.32,0.35-0.52,0.78-0.52,1.26c0,0.46,0.2,0.94,0.52,1.26c0.22,0.22,0.48,0.37,0.78,0.46c0.32,0.08,0.63,0.08,0.95,0l1.09-0.18
		c0.13-0.05,0.25-0.11,0.38-0.16c0.19-0.1,0.33-0.24,0.45-0.41c0.21-0.27,0.36-0.62,0.34-0.96
		C154.17,140.17,154.1,139.9,153.97,139.65z"/>
	<path class="st0" d="M166.29,145.07c-0.26-0.23-0.5-0.41-0.84-0.51c-0.1-0.03-0.19-0.05-0.29-0.07c-0.21-0.04-0.42-0.07-0.63-0.11
		c-0.65-0.11-1.33-0.04-1.81,0.48c-0.33,0.36-0.54,0.81-0.54,1.31c0,0.48,0.21,0.98,0.54,1.31c0.5,0.5,1.14,0.6,1.81,0.48
		c0.21-0.04,0.42-0.07,0.63-0.11c0.1-0.02,0.19-0.04,0.29-0.07c0.34-0.1,0.57-0.29,0.84-0.51
		C166.9,146.75,166.9,145.59,166.29,145.07z"/>
	<path class="st0" d="M188.08,130.74c-2.19,0-2.19,3.4,0,3.4C190.26,134.13,190.27,130.74,188.08,130.74z"/>
	<path class="st0" d="M221.88,141.91c-0.13-0.3-0.26-0.61-0.4-0.91c-0.23-0.53-0.92-0.84-1.47-0.84c-0.54,0-1.24,0.31-1.47,0.84
		c-0.13,0.3-0.26,0.61-0.4,0.91c-0.2,0.34-0.29,0.7-0.29,1.09c0,0.39,0.1,0.75,0.29,1.09c0.38,0.66,1.1,1.07,1.86,1.07
		c0.76,0,1.48-0.41,1.86-1.07c0.2-0.34,0.29-0.7,0.29-1.09C222.17,142.61,222.07,142.25,221.88,141.91z"/>
	<path class="st0" d="M222.67,124.24c-0.37-0.55-0.72-1.16-1.34-1.46c-0.19-0.08-0.38-0.16-0.56-0.24c-0.31-0.1-0.63-0.11-0.94-0.04
		c-0.49,0.07-1.01,0.27-1.35,0.65c-0.28,0.3-0.48,0.65-0.61,1.04c-0.2,0.61-0.03,1.26,0.24,1.82c0.29,0.61,0.92,0.97,1.46,1.34
		c0.61,0.41,1.69,0.44,2.29,0c0.1-0.07,0.2-0.15,0.3-0.22c0.18-0.12,0.32-0.27,0.42-0.46c0.03-0.04,0.06-0.09,0.09-0.13
		C223.12,125.93,223.09,124.85,222.67,124.24z"/>
	<path class="st0" d="M147.29,26.47c-1.09-9.35-4.83-17.48-9.74-25.4c-0.38-0.62-1.06-0.8-1.65-0.61c-0.51-0.46-1.27-0.64-1.86-0.21
		c-1.42,1.07-2.33,2.45-3.53,3.74c-1.29,1.38-2.75,2.61-4.2,3.81c-2.77,2.3-5.79,4.27-8.52,6.62c-6.33,5.42-10.12,12.61-12.7,20.43
		c-2.59,7.85-4.29,16.09-4.31,24.38c0,0.36,0.01,0.71,0.01,1.07c-0.27-0.49-0.54-0.98-0.81-1.48c-2.35-4.37-4.59-8.83-7.13-13.1
		c-2.25-3.77-4.89-7.32-8.35-10.07c-3.59-2.85-7.75-4.86-11.85-6.89c-8.68-4.3-17.03-6.83-26.8-5.81
		c-4.72,0.49-9.42,1.36-13.97,2.71c-4.35,1.3-9.3,2.94-13.1,5.46c-1.5,1-1.13,3.33,0.26,3.92c-0.02,0.28,0.01,0.55,0.1,0.8
		c1.79,5.02,4.3,9.86,6.65,14.64c2.11,4.28,4.18,8.56,7.05,12.4c5.33,7.12,12.85,11.5,20.98,14.75c9.11,3.64,18.79,5.69,28.57,6.37
		c4.77,0.33,9.55,0.35,14.32,0.06c4.76-0.28,10.43-0.43,14.88-2.23c0.48-0.19,0.85-0.49,1.12-0.83c1.96-0.74,3.85-1.74,5.72-2.67
		c3.71-1.85,7.17-4.1,10.37-6.75c6.26-5.19,11.39-11.73,14.62-19.2C146.95,44.26,148.31,35.27,147.29,26.47z M97.24,78.18
		c-4.6,0.23-9.22,0.18-13.81-0.16c-8.86-0.66-17.71-2.47-26.06-5.54c-7.43-2.73-15.5-6.68-20.35-13.19
		c-5.68-7.63-8.18-17.37-13.18-25.42c-0.01-0.02-0.02-0.03-0.04-0.05c0.35-0.14,0.7-0.27,1.05-0.41c4.83,1.19,9.33,3.31,13.96,5.23
		c2.04,0.84,4.07,1.71,6.09,2.6c-4.31,0.79-8.4,2.49-11.49,5.54c-0.44,0.44,0.02,1.11,0.58,0.99c6.31-1.3,12.22-3.13,18.65-3.11
		c1.32,0.52,2.68,0.94,4.12,1.18c1.11,0.18,2.05-1.08,1.15-1.98c-0.25-0.26-0.52-0.5-0.78-0.73c0.07-1.03-0.55-2.17-1.87-2.29
		c-0.48-0.04-0.97-0.08-1.46-0.1c-1.4-0.82-2.86-1.54-4.35-2.28c-3.32-1.65-6.67-3.28-10.08-4.73c-2.45-1.04-4.94-2.07-7.45-2.99
		c0.42-0.14,0.83-0.27,1.26-0.39c4.15-1.21,8.38-2.14,12.68-2.62c4.58-0.51,9.22-0.52,13.69,0.71c4.24,1.16,8.17,3.15,12.07,5.14
		c3.82,1.95,7.81,3.87,10.98,6.81c3.04,2.81,5.2,6.33,7.17,9.93c3.03,5.51,5.76,11.2,8.64,16.8c-3.33-2.74-6.67-5.57-10.45-7.66
		c-2.78-1.54-5.71-2.84-8.63-4.15c0.2-0.98-0.2-2.07-1.37-2.28c-2.84-0.51-3.54-3.68-3.99-6.13c-0.65-3.55-1.16-6.95-2.29-10.39
		c-0.26-0.8-1.36-0.62-1.43,0.19c-0.29,3.43-0.74,10,0.86,14.72c-3.35-1.64-6.69-3.25-10.16-4.73c-0.74-0.32-1.56,0.53-0.91,1.19
		c3.93,3.99,8.33,6.9,12.98,9.52c-1.62,0.56-3.21,1.22-4.72,1.87c-3.53,1.52-6.92,3.25-9.62,6.02c-0.44,0.45,0,1.38,0.66,1.13
		c3.29-1.26,6.36-3,9.65-4.29c2.69-1.06,5.52-1.62,8.27-2.44c2.2,1.16,4.44,2.3,6.68,3.51c4.38,2.36,8.03,5.67,11.82,8.85
		c1.98,1.66,3.99,3.29,5.95,4.99c0.25,0.21,0.49,0.44,0.73,0.66C100.69,77.89,98.95,78.1,97.24,78.18z M139.75,48.82
		c-2.59,7.43-7.31,14.15-13.27,19.26c-2.87,2.45-6.04,4.55-9.41,6.26c-1.21,0.62-2.47,1.08-3.74,1.5c0.05-0.13,0.1-0.26,0.15-0.39
		c0.91-2.28,1.84-4.55,2.74-6.84c1.5-3.82,2.97-7.66,4.45-11.49c1.52-0.72,3.04-1.41,4.56-2.12c1.97-0.93,3.94-1.86,5.95-2.71
		c1.74-0.74,3.7-1.34,4.94-2.8c0.69-0.81,0.19-1.86-0.82-1.98c-3.59-0.41-8.26,2.7-11.33,4.31c-0.53,0.28-1.05,0.57-1.57,0.87
		c1.51-3.82,3.07-7.73,4.38-11.7c0.27-0.33,0.42-0.75,0.4-1.24c1.13-3.59,2.03-7.22,2.47-10.87c0.09-0.77-0.95-0.84-1.31-0.35
		c-1.33,1.8-2.53,3.71-3.64,5.71c-0.28-0.47-0.57-0.95-0.84-1.43c-1.24-2.21-2.2-4.56-3.61-6.67c-0.68-1.01-2.55-0.73-2.46,0.67
		c0.16,2.7,1.06,5.2,2.07,7.69c0.65,1.62,1.33,3.29,2.3,4.74c-2.19,4.68-4.03,9.57-5.92,14.2c-1.72,4.2-3.45,8.4-5.15,12.6
		c-0.85,2.1-1.68,4.21-2.51,6.32c-0.02,0.06-0.05,0.12-0.08,0.19c-0.72-1.48-1.28-3.03-1.72-4.62c-1.03-3.71-1.38-7.6-1.23-11.44
		c0.29-7.67,2.34-15.44,5.01-22.61c1.46-3.91,3.34-7.76,6.01-10.99c2.18-2.63,4.86-4.72,7.52-6.82c2.18-1.72,5.2-3.77,7.71-6.18
		c-0.4,1.41-0.74,2.84-1.04,4.39c-0.54,2.82-1.39,5.74-1.45,8.61c-0.03,1.64,2.18,1.75,2.7,0.37c1.09-2.89,1.41-6.21,2.01-9.23
		c0.51-2.58,0.71-4.86,0.79-7.37c0.72,1.79,1.91,3.55,2.68,5.17c1.78,3.73,3.11,7.64,3.94,11.69
		C143.14,31.85,142.56,40.77,139.75,48.82z"/>
</g>
</svg>
