<?xml version="1.0" encoding="utf-8"?>
<!-- Generator: Adobe Illustrator 27.5.0, SVG Export Plug-In . SVG Version: 6.00 Build 0)  -->
<svg version="1.1" id="Layer_1" xmlns="http://www.w3.org/2000/svg" xmlns:xlink="http://www.w3.org/1999/xlink" x="0px" y="0px"
	 viewBox="0 0 220.65 170" style="enable-background:new 0 0 220.65 170;" xml:space="preserve">
<style type="text/css">
	.st0{fill:#F3F3F3;}
</style>
<g>
	<g>
		<path class="st0" d="M9.18,120.81c28.11-4.08,58.93-16.14,77.78-38.32c2.47-2.9-1.04-6.99-4.1-4.44
			c-23.01,19.24-44.4,33.51-74.65,38.61C5.5,117.12,6.5,121.2,9.18,120.81L9.18,120.81z"/>
	</g>
	<g>
		<path class="st0" d="M6.81,115.95c-19,23.6,5.18,52.43,30.97,53.96c36.85,2.2,70.88-35.86,81.7-67.89
			c1.08-3.18-3.9-5.71-5.47-2.56c-10.17,20.38-23.12,39.36-42.25,52.35c-11.58,7.86-25.36,12.9-39.45,9.7
			c-20.23-4.6-30.92-23.74-21.15-42.78C12.68,115.74,8.88,113.37,6.81,115.95L6.81,115.95z"/>
	</g>
	<g>
		<path class="st0" d="M86.47,78.03c7.92-11.18-5.95-22.89-16.73-23.05C56.37,54.77,47.51,67.48,50,80.08
			c0.83,4.19,7.29,2.68,6.46-1.51c-1.49-7.52,2.88-15.35,10.68-16.89c6.58-1.29,19.65,4.87,14.45,13.23
			C79.6,78.09,84.32,81.06,86.47,78.03L86.47,78.03z"/>
	</g>
	<g>
		<path class="st0" d="M114.65,104.12c6.27-6.01,14.25-12.16,23.01-6.34c9.64,6.41,5.43,18.93-5.74,19.17
			c-3.42,0.07-4.56,4.99-1.07,6.09c14.75,4.65,23.69-14.9,15.72-25.81c-8.94-12.22-29.3-10.04-36.06,3.42
			C109.2,103.26,112.26,106.41,114.65,104.12L114.65,104.12z"/>
	</g>
	<g>
		<path class="st0" d="M123.39,120.74c1.5,41.47,62.82,33.72,82.63,11.42c34.62-38.97,1.7-84.54-35.79-104.09
			c-4.1-2.14-8.04,3.81-3.92,6.14c23.49,13.28,48.13,33.82,45.76,63.82c-1.5,18.95-13.99,34.92-31.39,41.75
			c-17.85,7.01-48.22,4.43-51.48-19.6C128.77,116.91,123.27,117.42,123.39,120.74L123.39,120.74z"/>
	</g>
	<g>
		<path class="st0" d="M172.66,28.92C137.47,4.03,90.68-13.25,51.14,13.4c-30.61,20.62-37.72,62.02,4.29,73.09
			c4.4,1.16,6.56-5.59,2.15-6.75c-27.41-7.21-30.87-35.15-12.22-53.09C56.99,15.48,71.98,9.05,87.85,7.88
			c32.46-2.39,54.47,11.2,81.77,25.79C172.81,35.38,175.65,31.03,172.66,28.92L172.66,28.92z"/>
	</g>
	<g>
		<path class="st0" d="M51.65,83.17c4.83,3.74,10.4,6.58,15.68,9.67c3.33,1.95,6.57-3.14,3.22-5.05
			c-5.52-3.15-10.95-6.65-16.82-9.07C50.97,77.59,49.58,81.57,51.65,83.17L51.65,83.17z"/>
	</g>
	<g>
		<path class="st0" d="M110,116.14c3.13,2.32,6.46,4.17,9.85,6.06c2.97,1.65,5.7,3.6,9.15,3.9c2.1,0.18,2.86-2.34,1.74-3.78
			c-2.2-2.84-5.85-4.17-8.96-5.83c-3.22-1.72-6.37-3.33-9.78-4.62C109.36,110.87,107.94,114.61,110,116.14L110,116.14z"/>
	</g>
	<g>
		<path class="st0" d="M99.12,130.85c12.7,8.78,31.81,16.94,47.5,15.55c2.48-0.22,3.6-3.79,0.81-4.64
			c-7.24-2.21-14.86-2.78-22.15-5.02c-8.26-2.54-15.71-6.34-23.38-10.28C98.98,124.96,96.33,128.92,99.12,130.85L99.12,130.85z"/>
	</g>
	<g>
		<path class="st0" d="M27.78,58.92c1.87,17.87,10.04,36.17,26.8,44.65c3.63,1.84,7.06-3.22,3.46-5.43
			c-15.28-9.38-22.57-22.89-25.83-40.26C31.67,54.94,27.49,56.09,27.78,58.92L27.78,58.92z"/>
	</g>
	<g>
		<path class="st0" d="M3.27,119.47c12.36,20.53,35.55,33.94,58.3,39.56c3.61,0.89,5.38-4.63,1.76-5.52
			c-24.02-5.94-40-18.87-56.38-36.66C5.24,114.99,1.91,117.21,3.27,119.47L3.27,119.47z"/>
	</g>
	<g>
		<path class="st0" d="M77.77,43.62c0.5,0.77,0.99,1.54,1.49,2.31c1.18,1.84,3.45,2.77,5.49,1.67c1.81-0.97,2.87-3.64,1.67-5.49
			c-0.5-0.77-0.99-1.54-1.49-2.31c-1.18-1.84-3.45-2.77-5.49-1.67C77.63,39.1,76.58,41.77,77.77,43.62L77.77,43.62z"/>
	</g>
	<g>
		<path class="st0" d="M105.72,38.81c-0.77,2.2-1.49,4.23-1.37,6.6c0.1,1.92,1.2,3.6,3.2,3.92c1.81,0.29,3.83-0.71,4.34-2.6
			c0.72-2.65,0.44-5.02,0.12-7.68C111.61,35.67,106.69,36.01,105.72,38.81L105.72,38.81z"/>
	</g>
	<g>
		<path class="st0" d="M126.59,56.72c2.13-1.1,4.77-2.19,5.93-4.41c1.14-2.18,0.1-6.03-3.01-5.75c-3.08,0.28-5.01,2.05-7.3,3.99
			C118.85,53.39,122.8,58.68,126.59,56.72L126.59,56.72z"/>
	</g>
	<g>
		<path class="st0" d="M139.92,68.57c2.65,0.25,5.33,0.23,7.99,0c2.3-0.2,4.35-1.59,4.45-4.11c0.09-2.23-1.79-4.47-4.11-4.45
			c-3.03,0.02-6.1,0.28-9.06,0.84C134.68,61.7,135.68,68.17,139.92,68.57L139.92,68.57z"/>
	</g>
	<g>
		<path class="st0" d="M159.98,85.73c1.87-1.03,3.81,0.38,5.49,1.17c3.65,1.71,7.15-1.35,5.61-5.19c-2.5-6.27-10.99-5.46-15.34-1.95
			C152.46,82.41,156.36,87.74,159.98,85.73L159.98,85.73z"/>
	</g>
	<g>
		<path class="st0" d="M161.71,101.67c1.65,1.48,2.97,2.72,4.95,3.83c4.94,2.78,9.62-4.41,4.76-7.46c-1.91-1.2-3.66-1.85-5.75-2.6
			C162.22,94.22,158.82,99.09,161.71,101.67L161.71,101.67z"/>
	</g>
	<g>
		<path class="st0" d="M150.82,118.12c-0.13,0.41-0.25,0.82-0.38,1.23c-1.47,4.73,6.14,6.34,6.79,1.19
			c0.05-0.42,0.11-0.85,0.16-1.27C157.89,115.45,151.93,114.56,150.82,118.12L150.82,118.12z"/>
	</g>
</g>
</svg>
