<?xml version="1.0" encoding="utf-8"?>
<!-- Generator: Adobe Illustrator 27.5.0, SVG Export Plug-In . SVG Version: 6.00 Build 0)  -->
<svg version="1.1" id="Layer_1" xmlns="http://www.w3.org/2000/svg" xmlns:xlink="http://www.w3.org/1999/xlink" x="0px" y="0px"
	 viewBox="0 0 174.41 317.53" style="enable-background:new 0 0 174.41 317.53;" xml:space="preserve">
<style type="text/css">
	.st0{fill:#F3F3F3;}
</style>
<g>
	<g>
		<path class="st0" d="M162.52,288.57c5.18-12.15,3.16-24.9-5.38-35.08c-7.49-8.94-17.83-12.74-26.89-19.46
			c-2.5-1.85-0.88-5.92,2.3-5.07c24.08,6.4,50.59,36.7,34.75,61.78C165.76,293.17,161.31,291.4,162.52,288.57L162.52,288.57z"/>
	</g>
	<g>
		<path class="st0" d="M169.63,302.89c-0.47-2.43-1.47-4.93-3.1-6.81c-1.63-1.88-4.52-2.68-5.25-5.17
			c-0.28-0.94,0.27-2.08,1.12-2.51c3.23-1.66,6.89,1.88,8.75,4.26c2.25,2.87,3.41,6.07,3.25,9.73
			C174.27,305.04,170.16,305.66,169.63,302.89L169.63,302.89z"/>
	</g>
	<g>
		<path class="st0" d="M167.37,317.2c-7.48-4.54-15.7-16.32-12.61-25.53c0.86-2.57,4.33-2.35,5.11,0.14
			c1.26,4.01,1.01,8.09,2.85,12.03c1.76,3.78,4.51,7.03,7.59,9.81C172.29,315.46,169.56,318.53,167.37,317.2L167.37,317.2z"/>
	</g>
	<g>
		<path class="st0" d="M149.6,310c-2.62-2.53-4.31-6.3-4.09-9.99c0.19-3.11,5.33-4.03,5.73-0.62c0.34,2.86,0.96,5.15,2.63,7.55
			C155.66,309.51,151.65,311.99,149.6,310L149.6,310z"/>
	</g>
	<g>
		<path class="st0" d="M148.16,301.13c-16.77-1.25-26.14-15.5-30.65-30.62c-4.03-13.52-3.63-27.68-9.16-40.82
			c-7.47-17.74-22.06-28.58-36.41-40.56C35.19,158.43,7.79,116.99,0.58,68.97c-0.59-3.93,5.19-5.47,6.1-1.48
			c11.72,51.7,36.58,88.55,76.76,122.46c12.38,10.45,24.78,21.37,31.27,36.61c10.68,25.11,2.88,58.08,34.19,69.97
			C151.23,297.42,150.96,301.34,148.16,301.13L148.16,301.13z"/>
	</g>
	<g>
		<path class="st0" d="M135.82,234.81c-11.8-4.07-16.75-12.88-23.04-23.23c-11.49-18.9-24.45-33.69-40.51-48.8
			C60.2,151.41,47.8,140.2,38.01,126.72C24.35,107.93,17.29,85.9,0.93,68.93C-2,65.9,2.67,61.63,5.69,64.5
			c12.4,11.77,19.1,26.37,27.23,41.18c9.63,17.53,22.12,31.67,36.51,45.37c12.62,12.02,25.87,23.6,36.32,37.66
			c10.67,14.35,15.87,32.37,31.9,42.08C139.76,232.07,138.23,235.64,135.82,234.81L135.82,234.81z"/>
	</g>
	<g>
		<path class="st0" d="M114.32,210.29C82.7,137.08,68.47,58.42,4.8,4.64C2.86,3,5.54-0.16,7.62,1.23
			c67.71,45.41,82.06,136.98,109.85,207.36C118.3,210.69,115.24,212.43,114.32,210.29L114.32,210.29z"/>
	</g>
	<g>
		<path class="st0" d="M99.06,187.45c-22.6-15.05-34.35-44.9-42.67-69.61C42.68,77.09,28.98,40.7,2.9,5.99
			C0.25,2.46,5.3-2.31,7.97,1.27c18.76,25.16,33.61,52.5,43.93,82.18c12.64,36.35,20.67,73.34,49.88,100.7
			C103.58,185.82,101.08,188.8,99.06,187.45L99.06,187.45z"/>
	</g>
	<g>
		<path class="st0" d="M124.81,227.19c-12.67-27.24-16.66-57.84-22.05-87.13C96.43,105.58,86,76.55,70.7,45.12
			c-1.02-2.09,1.77-4.32,3.41-2.44c19.22,21.9,26.39,54.59,31.96,82.41c6.81,33.95,12.44,67.5,22,100.85
			C128.63,227.85,125.66,229.02,124.81,227.19L124.81,227.19z"/>
	</g>
	<g>
		<path class="st0" d="M75.92,45.15c6.34,34.52,15.51,68.67,21.55,103.13c0.4,2.28-3.05,3.98-4.05,1.55
			C80.24,117.77,74.39,80.01,71.84,45.59C71.67,43.25,75.5,42.86,75.92,45.15L75.92,45.15z"/>
	</g>
	<g>
		<path class="st0" d="M144.59,289.6c-6.67-4.69-14.37-13.4-14.01-22.16c0.07-1.76,2.51-2.41,3.36-0.81
			c1.76,3.32,2.64,6.93,4.68,10.16c2.23,3.52,5.02,6.51,8.39,8.95C149.36,287.45,147,291.3,144.59,289.6L144.59,289.6z"/>
	</g>
	<g>
		<path class="st0" d="M129.22,256.41c-1.38-1.95-2.61-3.59-3.34-5.88c-0.49-1.53,1.61-3.18,2.93-2.11c2.02,1.62,3.23,3.55,4.66,5.7
			C135.22,256.74,130.98,258.9,129.22,256.41L129.22,256.41z"/>
	</g>
</g>
</svg>
