<?xml version="1.0" encoding="utf-8"?>
<!-- Generator: Adobe Illustrator 27.5.0, SVG Export Plug-In . SVG Version: 6.00 Build 0)  -->
<svg version="1.1" id="Layer_1" xmlns="http://www.w3.org/2000/svg" xmlns:xlink="http://www.w3.org/1999/xlink" x="0px" y="0px"
	 viewBox="0 0 263 308.49" style="enable-background:new 0 0 263 308.49;" xml:space="preserve">
<style type="text/css">
	.st0{fill:#F3F3F3;}
</style>
<g>
	<path class="st0" d="M31.7,308.05c-0.26-0.27-0.4-0.67-0.39-1.23c0.02-0.9,0.93-2.36,1.4-3.22c1.24-2.27,2.8-4.38,4.22-6.55
		c8.68-13.26,15.77-27.36,23.37-41.09c14.4-25.93,27.35-52.68,42.56-78.49c10.73-18.2,24.34-34.26,38.66-49.82
		c12.14-13.23,25.84-24.68,39.37-36.43c1.06-0.92,2.83-1.33,3.01-2.9c1.38-11.7,8.85-21.43,10.52-33.19
		c1.04-7.45,5.99-12.71,11.72-17.6c10.41-8.91,21.69-16.39,34.55-22.03c5.63-2.48,11.1-5.62,13.04-12.12
		c0.85-2.91,3.28-3.65,6.62-2.21c3.38,1.49,2.71,3.24,2.27,5.85c-0.79,4.69-1.21,9.39-3.44,13.6c-2.66,5.03-0.6,11.2-2.22,16.58
		c-1.17,3.88-1.39,8.11-1.92,12.2c-2.28,17.62-12.53,29.4-28.54,35.3c-17.84,6.6-28.41,19.44-37.27,35.28
		c-15.68,28.17-30.47,56.67-47.83,83.7c-6.61,10.3-15.32,18.73-23.49,27.64c-11.92,12.96-24.72,24.88-38.15,36.1
		c-9.83,8.23-18.85,17.61-28.17,26.5l-12.46,11.71C37.63,307.12,33.05,309.47,31.7,308.05z M233.76,35.67
		c-1.42-0.88-2.64-0.93-4.08,0.1c-5.45,3.94-10.68,8.11-14.88,13.29c-4.98,6.15-7.72,13.39-9.7,20.96
		c4.58-3.8,7.97-8.39,11.01-13.31c4.88-7.88,11.07-14.65,17.68-21.11c1.49-3.04,5.69-4.11,6.12-8.62
		C236.69,29.48,234.85,32.31,233.76,35.67z M39.99,297.92c0.05,0.09,0.16,0.15,0.36,0.18c0.6,0.08,1.81-0.75,2.4-1.13
		c1.06-0.69,1.91-1.62,2.85-2.5c9.77-9.15,19.51-18.38,29.54-27.28c15.62-13.85,30.6-28.49,45.03-43.76
		c17.53-18.43,28.62-40.82,41.03-62.47c1.54-2.67,0.55-4.12-2.16-4.79c-8.29-1.99-14.43-6.75-18.87-13.92
		c-1.99-3.34-3.89-3.07-6.31-0.07c-4.34,5.38-8.87,10.62-13.1,16.09c-6.53,8.43-12.88,17.07-17.9,26.42
		c-9.49,17.65-18.62,35.42-28.45,52.8c-6.02,11.03-12.01,22-18.01,33c-2.81,5.06-5.7,10.09-8.71,15.05l-4.7,7.52
		c-0.77,1.19-1.5,2.44-2.35,3.57C40.31,297.09,39.83,297.64,39.99,297.92z M151.4,146.36c2.17,1.25,4.81,3.19,7.77,4.4
		c5.05,2.08,6.57,1.44,9.49-3.57l26.45-46.43c1.59-2.83,2.11-5.04-0.59-7.68c-2.95-2.88-5.4-2.57-8.27-0.17
		c-5.1,4.26-10.01,8.77-15.4,12.61c-8.76,6.26-15.62,14.47-23.32,21.78c-5.22,4.98-5.11,9.62-0.71,14.61
		C148.09,143.29,149.55,144.51,151.4,146.36z M235.59,24.62c-26.81,9.32-39.53,28.98-42.21,55.73c1.23,0.19,1.85-0.59,2.32-1.73
		c2.74-6.61,5.59-13.18,8.15-19.87C206.05,53,209.24,48.08,214,44C221.34,37.7,228.37,31.07,235.59,24.62z M249.2,48.12
		c-9.87,11.23-18.05,22.78-28.64,33.19C237.05,78.1,250.16,63.86,249.2,48.12z M237.16,39.45c-6.02,4.71-11.95,9.52-15.73,16.34
		c-5.64,10.16-12.6,19.24-20.67,27.48c-1.31,1.34-3.3,2.57-1.14,5.66C214.07,73.76,228.13,58.66,237.16,39.45z M250.38,29.36
		c-11.32,15.08-19.09,30.8-31.06,44.26c2.71,0.42,3.55-0.42,4.31-1.23c9.57-10.07,17.6-21.39,26.2-32.26
		C251.65,37.84,252.43,35.04,250.38,29.36z"/>
	<g>
		<path class="st0" d="M51.74,153.25c13.13-21.37,28.7-46.71,44.27-72.05c5.64-9.36,10.36-19.28,15.03-29.17
			c1.06-2.26,2.57-3.73,4.17-5.28c12.83-12.4,25.93-24.84,39.28-36.65c2.55-2.25,7.6-10.45,11.8-10.08
			c6.1,0.55,1.32,10.95,0.33,13.56c-5.06,13.49-9.74,27.14-13.3,41.06c-0.71,2.77-2.03,5.42-1.59,8.39
			c0.22,1.51-0.16,2.88-1.18,3.99c-10.44,11.36-17.29,25.15-25.98,37.7c-13.92,20.21-26.94,41.01-40.31,61.56L41.85,231.5
			c-5.3,8.23-9.9,16.87-14.9,25.29c-3.5,5.88-4.49,6.18-7.76,2c-3.1-3.96-6.71-7.29-10.72-10.18c-2.48-1.78-6.25-2.37-8.02-5.02
			c-0.23-0.36-0.43-0.77-0.44-1.25c-0.04-1.35,2.63-4.67,3.42-6l4.3-7.25C22.05,205.39,34.49,180.66,51.74,153.25z M117.04,54.63
			c-2.61,2.32-3.76,5.02-5.13,7.52c-13.21,23.97-28.45,46.76-42.49,70.23c-5.49,9.14-11.84,17.79-17.25,26.97L14.29,224.3
			c-1.89,3.23-3.83,6.45-5.58,9.75c-3.3,6.18-3.22,6.7-0.19,8.44c2.65,1.5,3.25,1.01,6.8-5.61c1.64-3.04,2.98-6.3,4.92-9.12
			c13.9-20.18,26.11-41.46,38.7-62.44c12.95-21.56,27.11-42.2,41.09-63.01c6.42-9.57,12.79-19.17,18.45-29.25
			C122.08,66.65,122.44,60.59,117.04,54.63z M70.85,167.22c17.14-26.07,30.59-46.55,44.05-67.03c5.65-8.69,10.82-17.7,16.29-26.51
			c1.47-2.35,0.63-3.59-1.33-4.81c-2.05-1.28-3.69-1.27-4.76,1.2c-1.97,4.53-4.86,8.47-7.57,12.56
			c-16.09,24.25-33.51,47.55-48.49,72.59c-12.44,20.77-24.41,41.83-37.85,61.97c-5.13,7.69-9.74,15.62-13.79,23.89
			c-1.17,2.38-2.76,5.23-0.59,6.32c2.2,1.1,3.09-2.4,4.22-4.02C39.64,216.65,55.53,188.1,70.85,167.22z M134.35,77.03
			c-8.27,12.47-16.71,24.83-24.77,37.43c-10.41,16.27-20.88,32.56-31.76,48.45c-13.51,19.76-25.61,40.4-39.43,59.93
			c-5.3,7.51-9.82,15.61-14.55,23.52c-1.37,2.28-3.8,5.78-1.33,7.02c2.39,1.2,3.45-2.93,4.64-4.78
			c10.51-16.19,20.54-32.68,31.2-48.78c10.19-15.37,20.32-30.81,30.22-46.34c13.94-21.89,28.45-43.42,42.09-65.49
			C132.56,84.87,135.11,81.96,134.35,77.03z M130.76,63.27c0.86,0.39,2.6,1.33,4.46,1.98c6.34,2.21,8.32,1.36,10.71-5.3
			c1.92-5.38,2.78-11.21,5.13-16.37c2.77-6.08,0.87-10.01-3.62-14.39c-3.23-3.15-5.26-2.71-7.86-0.05
			c-3.82,3.91-7.6,7.87-11.55,11.65C120.4,48.15,121.36,57.17,130.76,63.27z M155.92,28.4c1.92-5.88,3.59-10.95,5.3-16.19
			c-1.08,0-1.71-0.14-2.21,0.04c-2.59,0.95-3.72,3.47-5.51,5.27C148.7,22.35,148.78,22.42,155.92,28.4z"/>
	</g>
</g>
</svg>
