<?xml version="1.0" encoding="utf-8"?>
<!-- Generator: Adobe Illustrator 27.5.0, SVG Export Plug-In . SVG Version: 6.00 Build 0)  -->
<svg version="1.1" id="Layer_1" xmlns="http://www.w3.org/2000/svg" xmlns:xlink="http://www.w3.org/1999/xlink" x="0px" y="0px"
	 viewBox="0 0 189.08 173.42" style="enable-background:new 0 0 189.08 173.42;" xml:space="preserve">
<style type="text/css">
	.st0{fill:#F3F3F3;}
</style>
<g>
	<path class="st0" d="M187.94,11.9c-0.98-2.64-3.52-4.52-6.33-4.67c-1.76-0.1-3.3,0.45-4.66,0.93c-1.11,0.39-2.15,0.76-2.82,0.57
		c-0.89-0.25-1.65-1.61-2.45-3.06c-1.2-2.17-2.7-4.87-5.88-5.54c-1.66-0.35-3.32-0.02-4.8,0.95c-2.45,1.61-3.81,4.54-4.26,6.76
		c-0.18,0.87-0.3,1.74-0.41,2.59c-0.19,1.4-0.38,2.75-0.82,3.84c-0.9-0.48-1.81-0.93-2.75-1.34c-8.74-3.87-18.6-4.71-29.31-2.49
		c-12.09,2.5-72.41,41.81-99.46,64.81C17.54,80.43,12.15,86.4,8.15,92.81c-6.21,9.96-8.89,20.57-7.98,31.53
		c0.89,10.75,5.43,21.48,12.77,30.23c7.34,8.75,17.02,14.96,27.24,17.48c8.58,2.12,17.51,1.72,25.81-0.79
		c3.88-1.17,7.63-2.81,11.14-4.86c22.92-10.53,76.82-58.23,92.18-77.74c10.23-13,13.02-30.93,8.06-46.89
		c1.68,0.03,3.51-0.06,5.3-0.6c0.45-0.14,0.91-0.3,1.35-0.5c3.09-1.39,5.84-4.96,4.85-8.83c-0.75-2.94-3.2-4.54-5.17-5.83
		c-0.24-0.15-0.47-0.31-0.7-0.46c-1.42-0.95-2.21-2.15-2.04-2.63c0.16-0.43,1.09-0.89,1.99-1.34c1.03-0.51,2.2-1.09,3.2-2.04
		C188.2,17.61,188.91,14.54,187.94,11.9z M41.43,167.04c-18.92-4.67-34.44-23.2-36.1-43.12c-1.35-16.2,6.72-32.43,21.85-44.6l0,0
		c0.01-0.01,0.03-0.02,0.04-0.03c1.99-1.6,4.1-3.13,6.33-4.58c1.87-1.21,3.92-2.15,6.13-2.82c6.12-1.85,13.41-1.58,21.18,0.85
		c9.64,3.02,18.89,9.06,24.75,16.17c12.83,15.59,15.11,39.35,5.41,56.5c-3.88,6.87-9.54,12.44-16.14,16.36
		c-0.1,0.05-0.21,0.1-0.31,0.14l0.02,0.04c-3.17,1.85-6.54,3.33-10.05,4.39C57.1,168.57,49.11,168.93,41.43,167.04z M165.25,85.47
		c-11.6,14.73-45.46,45.78-70.67,64.02c0.31-0.51,0.63-1.02,0.93-1.54c10.71-18.94,8.22-45.16-5.92-62.33
		C83.13,77.77,72.96,71.1,62.4,67.8c-6.33-1.98-12.42-2.67-18-2.09c29.97-22.4,71.48-48.42,80.1-50.2c18.29-3.79,34,2.48,43.12,17.2
		C177.77,49.11,176.8,70.81,165.25,85.47z M182.59,15.82c-0.43,0.41-1.15,0.76-1.92,1.14c-1.64,0.81-3.67,1.81-4.55,4.17
		c-1.11,2.98,0.43,6.32,4,8.72c0.25,0.17,0.5,0.33,0.76,0.5c1.34,0.88,2.73,1.78,2.98,2.77c0.24,0.93-0.68,2.26-1.97,2.84
		c-1.72,0.78-4.02,0.68-6.06,0.59l-0.04,0.87c-1.05-2.56-2.32-5.06-3.8-7.45c-3.22-5.21-7.32-9.59-12.07-12.96
		c0.96-1.91,1.24-3.99,1.5-5.89c0.11-0.79,0.21-1.54,0.35-2.25c0.3-1.45,1.13-2.88,2.03-3.47c0.42-0.27,0.7-0.26,0.9-0.22
		c0.87,0.18,1.63,1.55,2.43,2.99c1.16,2.09,2.6,4.68,5.56,5.52c2.25,0.64,4.31-0.09,5.96-0.68c0.99-0.35,1.93-0.68,2.65-0.64
		c0.74,0.04,1.5,0.6,1.76,1.3C183.34,14.39,183.13,15.3,182.59,15.82z"/>
	<path class="st0" d="M36.45,92.42c-0.2-0.18-0.42-0.33-0.67-0.42c-0.97-0.38-2.39-0.23-3.02,0.72c-0.12,0.19-0.24,0.38-0.36,0.57
		c-1.1,1.11-1.56,2.91-1.02,4.37c0.2,0.53,0.53,1.03,0.95,1.44c0.87,1.07,2.22,1.73,3.65,1.62c2.02-0.17,3.46-1.8,3.74-3.74
		c0.16-1.08-0.15-2.17-0.8-3.03C38.28,93.06,37.41,92.62,36.45,92.42z"/>
	<path class="st0" d="M26.25,125.63c0.28-0.15,0.55-0.36,0.78-0.62c0,0,0,0,0.01,0c0.01-0.01,0.02-0.03,0.03-0.04
		c0.19-0.22,0.34-0.47,0.43-0.75c0.15-0.38,0.22-0.78,0.18-1.2c-0.01-0.06-0.03-0.13-0.04-0.19c0-0.06,0.01-0.11,0.01-0.17
		c0.03-0.11,0.07-0.22,0.08-0.34c0.08-0.71-0.09-1.3-0.45-1.92c-0.02-0.04-0.04-0.07-0.06-0.11c-0.16-0.17-0.32-0.34-0.48-0.51
		c-0.27-0.24-0.58-0.39-0.92-0.46c-0.52-0.15-1.13-0.18-1.65,0.04c-0.23,0.1-0.44,0.23-0.63,0.37c-0.51,0.28-0.96,0.69-1.18,1.24
		c-0.06,0.22-0.13,0.43-0.19,0.65c-0.07,0.45-0.02,0.89,0.13,1.31c0.07,0.3,0.14,0.6,0.21,0.9c0.2,0.85,0.73,1.57,1.57,1.9
		C24.81,126.02,25.55,126,26.25,125.63z"/>
	<path class="st0" d="M60.9,107.25c0.36,0.49,0.81,0.87,1.37,1.11c0.28,0.08,0.55,0.16,0.83,0.24c0.57,0.09,1.13,0.03,1.67-0.17
		c0.43-0.14,0.79-0.38,1.08-0.71c0.36-0.28,0.62-0.63,0.79-1.06c0.19-0.4,0.28-0.82,0.25-1.25c0.05-0.43-0.01-0.84-0.18-1.25
		c-0.13-0.25-0.27-0.51-0.4-0.76c-0.36-0.49-0.81-0.87-1.37-1.11c-0.28-0.08-0.55-0.16-0.83-0.24c-0.57-0.09-1.13-0.03-1.67,0.17
		c-0.43,0.14-0.79,0.38-1.08,0.71c-0.36,0.28-0.62,0.63-0.79,1.06c-0.19,0.4-0.28,0.82-0.25,1.25c-0.05,0.43,0.01,0.84,0.18,1.25
		C60.63,106.74,60.76,107,60.9,107.25z"/>
	<path class="st0" d="M43.31,136.51c-4.13,1.24-1.76,7.49,2.34,6.26C49.77,141.52,47.4,135.27,43.31,136.51z"/>
	<path class="st0" d="M71.51,144.45c0.47-0.16,0.87-0.42,1.19-0.78c0.39-0.31,0.68-0.7,0.87-1.17c0.21-0.44,0.31-0.9,0.28-1.37
		c0.05-0.47-0.01-0.93-0.2-1.38c-0.15-0.28-0.3-0.56-0.44-0.84c-0.39-0.54-0.89-0.95-1.5-1.23c-0.3-0.09-0.61-0.18-0.91-0.27
		c-0.63-0.1-1.24-0.03-1.84,0.19c-0.47,0.16-0.87,0.42-1.19,0.78c-0.39,0.31-0.68,0.7-0.87,1.17c-0.21,0.44-0.31,0.9-0.28,1.37
		c-0.05,0.47,0.01,0.93,0.2,1.38c0.15,0.28,0.3,0.56,0.44,0.84c0.39,0.54,0.89,0.95,1.5,1.23c0.3,0.09,0.61,0.18,0.91,0.27
		C70.3,144.73,70.91,144.67,71.51,144.45z"/>
	<path class="st0" d="M85.45,123.83c4.57-1.38,1.95-8.29-2.59-6.92C78.3,118.28,80.91,125.19,85.45,123.83z"/>
	<path class="st0" d="M67.73,87.23c3.19-0.96,1.36-5.79-1.81-4.84C62.74,83.35,64.57,88.18,67.73,87.23z"/>
	<path class="st0" d="M32.72,140.43c-3.82,1.15-1.63,6.94,2.16,5.8C38.71,145.07,36.51,139.28,32.72,140.43z"/>
	<path class="st0" d="M102.5,60.52c-3.5-8.01-14.69-10.88-22.6-10.68c-1.87,0.05-1.99,3.18-0.09,3.31
		c3.98,0.28,7.87,1.27,11.47,2.99c3.42,1.63,6.24,4.22,9.6,5.9C101.8,62.5,102.91,61.46,102.5,60.52z"/>
	<path class="st0" d="M104.62,32.07c2.83,0.76,5.42,2.29,7.65,4.19c2.01,1.71,3.44,4.16,5.69,5.55c1.14,0.7,2.66,0.1,2.57-1.38
		c-0.42-6.89-9.81-10.33-15.52-10.9C103.34,29.35,103.03,31.65,104.62,32.07z"/>
	<path class="st0" d="M131.42,27.85c2.07,1.45,4.7,4.3,7.42,3.92c0.75-0.11,1.59-0.72,1.64-1.55c0.21-3.43-3.53-5.61-6.13-7.13
		c-3.19-1.86-6.48-2.77-10.11-3.31c-1.9-0.28-2.62,2.35-0.93,3.18C126.1,24.33,128.86,26.06,131.42,27.85z"/>
	<path class="st0" d="M162.56,45.67c0.27,1.99,0.2,3.84,0.23,5.83c0.02,1.61,0.41,3.01,0.18,4.66c-0.5,3.54-1.91,6.33-3.59,9.39
		c-3.55,6.45-8.56,11.86-13.77,17.02c-5.2,5.16-10.2,10.52-15.46,15.62c-2.63,2.54-5.31,5.03-7.98,7.53
		c-2.27,2.12-5.66,4.86-5.96,8.13c-0.08,0.88,0.47,1.99,1.48,2.04c3.43,0.17,6.56-2.64,8.99-4.81c3.04-2.73,5.97-5.57,8.86-8.47
		c5.81-5.84,11.51-11.86,16.25-18.61c4-5.7,8.42-11.87,10.21-18.71c0.91-3.46,1.4-7.01,2.21-10.47c0.8-3.41,0.61-6.01-0.23-9.47
		C163.78,44.53,162.45,44.86,162.56,45.67z"/>
</g>
</svg>
