<?xml version="1.0" encoding="utf-8"?>
<!-- Generator: Adobe Illustrator 27.5.0, SVG Export Plug-In . SVG Version: 6.00 Build 0)  -->
<svg version="1.1" id="Layer_1" xmlns="http://www.w3.org/2000/svg" xmlns:xlink="http://www.w3.org/1999/xlink" x="0px" y="0px"
	 viewBox="0 0 247.7 160.43" style="enable-background:new 0 0 247.7 160.43;" xml:space="preserve">
<style type="text/css">
	.st0{fill-rule:evenodd;clip-rule:evenodd;fill:#F3F3F3;}
</style>
<g>
	<path class="st0" d="M183.44,54.7c-0.17-0.73-0.14-1.64,0.54-2.68c1.82-2.79,4.97-3.05,7.6-1.34c1.48,0.97,2.44,2.53,2.83,4.37
		c0.47,2.24,0.05,4.88-0.93,6.74c-0.93,1.77-2.37,2.86-3.87,3.14c-1.17,0.22-2.49,0.03-3.84-0.97c-0.62-0.46-1.35-1.42-1.79-2.81
		C183.4,59.33,183.16,56.54,183.44,54.7L183.44,54.7z"/>
	<path class="st0" d="M186.04,82.92c-0.33-1.57-0.64-3.09-0.9-4.53c-0.47-2.6,1.5-3.33,1.9-3.46c0.65-0.22,1.87-0.44,3.02,0.78
		c0.14,0.15,0.41,0.49,0.68,1.01c0.39,0.74,1.07,2.32,1.44,2.99c1.84,3.3,3.39,6.77,4.69,10.32c1.92,5.23,7.01,21.81,4.98,31.59
		c-1.11,5.36-4.1,8.97-9.68,9.33c-5.28,0.34-8.3-3.26-9.31-9.31c-1.71-10.27,2.72-28.57,3.1-33.13
		C186.11,86.64,186.15,84.78,186.04,82.92L186.04,82.92z"/>
	<path class="st0" d="M207.56,53.57c-0.45,0.07-0.86,0.12-1.24,0.12c-2.53,0.05-3.97-1.15-4.5-2.68c-0.35-1.02-0.26-2.32,0.88-3.52
		c1.09-1.16,4.35-2.62,4.82-2.82c3.73-1.6,21.33-5.09,31.16-4.35c3.1,0.23,5.53,0.96,6.92,2c1.62,1.22,2.34,2.83,2.03,4.84
		c-1.38,8.97-8.56,11.77-17.14,11.48C221.77,58.34,211.64,54.73,207.56,53.57L207.56,53.57z"/>
	<path class="st0" d="M201.81,71.27l-0.25-0.51c-0.49-1.03-0.75-1.97-0.78-2.46c-0.1-1.6,0.75-2.45,1.54-2.88
		c0.46-0.25,1.14-0.47,2.04-0.39c0.65,0.05,1.67,0.32,2.94,0.87c5.35,2.29,17.28,10.01,24.55,18.21c7.18,8.09,9.54,16.64,1.43,22.04
		c-5.93,3.95-11.72,1.46-16.58-4.13c-5.93-6.82-10.47-18.34-12.12-22.62c-0.91-2.35-1.8-4.73-2.56-7.14
		C201.99,72.09,201.9,71.71,201.81,71.27L201.81,71.27z M224.63,101.49c0.05,0.03,0.11,0.06,0.16,0.09l-0.03-0.09
		C224.72,101.49,224.68,101.49,224.63,101.49L224.63,101.49z M210.26,74.46l0.02-0.01l-0.05-0.03L210.26,74.46L210.26,74.46z"/>
</g>
<path class="st0" d="M89.38,71.56c-0.04-0.32-0.11-0.75-0.21-1.05c-0.34-1.09-0.91-2.22-1.63-3.38c-1.04-1.68-2.37-3.37-3.9-5
	c-4.3-4.59-10.17-8.76-16.08-10.73c-3.04-1.01-6.07-1.49-8.76-0.65c-4.78,1.49-7.31,6.94-8.24,16.92
	c-0.47,4.98,0.71,10.2,3.31,14.48c14.35,23.55,37.02,26.56,52.11,16.52c15.34-10.21,21.52-32.96,4.25-58.8
	c-19.19-28.71-52.96-29-74.35-11.94c-14.4,11.49-23.06,30.81-18.26,54.5c10.89,53.73,68.53,75.46,103.74,53.49
	c14.89-9.3,25.29-26.56,26.48-52.23c0.21-4.46,1.11-9.61,1.03-14.32c-0.04-2.2,0.09-4.4-1.6-5.64c-3.61-2.67-4.37-7.77-1.71-11.38
	c2.67-3.61,7.77-4.37,11.38-1.7c4.87,3.6,7.25,8.75,7.96,14.78c0.7,5.98-0.54,13.05-0.81,19.01c-1.49,32.28-15.38,53.58-34.11,65.28
	c-43.25,27-114.91,1.96-128.3-64.06c-6.22-30.68,5.4-55.57,24.05-70.45c28.19-22.5,72.72-22.23,98.02,15.61
	c23.98,35.87,12.54,67.21-8.76,81.38c-21.55,14.34-54.53,12.03-75.02-21.59c-4.4-7.23-6.41-16.05-5.62-24.46
	c1.82-19.41,10.29-28.03,19.59-30.93c5.75-1.8,12.26-1.42,18.74,0.74c8.36,2.78,16.73,8.54,22.82,15.04
	c4.37,4.66,7.55,9.71,9.06,14.26c1.41,4.26,1.46,8.25,0.35,11.66c-1.81,5.56-6.73,10.68-17.52,11.67c-4.47,0.41-8.43-2.89-8.84-7.36
	c-0.41-4.47,2.89-8.43,7.36-8.84C87.21,72.28,88.71,71.79,89.38,71.56L89.38,71.56z"/>
</svg>
