<?xml version="1.0" encoding="utf-8"?>
<!-- Generator: Adobe Illustrator 27.5.0, SVG Export Plug-In . SVG Version: 6.00 Build 0)  -->
<svg version="1.1" id="Layer_1" xmlns="http://www.w3.org/2000/svg" xmlns:xlink="http://www.w3.org/1999/xlink" x="0px" y="0px"
	 viewBox="0 0 405.02 151.02" style="enable-background:new 0 0 405.02 151.02;" xml:space="preserve">
<style type="text/css">
	.st0{fill-rule:evenodd;clip-rule:evenodd;fill:#F3F3F3;}
</style>
<g>
	<g>
		<path class="st0" d="M169.82,117.64c0.51,0.87,0.87,1.86,1.22,2.78c0.83,2.19,1.6,4.42,2.31,6.65c0.88,2.77,1.96,13.3-0.23,19.12
			c-1.2,3.18-3.31,5.07-6.4,4.79c-1.38-0.12-2.48-0.82-3.29-2.03c-0.88-1.31-1.41-3.38-1.56-5.9c-0.47-7.65,2.25-19.87,4-24.75
			c-0.09-0.34-0.03-0.64,0.02-0.83c0.11-0.46,0.37-0.92,0.93-1.16c0.71-0.81,1.62-0.51,1.83-0.44c0.39,0.14,1.05,0.47,1.17,1.45
			C169.82,117.39,169.83,117.5,169.82,117.64L169.82,117.64z M167.81,147.47c0.5-0.14,0.9-0.47,1.24-0.92
			c-0.11,0.06-0.19,0.1-0.25,0.12c-0.13,0.05-0.26,0.08-0.39,0.1c-0.19,0.29-0.39,0.52-0.58,0.68L167.81,147.47L167.81,147.47z"/>
		<path class="st0" d="M162.94,118.55c0.04,0.55,0.09,1.44,0,1.84c-0.88,3.63-5.84,14.38-10.95,20.03c-1.45,1.6-2.93,2.81-4.33,3.44
			c-1.18,0.54-2.33,0.69-3.42,0.46c-0.93-0.2-1.62-0.75-2.09-1.49c-0.47-0.75-0.69-1.73-0.79-2.5c-0.53-4.41,1.27-8.48,4.21-12.09
			c4.04-4.97,10.25-9.07,14.46-12.11c1.52-1.1,4.28-0.27,3.28,1.51l0,0.01C163.27,117.99,163.14,118.3,162.94,118.55L162.94,118.55z
			"/>
		<path class="st0" d="M169.92,145.42c0.21,0.38,0.28,0.85,0.16,1.31c-0.22,0.78-0.41,1.19-0.52,1.36
			c-0.23,0.37-0.49,0.54-0.67,0.64c-0.31,0.17-0.6,0.23-0.88,0.23c-0.18,0.05-0.33,0.06-0.44,0.07c-0.6,0.02-1.34-0.15-1.71-1.15
			c-0.05-0.14-0.09-0.3-0.11-0.46c-0.24-0.25-0.43-0.58-0.49-1.03c-0.04-0.26-0.02-0.68,0.13-1.14c0.19-0.57,0.61-1.28,0.81-1.5
			c0.71-0.78,1.52-0.64,1.87-0.53c0.36,0.11,0.69,0.33,0.93,0.71c0.51,0.26,0.89,0.57,0.9,0.58
			C169.89,144.52,170.05,144.85,169.92,145.42L169.92,145.42z"/>
		<path class="st0" d="M154.36,109.32c0.92-0.18,1.69-0.19,2.24-0.07c0.89,0.19,1.47,0.68,1.8,1.33c0.75,1.5,0.55,3.06-0.54,4.59
			c-1.69,2.38-6.12,4.8-10.88,6.55c-5.31,1.95-10.98,3.1-13.31,2.87c-1.42-0.14-2.16-0.86-2.42-1.48c-0.36-0.83-0.32-1.8,0.28-2.85
			c0.5-0.87,1.48-1.88,2.82-2.9c4.49-3.41,13.07-7.23,14.91-7.66C150.88,109.34,152.65,109.15,154.36,109.32L154.36,109.32z"/>
	</g>
	<path class="st0" d="M164.48,93.08c1.79,1.1,3.77,2.12,5.93,3.06c28.07,12.24,54.83-0.97,81.65-17.23
		c15.8-9.58,31.51-20.49,47.53-28.46c11.96-5.95,24.08-10.36,36.24-11.73c13.32-1.49,26.73,0.51,39.99,8.07
		c9.84,5.6,19.53,14.3,29.19,26.91c-10.89-10.96-21.33-18.04-31.44-22.39c-12.61-5.41-24.62-6.11-36.45-3.87
		c-5.6,1.06-11.13,2.79-16.66,4.95c-5.37,2.1-10.72,4.62-16.08,7.41c-15.66,8.15-31.3,18.67-46.95,28.02
		c-29.81,17.81-59.89,30.81-90.82,16.92c-5.78-2.61-10.45-5.72-14.14-9.18c-5.03,0.8-9.85,1.26-14.18,1.42
		c-25.96,0.96-48.36-4.01-67.95-14.5C50.87,72.08,34.2,56.24,19.41,35.72C14.68,29.1,9.74,22.42,5.89,15.23
		C3.31,10.42,1.22,5.39,0,0c1.42,5.31,3.7,10.23,6.45,14.92c4.11,7,9.28,13.45,14.25,19.84C35.88,54.4,52.77,69.3,72.15,78.99
		c19.19,9.6,40.85,14.06,65.88,12.59c3.09-0.18,6.43-0.51,9.93-1.03c-9.81-13.1-8.32-29.6-0.95-43.03
		c11.66-21.24,38.05-34.14,56.89-14.2c3.58,3.79,5.93,8.02,6.95,12.51c1.03,4.54,0.75,9.36-1.05,14.32
		c-3.89,10.73-12.66,18.86-23.49,24.65C179.56,88.42,172.01,91.14,164.48,93.08L164.48,93.08z M158.49,88.53
		c8.48-2.01,17.18-5.04,24.78-9.29c9.22-5.15,16.83-12.1,20.01-21.39c1.24-3.61,1.42-7.11,0.62-10.38
		c-0.81-3.28-2.63-6.31-5.31-9.05c-15.07-15.39-35.25-3.72-44.12,13.1c-4.32,8.18-6.04,17.73-3.01,26.35
		C152.8,81.72,155.1,85.32,158.49,88.53L158.49,88.53z"/>
</g>
</svg>
