<?xml version="1.0" encoding="utf-8"?>
<!-- Generator: Adobe Illustrator 27.5.0, SVG Export Plug-In . SVG Version: 6.00 Build 0)  -->
<svg version="1.1" id="Layer_1" xmlns="http://www.w3.org/2000/svg" xmlns:xlink="http://www.w3.org/1999/xlink" x="0px" y="0px"
	 viewBox="0 0 121 129.78" style="enable-background:new 0 0 121 129.78;" xml:space="preserve">
<style type="text/css">
	.st0{fill-rule:evenodd;clip-rule:evenodd;fill:#F3F3F3;}
</style>
<g>
	<path class="st0" d="M1.06,60.5c-0.17,2.37,0.23,4.67,1.06,6.9c0.7,1.88,1.87,3.48,3.07,5.08c0.76,1.02,1.5,2.06,2.44,2.92
		c0.76,0.65,0.84,1.8,0.19,2.56c-0.65,0.76-1.8,0.84-2.56,0.19c-0.92-0.74-1.77-1.55-2.49-2.47c-0.31-0.39-0.6-0.81-0.84-1.25
		c-0.8-1.45-1.3-3.02-1.61-4.66C-0.26,66.65-0.07,63.46,1.06,60.5L1.06,60.5z"/>
	<g>
		<path class="st0" d="M13.23,33.07c-1.34-1.35-2.37-3.01-3.01-5.02c-1.83-5.8-0.3-14.8,7.75-28.05c-5.95,15.02-5.7,23.65-1.79,28.2
			c1.55-2.3,3.24-4.48,5.04-6.51c6.26-7.03,13.72-12.12,20.43-13.95c7.68-2.1,14.68-0.7,19.43,5.48c2.99,3.96,2.59,8.69-1.53,13.12
			c-2.97,3.19-7.97,6.38-13.87,8.57c-6.95,2.57-14.97,3.94-21.59,3.01c-5.16,9.79-7.13,21.25-0.5,30.15l0.22,0.29l0.08-0.21
			c9.98-25.97,41.42-38.66,65.19-37.65c11.63,0.49,21.4,4.28,26.87,10.64c5.36,6.23,7.18,15.13,1.83,26.76
			c-7.7,16.7-28.95,25.79-51.17,26.59c-11.21,0.4-22.52-1.31-32.21-4.94c0.27,1.67,0.66,3.3,1.16,4.9c2.4,7.66,7.2,14.51,13.7,19.75
			c6.79,5.49,15.08,9.39,24.31,10.52c9.02,1.11,18.62-0.1,28.24-4.74c-9.04,6.54-18.91,9.5-28.63,9.77
			c-10.98,0.31-21.58-2.95-30.36-8.53c-8.93-5.67-15.79-13.92-19.35-23.34c-1.83-4.87-2.7-10.07-2.52-15.44
			c-3.22-2.36-5.98-5.05-8.17-8.05C3.92,62.11,6.05,46.27,13.23,33.07L13.23,33.07z M34.78,76.95c8.8,4.34,20.28,6.19,31.45,5.72
			c16.69-0.7,33.25-6.59,38.97-19.17c2.95-6.47,2.84-11.45-0.15-14.9c-5.04-5.84-16.1-7.13-27.63-5.38
			c-16.53,2.5-34.49,11.9-41.04,28.6C35.7,73.54,35.17,75.25,34.78,76.95L34.78,76.95z M28.06,31.53l0.46-0.04
			c6.56-0.7,13.65-3.72,18.66-7.19c1.87-1.3,3.38-2.69,4.36-4.05c0.34-0.48,0.84-0.88,0.5-1.28c-2.31-2.8-5.87-2.21-9.49-0.48
			C37.43,20.92,32.25,25.7,28.06,31.53L28.06,31.53z"/>
		<path class="st0" d="M72.58,27.45c2.79-1.47,6.19-2.56,9.7-2.93c2.28-0.24,4.5,0.02,6.65,0.44c0.88,0.17,1.74,0.33,2.57,0.64
			c1.1,0.4,2.32-0.18,2.72-1.28c0.4-1.1-0.18-2.32-1.28-2.72c-0.89-0.33-1.8-0.64-2.76-0.76c-2.08-0.25-4.22,0.09-6.34,0.65
			C79.58,22.6,75.55,24.83,72.58,27.45L72.58,27.45z"/>
	</g>
</g>
</svg>
