<?xml version="1.0" encoding="utf-8"?>
<!-- Generator: Adobe Illustrator 27.5.0, SVG Export Plug-In . SVG Version: 6.00 Build 0)  -->
<svg version="1.1" id="Layer_1" xmlns="http://www.w3.org/2000/svg" xmlns:xlink="http://www.w3.org/1999/xlink" x="0px" y="0px"
	 viewBox="0 0 187.96 314.07" style="enable-background:new 0 0 187.96 314.07;" xml:space="preserve">
<style type="text/css">
	.st0{fill:#F3F3F3;}
</style>
<path class="st0" d="M65.3,307.21c-9.79-3.16-19.9-5.63-27.83-12.71c-5.56-4.99-12-8.92-16.68-15.2
	c-15.03-20.72-21.62-44.14-20.7-68.52c0.24-6.29,1.01-12.56,1.36-18.91c0.38-6.89,2.03-13.45,4.57-19.56
	c2.82-5.99,6.51-11.55,10.66-16.6c6.85-8.34,16.46-15.25,27.98-18.38c6.69-1.71,7.81-3.18,7.5-9.76c-0.09-1.88-0.38-3.8-0.78-5.68
	c-2.93-14.16-5.52-28.75-7.76-43.39c-1.96-14.49-3.94-29.24-6.48-44.22c-0.59-3.48-1.82-6.05-4.74-8.66
	c-5.07-4.53-5.22-8.05-1.25-13.31c3.36-4.48,6.48-5.12,12.61-2.54c7.78,3.27,10.87,7.8,10.16,14.69c-0.54,4.61-2.15,8.51-7.69,8.33
	c-4.31-0.14-5.15,1.88-4.79,5.35c0.1,1,0.1,2.01,0.3,2.99c4.91,24.39,7.28,48.2,12.09,71.89c1.09,5.71,2.95,11.32,4.37,16.92
	c0.94,3.73,2.96,5.46,7.3,4.96c3.99-0.45,8.11-0.51,12.18-0.33c9.08,0.42,8.09,1.76,9.55-7.4c3.45-24.44,9.25-48.17,11.75-73.66
	c1.01-7.37,3.17-14.53,4.47-21.95c0.9-5.14,1.92-10-2.36-15.7c-4.07-5.45-1.57-12.44,3.99-14.66c6.79-2.75,16.38-0.62,19.83,4.24
	c4.77,6.82,0.62,17.97-7.84,18.16c-7.93,0.1-8.31,4.38-9.47,9.72c-3.52,15.62-6.2,31.28-8.15,47.11
	c-2.24,15.58-4.47,31.1-6.69,46.51c-1.28,8.29-1.08,8.59,7.91,11.14c5.5,1.57,10.93,5.12,16.78,3.61c0.57-0.15,1.52-0.13,1.95,0.19
	c11.31,8.64,25.95,12.18,36.49,21.7c7.59,6.82,14.33,14.07,19.63,22.38c7.76,12.34,11.17,23.84,12.2,35.03
	c1,11.16-1.29,21.6-3.53,32.32c-3.85,18.99-15.78,33.34-32.68,45.69c-20.77,14.29-45.6,19.3-76.14,11.17L65.3,307.21z M49.7,275.22
	c2.36,9.94-10.37,6.42-14.01,11.08c11.65,9.35,8.13,10.69,26.91,0.63c-2.93-4.92-10.91-5.87-12.92-11.54
	c-2.21-0.33-3.96-1.5-5.13-3.03c-4.09-5.35-9.05-5.89-15.21-4.22c-7.83,2.13-8.35,3.58-2.72,9.52c2.16,2.27,4.22,2.92,7.18,2.19
	C39.25,278.52,44.9,277.73,49.7,275.22z M159.1,282.75c-2-0.5-3.29-0.94-4.57-1.12c-27.44-3.79-52.84-14.21-74.71-30.28
	c-28.24-20.87-46.76-48.95-54.67-81.63c-0.44-1.88,0.62-4.72-3.78-5.42c-2.37,2.71-3.44,6.18-3.87,9.91
	c-0.84,7.93,0.55,16.02,3.5,23.63c5.59,14.19,12.22,27.59,20.98,39.58c9.07,12.11,20.32,22.8,34.55,31.52
	c15.95,9.82,32.41,18.83,51.54,22.04C141.05,293.17,153.94,295.09,159.1,282.75z M34.27,150.73c-4.56,2.9-4.73,6.72-4.91,10.35
	c-0.38,7.62,1.56,15.04,3.79,22.4c4.27,12.92,12.95,23.86,20.28,35.12c16.08,24.66,40.99,39.04,69.36,50.2
	c10.87,4.27,21.81,7.3,33.33,8.05c10.45,0.68,10.46,0.82,13.83-7.71c-33.21-5.29-62.16-18.55-88.03-39.1
	c-13.32-10.56-23.51-22.56-31.41-35.93C42.81,180.84,37.89,166.41,34.27,150.73z M51.64,141.93c-9.36,2.81-10.56,4.22-10.79,11.12
	c-0.13,4.1,0.39,8.18,1.59,12.22c8.33,28.97,28.36,52.08,54.21,70.89c12.75,9.25,27.77,14.23,41.86,20.97
	c10.12,4.8,20.78,5,31.21,6.85c2.11,0.37,4.06-0.11,4.41-1.9c0.46-2.34-2.08-2.78-3.96-3.14c-16.46-3.15-30.4-11.47-44.76-19.44
	c-19.27-10.63-34.79-24.87-48.22-40.73c-4.47-5.31-9.88-10.77-11.99-16.78C60.68,169.18,52.03,157,51.64,141.93z M11.3,176.5
	c-3.54,6.52-5.81,11.63-4.77,17.99c4.9,32.32,20.78,60.27,49.23,81.3c15.82,11.76,32.69,21.25,53.23,24.33
	c5.39,0.81,11.11,0.38,15.8,4.2c1.2,0.97,2.77,0.87,3.8,0.3c3.74-2.08,9.19-2.41,11.67-6.42c-33.53-5.73-62.48-18.92-86-41.12
	C30.54,234.99,17.73,208.44,11.3,176.5z M100.21,215c8.81,9,8.83,8.86,18.34,8.42c19.64-0.89,39.53-0.42,59.29,8.18
	c1.21,0.53,2.61,1.18,4.09,0.1c1.16-4.99,0.2-10.75,0.09-16.41c-0.07-3.14-1.68-4.74-5.56-6.56c-20.88-9.81-42.09-13.46-63.83-14.06
	c-7.17-0.2-13.8,1.41-20.07,3.74c-6.69,2.49-6.4,6.13,0.28,10.29c2.84,1.76,4.56,0.21,6.57-0.21c25.53-5.28,50.65,0.52,75.92,10.47
	c2.34,0.92,3.53,2.48,3.24,4.14c-0.4,2.36-2.87,1.31-4.66,0.46c-8.26-3.92-16.66-7.34-25.49-9.47
	C131.96,210.12,116.03,209.73,100.21,215z M108.35,189.85c7.47,0.22,14.25,2.22,17.06,0.25c7.08-5.04,14.98-9.51,16.55-19.19
	c1.59-10.86-0.42-14.66-13.47-18.81c-4.59-1.46-6.66-1.04-7.1,3.44C120.01,167.64,118.3,179.43,108.35,189.85z M83.8,194.45
	c9.09-0.7,13.24-4.4,18.32-8.16c11.65-8.75,12.82-20.9,14.51-33.62c0.36-3.12-1.21-5.24-4.75-6.35l-6.95-2.05
	c-3.24-0.88-5.06-0.27-5.12,3.07C99.14,164.33,95.06,179.72,83.8,194.45z M89,177.07c2.4-10.32,6.86-19.31,5.96-29.85
	c-0.57-5.81-1.13-6.05-8.48-6.98c-4.88-0.62-7.57,0.14-7.73,5.12c-0.5,11.73-0.41,23.68-5.82,34.11c-0.39,0.77-0.76,1.68-0.67,2.54
	c0.27,2.81,1.33,5.71,4.38,7.04c2.78,1.21,4.07-1.37,5.31-2.75C84.68,183.24,86.92,179.84,89,177.07z M118.46,228.74
	c6.72,6.26,11.96,8.55,19.65,7.84c10.15-0.95,20.76-0.76,31.82,2.34c3.49,0.97,7.46,2.11,11.72-0.04
	C160.86,226.82,140.31,226.73,118.46,228.74z M133.92,191.57c5.98,1.29,9.31,2,12.62,2.71c1.63,0.33,3.7,0.9,4.25-0.65
	c1.57-4.74,7.01-6.93,8.84-11.58c3.14-7.99,1.04-12.06-10.35-17.56C146.24,174.09,145.2,184.49,133.92,191.57z M67.19,174.42
	c5.14-7.57,7.24-22.98,5.85-30.93c-0.25-1.24-0.41-2.43-1.83-3.21c-5.29-2.93-14.98,1.39-14.26,7.03
	C57.96,156.78,62.56,165.35,67.19,174.42z M141.04,242c2.29,4.21,6.43,4.75,9.76,6.13c7.12,2.93,14.53,4.72,21.89,6.46
	c5.25,1.24,5.43-2.14,6.18-4.82c0.59-2.12-0.63-3.68-3.42-4.67C163.71,240.96,152.43,239.73,141.04,242z M114.04,306.36l-20.12-4.83
	c-8.37-2.2-8.97-2.22-14.31,4.7C91.79,309.38,102.95,309.8,114.04,306.36z M56.07,298.93c1.26,0.65,2.43,1.35,3.69,1.89
	c7.83,3.38,11.7,2.93,17.12-1.41c3.11-2.44,2.21-3.88-1.66-5.6C69.12,291.08,62.5,292.47,56.07,298.93z M156.49,196.12
	c5.85,2.6,10.29,4.68,13.34,0.65c3.46-4.11,2.39-9.5-3.27-15.27C164.15,186.66,161.06,191.3,156.49,196.12z M119.89,14.77
	c1.68-2.08,1.48-6.33-0.38-7.78c-3.7-2.89-12.45-1.59-13.95,2.42c-0.48,1.2-0.59,2.47,0.19,3.7
	C108.42,17.28,117.31,18.28,119.89,14.77z M32.01,261.37c-5.3-9.62-8.1-7.98-13.66-5.85c-2.05,0.78-4.9,1.3-3.48,4.36
	c1.25,2.69,2.71,5.4,6.85,4.32C24.91,263.38,28.5,263.48,32.01,261.37z M6.41,217.23l-1.73,0.44c0.19,4.64,0.36,9.32,1.12,14.02
	c1.01,6.9,1.15,6.85,9.49,3.86C12.11,229.44,9.18,223.35,6.41,217.23z M39.9,23.7c2.71,1.59,5.59,3.82,7.86,0.3
	c1.84-2.84,0.36-5.78-2.32-7.84c-3.21-2.47-8.94-1.99-10.08,0.77C33.78,20.83,37.43,22.03,39.9,23.7z M17.64,242.07
	c-1.89,0.63-4.04,1.36-6.17,2.07c-1.82,0.63-2.45,1.91-1.69,3.63c0.72,1.64,2.1,2.49,4.06,2.22c1.66-0.23,3.37-0.35,4.94-0.76
	c1.55-0.41,3.24-0.94,2.15-3.09C20.22,244.71,19.68,243.2,17.64,242.07z"/>
</svg>
