<?xml version="1.0" standalone="no"?>
<!DOCTYPE svg PUBLIC "-//W3C//DTD SVG 20010904//EN"
 "http://www.w3.org/TR/2001/REC-SVG-20010904/DTD/svg10.dtd">
<svg version="1.0" xmlns="http://www.w3.org/2000/svg"
 width="380.000000pt" height="380.000000pt" viewBox="0 0 380.000000 380.000000"
 preserveAspectRatio="xMidYMid meet">
<metadata>
Created by potrace 1.14, written by Peter Selinger 2001-2017
</metadata>
<g transform="translate(0.000000,380.000000) scale(0.100000,-0.100000)"
fill="#000000" stroke="none">
<path d="M1851 3693 c-66 -74 -167 -188 -249 -279 l-82 -92 -253 0 c-138 0
-257 -1 -263 -1 -19 -2 -17 -510 2 -584 23 -91 71 -165 141 -219 l36 -27 55
50 c106 97 258 178 402 214 81 20 120 25 225 30 248 10 497 -81 683 -250 59
-53 55 -54 129 22 23 24 57 73 75 110 l33 68 3 295 4 295 -266 -1 -266 -1 -32
36 c-36 42 -166 187 -188 211 -8 8 -44 48 -79 88 -35 39 -67 72 -71 72 -3 0
-21 -17 -39 -37z"/>
<path d="M1765 2644 c-154 -32 -183 -42 -300 -101 -201 -102 -361 -289 -434
-508 -42 -127 -51 -184 -47 -315 10 -315 154 -594 707 -1365 63 -88 133 -186
154 -217 22 -32 43 -58 46 -58 3 0 19 19 36 43 16 23 97 134 179 247 82 113
181 250 219 305 38 55 83 120 100 145 121 175 273 460 320 604 48 145 68 314
50 421 -3 17 -8 46 -11 65 -11 65 -54 184 -94 258 -95 175 -225 301 -406 391
-121 60 -216 83 -369 86 -71 1 -139 1 -150 -1z"/>
</g>
</svg>
