<svg xmlns="http://www.w3.org/2000/svg" width="21.802" height="43.821" viewBox="81.462 146.873 21.802 43.821"><path fill="#b8c617" d="M92.364 156.816c0-2.574 1.944-4.693 4.445-4.971a5.28 5.28 0 0 0-.373-.417l-4.072-4.556-4.072 4.556a5.28 5.28 0 0 0-.373.417c2.5.278 4.445 2.398 4.445 4.971"/><path fill="#8a1e43" d="M92.521 159.869c-6.092-.086-11.058 4.827-11.058 10.9 0 2.473 1.121 5.204 2.777 8.067l1.351-1.686 3.528 2.827-2.308 2.879c1.771 2.584 3.752 5.225 5.554 7.839 5.006-6.986 10.9-14.156 10.9-19.762 0-5.995-4.749-10.98-10.744-11.064m3.278 14.923c-1.172 2.009-3.058 3.257-5.609 3.714l-3.585-2.869c.514-4.826 2.542-6.063 5.095-7.623 1.572-.958 3.318-2.025 4.809-4.079.936 3.36 1.079 7.796-.71 10.857"/><path fill="#fff" d="M95.799 174.792c1.789-3.061 1.646-7.497.709-10.856-1.49 2.054-3.236 3.121-4.809 4.079-2.553 1.559-4.581 2.796-5.095 7.623l3.585 2.869c2.552-.458 4.438-1.706 5.61-3.715m-11.552 4.035c.763 1.316 1.636 2.66 2.569 4.019l2.3-2.87-3.526-2.827-1.343 1.678z"/><path fill="#6d9c2e" d="M96.132 158.807c1.8.605 3.405 1.632 4.71 2.96 1.373-.893 2.285-2.435 2.285-4.194v-5.76h-5.76c-.189 0-.376.011-.558.032 1.57 1.964 1.446 4.837-.373 6.658l-.304.304h0z"/><path fill="#23411e" d="M92.537 158.195c1.223.016 2.436.223 3.595.612l.305-.304c1.819-1.82 1.943-4.694.373-6.658-2.501.277-4.445 2.397-4.445 4.971v1.38l.172-.001"/><path fill="#456e2b" d="M88.592 158.803c1.185-.394 2.453-.606 3.772-.606v-1.381c0-2.574-1.945-4.693-4.445-4.971-1.57 1.964-1.447 4.837.373 6.658l.3.3z"/><path fill="#8fa925" d="M83.85 161.746c1.313-1.324 2.931-2.343 4.742-2.943l-.3-.3c-1.82-1.82-1.943-4.694-.373-6.658-.182-.021-.368-.032-.556-.032h-5.76v5.758a5 5 0 0 0 2.247 4.175"/></svg>